<svg width="694" height="137" viewBox="0 0 694 137" fill="none" xmlns="http://www.w3.org/2000/svg">
<path d="M282.677 96.8735L363.864 36.951H379.14V26.8006L355.643 26.8822L282.677 80.2465V96.8735Z" stroke="#003650" stroke-width="2.8727" stroke-miterlimit="10"/>
<path d="M363.866 36.9511V26.8008" stroke="#003650" stroke-width="2.8727" stroke-miterlimit="10"/>
<path d="M355.644 26.8815L363.239 36.9502" stroke="#003650" stroke-width="2.8727" stroke-miterlimit="10"/>
<path d="M340.624 37.8763L348.589 48.4077" stroke="#003650" stroke-width="2.8727" stroke-miterlimit="10"/>
<path d="M348.333 32.46L348.219 47.9441" stroke="#003650" stroke-width="2.8727" stroke-miterlimit="10"/>
<path d="M348.333 32.6246L363.239 36.9514" stroke="#003650" stroke-width="2.8727" stroke-miterlimit="10"/>
<path d="M325.576 48.8705L333.513 59.3746" stroke="#003650" stroke-width="2.8727" stroke-miterlimit="10"/>
<path d="M333.285 43.4269L333.171 58.911" stroke="#003650" stroke-width="2.8727" stroke-miterlimit="10"/>
<path d="M333.286 43.5914L348.192 47.9183" stroke="#003650" stroke-width="2.8727" stroke-miterlimit="10"/>
<path d="M310.556 59.8645L318.436 70.3142" stroke="#003650" stroke-width="2.8727" stroke-miterlimit="10"/>
<path d="M318.208 54.3674L318.094 69.8515" stroke="#003650" stroke-width="2.8727" stroke-miterlimit="10"/>
<path d="M318.209 54.5304L333.115 58.8572" stroke="#003650" stroke-width="2.8727" stroke-miterlimit="10"/>
<path d="M295.507 70.8578L303.472 81.4164" stroke="#003650" stroke-width="2.8727" stroke-miterlimit="10"/>
<path d="M303.245 65.4694L303.131 80.9534" stroke="#003650" stroke-width="2.8727" stroke-miterlimit="10"/>
<path d="M303.245 65.6332L318.151 69.96" stroke="#003650" stroke-width="2.8727" stroke-miterlimit="10"/>
<path d="M288.282 76.7903L288.169 92.2471" stroke="#003650" stroke-width="2.8727" stroke-miterlimit="10"/>
<path d="M288.282 76.9269L303.188 81.2809" stroke="#003650" stroke-width="2.8727" stroke-miterlimit="10"/>
<path d="M371.49 27.2641L364.321 36.5981" stroke="#003650" stroke-width="2.8727" stroke-miterlimit="10"/>
<path d="M371.404 27.3448L378.686 36.5427" stroke="#003650" stroke-width="2.8727" stroke-miterlimit="10"/>
<path d="M282.678 85.0905L288.225 92.4379" stroke="#003650" stroke-width="2.8727" stroke-miterlimit="10"/>
<path d="M137.086 47.2373H88.897V136.577H137.086V47.2373Z" fill="#003650"/>
<path d="M93.1061 85.3076H54.333V136.576H93.1061V85.3076Z" fill="#003650"/>
<path d="M202.059 60.5178H143.003V136.578H202.059V60.5178Z" fill="#003650"/>
<path d="M207.293 48.7336H186.868V136.576H207.293V48.7336Z" fill="#003650"/>
<path d="M227.206 85.9611H203.624V136.577H227.206V85.9611Z" fill="#003650"/>
<path d="M282.193 45.8777H225.1V136.578H282.193V45.8777Z" fill="#003650"/>
<path d="M324.124 87.9758H282.222V136.578H324.124V87.9758Z" fill="#003650"/>
<path d="M350.295 102.507H322.018V136.578H350.295V102.507Z" fill="#003650"/>
<path d="M408.185 36.6523H372.086V136.578H408.185V36.6523Z" fill="#003650"/>
<path d="M459.702 58.4215H396.265V136.604H459.702V58.4215Z" fill="#003650"/>
<path d="M54.9028 26.8829H40.3096V30.9376H54.9028V26.8829Z" fill="#003650"/>
<path d="M46.7953 20.6772C46.6816 19.9697 46.1695 18.5547 43.8084 19.8064C43.1541 20.1874 42.1585 19.4255 41.8456 18.6907C41.4473 19.4527 40.281 20.1602 39.8543 19.7248C38.0337 21.4664 35.8433 18.9901 36.5829 17.4117C35.5019 18.3914 34.364 17.1396 35.0468 16.813C34.5632 16.6225 33.2546 15.7789 33.8236 14.7449C35.0752 12.8128 37.5501 14.5272 37.5501 14.5272C39.1716 12.8128 39.9396 14.4999 39.9396 14.4999C42.8697 11.9964 43.2679 15.8334 43.2679 15.8334C44.7472 14.8809 45.3445 17.7655 45.3445 17.7655C47.1936 18.4186 46.9376 19.9153 46.7953 20.6772Z" fill="#003650"/>
<path d="M267.458 21.4411C267.344 20.7608 266.889 19.4546 264.641 20.6247C264.016 20.9785 263.105 20.2709 262.821 19.5906C262.451 20.2982 261.342 20.9785 260.972 20.5703C259.265 22.203 257.217 19.89 257.928 18.3933C256.932 19.3185 255.851 18.1483 256.506 17.8218C256.05 17.6585 254.827 16.8421 255.368 15.8897C256.534 14.0664 258.867 15.672 258.867 15.672C260.374 14.0664 261.114 15.6448 261.114 15.6448C263.845 13.2773 264.243 16.8966 264.243 16.8966C265.637 15.9985 266.177 18.6926 266.177 18.6926C267.856 19.3185 267.6 20.7063 267.458 21.4411Z" fill="#5C89A0"/>
<path d="M355.357 63.755C355.272 63.1292 354.817 61.8774 352.712 62.9931C352.114 63.3196 351.261 62.6665 350.977 62.0134C350.635 62.6938 349.583 63.3196 349.213 62.9387C347.62 64.4898 345.657 62.2856 346.311 60.8705C345.373 61.7413 344.348 60.6256 344.946 60.3535C344.519 60.1902 343.353 59.4282 343.865 58.5302C344.974 56.8158 347.165 58.3397 347.165 58.3397C348.587 56.8158 349.27 58.3125 349.27 58.3125C351.858 56.081 352.228 59.5099 352.228 59.5099C353.537 58.6663 354.077 61.2243 354.077 61.2243C355.699 61.7413 355.471 63.0747 355.357 63.755Z" fill="#5C89A0"/>
<path d="M362.499 62.7488C362.442 62.3678 362.158 61.6059 360.878 62.2862C360.508 62.4767 359.996 62.0957 359.825 61.6875C359.626 62.0957 358.972 62.4767 358.744 62.259C357.777 63.2114 356.582 61.878 356.98 61.0072C356.412 61.5242 355.786 60.8711 356.156 60.6806C355.899 60.5718 355.188 60.1092 355.501 59.5649C356.184 58.5308 357.521 59.4561 357.521 59.4561C358.403 58.5308 358.801 59.4561 358.801 59.4561C360.394 58.0954 360.593 60.1908 360.593 60.1908C361.39 59.6738 361.703 61.2249 361.703 61.2249C362.698 61.5515 362.556 62.3406 362.499 62.7488Z" fill="#5C89A0"/>
<path d="M257.786 13.6851C257.729 13.3313 257.416 12.6238 256.165 13.1953C255.823 13.3858 255.283 12.9776 255.112 12.6238C254.913 13.0048 254.287 13.3313 254.088 13.1136C253.149 13.9572 251.926 12.6782 252.296 11.9163C251.755 12.3789 251.101 11.753 251.471 11.5897C251.215 11.4809 250.504 11.0455 250.788 10.5556C251.414 9.60319 252.779 10.5012 252.779 10.5012C253.604 9.68482 254.06 10.5284 254.06 10.5284C255.567 9.33106 255.852 11.236 255.852 11.236C256.62 10.7733 256.99 12.2156 256.99 12.2156C257.985 12.5694 257.843 13.3041 257.786 13.6851Z" fill="#5C89A0"/>
<path d="M35.2177 136.496H12.6309C14.8782 89.7444 17.0117 48.0544 20.6813 14.1201L28.2197 14.0929C31.548 47.4558 33.5393 90.8601 35.2177 136.496Z" fill="#003650"/>
<path d="M31.6045 16.8418H17.0112V20.8965H31.6045V16.8418Z" fill="#003650"/>
<path d="M23.583 11.7792C23.4123 10.5818 22.5589 8.18709 18.5479 10.3097C17.4384 10.9356 15.7601 9.6838 15.248 8.45922C14.5938 9.73822 12.6025 10.9628 11.9198 10.2281C8.87594 13.167 5.1494 9.00348 6.42951 6.30941C4.63735 7.96939 2.67452 5.87401 3.84084 5.30254C3.01588 5.0032 0.825473 3.56092 1.76422 1.84652C3.86929 -1.41901 8.05098 1.46554 8.05098 1.46554C10.7819 -1.3918 12.062 1.43833 12.062 1.43833C17.0117 -2.80687 17.6945 3.69699 17.6945 3.69699C20.1978 2.06422 21.1934 6.90809 21.1934 6.90809C24.2657 7.96939 23.7821 10.473 23.583 11.7792Z" fill="#003650"/>
<path d="M36.4119 136.577C38.4885 93.8531 40.5651 55.6463 43.9787 24.134L51.5172 24.1068C54.5894 55.0205 56.5238 94.5334 58.1453 136.468L36.4119 136.577Z" fill="#003650"/>
<path d="M126.646 54.6389H98.6831V60.5169H126.646V54.6389Z" fill="white"/>
<path d="M471.194 136.386H424.655V98.5878L438.679 85.1174H471.194V136.386Z" fill="#003650"/>
<path d="M301.935 79.05H292.661V117.855H301.935V79.05Z" fill="#003650"/>
<path d="M318.947 79.05H309.673V117.855H318.947V79.05Z" fill="#003650"/>
<path d="M303.784 79.05H290.357V81.6625H303.784V79.05Z" fill="#003650"/>
<path d="M321.052 79.05H307.625V81.6625H321.052V79.05Z" fill="#003650"/>
<path d="M24.635 106.425H0V136.577H24.635V106.425Z" fill="#003650"/>
<path d="M236.934 101.908H138.052V136.604H236.934V101.908Z" fill="#5C89A0"/>
<path d="M277.612 28.8688H233.406V74.6679H277.612V28.8688Z" fill="#5C89A0"/>
<path d="M286.062 66.3951H219.354V136.604H286.062V66.3951Z" fill="#5C89A0"/>
<path d="M333.028 115.786H282.222V136.577H333.028V115.786Z" fill="#5C89A0"/>
<path d="M152.219 68.9268H126.617V136.578H152.219V68.9268Z" fill="#5C89A0"/>
<path d="M50.0382 66.2864H22.1887V136.577H50.0382V66.2864Z" fill="#5C89A0"/>
<path d="M111.967 91.1593H41.6182V136.577H111.967V91.1593Z" fill="#5C89A0"/>
<path d="M170.483 97.5H161.892V136.714H170.483V97.5Z" fill="#5C89A0"/>
<path d="M193.922 97.5H185.331V136.714H193.922V97.5Z" fill="#5C89A0"/>
<path d="M85.9668 82.5044H68.0168V96.138H85.9668V82.5044Z" fill="#5C89A0"/>
<path d="M268.056 23.1002H264.016V30.23H268.056V23.1002Z" fill="#5C89A0"/>
<path d="M274.313 23.1002H270.274V30.23H274.313V23.1002Z" fill="#5C89A0"/>
<path d="M411.797 67.9193H348.958V136.604H411.797V67.9193Z" fill="#5C89A0"/>
<path d="M471.193 97.5H385.54V136.578H471.193V97.5Z" fill="#5C89A0"/>
<path d="M357.463 64.0281H353.424V71.1578H357.463V64.0281Z" fill="#5C89A0"/>
<path d="M364.831 64.0281H360.792V71.1578H364.831V64.0281Z" fill="#5C89A0"/>
<path d="M87.1034 81.2812H66.8208V82.4786H87.1034V81.2812Z" fill="#5C89A0"/>
<path d="M114.357 91.24H49.1282V93.6075H114.357V91.24Z" fill="#5C89A0"/>
<path d="M234.346 81.662H229.141V93.0369H234.346V81.662Z" fill="white"/>
<path d="M240.974 81.6614H235.768V93.0363H240.974V81.6614Z" fill="white"/>
<path d="M250.275 81.662H245.069V93.0369H250.275V81.662Z" fill="white"/>
<path d="M256.903 81.6614H251.698V93.0363H256.903V81.6614Z" fill="white"/>
<path d="M266.206 81.662H261V93.0369H266.206V81.662Z" fill="white"/>
<path d="M272.836 81.6614H267.631V93.0363H272.836V81.6614Z" fill="white"/>
<path d="M234.346 97.7177H229.141V109.093H234.346V97.7177Z" fill="white"/>
<path d="M240.974 97.7172H235.768V109.092H240.974V97.7172Z" fill="white"/>
<path d="M250.105 97.7177H244.899V109.093H250.105V97.7177Z" fill="white"/>
<path d="M256.732 97.7172H251.526V109.092H256.732V97.7172Z" fill="white"/>
<path d="M266.206 97.7177H261V109.093H266.206V97.7177Z" fill="white"/>
<path d="M272.836 97.7172H267.631V109.092H272.836V97.7172Z" fill="white"/>
<path d="M234.431 113.774H229.225V125.149H234.431V113.774Z" fill="white"/>
<path d="M241.059 113.774H235.853V125.149H241.059V113.774Z" fill="white"/>
<path d="M250.105 113.774H244.899V125.149H250.105V113.774Z" fill="white"/>
<path d="M256.732 113.774H251.526V125.149H256.732V113.774Z" fill="white"/>
<path d="M266.206 113.774H261V125.149H266.206V113.774Z" fill="white"/>
<path d="M272.836 113.774H267.631V125.149H272.836V113.774Z" fill="white"/>
<path d="M138.025 77.1974H133.047V83.0754H138.025V77.1974Z" fill="white"/>
<path d="M145.506 77.197H140.528V83.075H145.506V77.197Z" fill="white"/>
<path d="M138.024 86.5602H133.046V92.4381H138.024V86.5602Z" fill="white"/>
<path d="M145.506 86.561H140.528V92.439H145.506V86.561Z" fill="white"/>
<path d="M138.024 95.7327H133.046V101.611H138.024V95.7327Z" fill="white"/>
<path d="M145.506 95.7321H140.528V101.61H145.506V95.7321Z" fill="white"/>
<path d="M138.024 104.521H133.046V110.399H138.024V104.521Z" fill="white"/>
<path d="M145.506 104.521H140.528V110.399H145.506V104.521Z" fill="white"/>
<path d="M138.167 113.174H133.189V119.052H138.167V113.174Z" fill="white"/>
<path d="M145.649 113.173H140.67V119.051H145.649V113.173Z" fill="white"/>
<path d="M138.167 121.827H133.189V127.705H138.167V121.827Z" fill="white"/>
<path d="M145.648 121.828H140.67V127.706H145.648V121.828Z" fill="white"/>
<path d="M269.449 34.2021H241.372V37.1956H269.449V34.2021Z" fill="white"/>
<path d="M269.449 40.7065H241.372V43.7H269.449V40.7065Z" fill="white"/>
<path d="M269.449 47.2373H241.372V50.2307H269.449V47.2373Z" fill="white"/>
<path d="M269.449 53.8512H241.372V56.8446H269.449V53.8512Z" fill="white"/>
<path d="M269.477 60.5178H241.4V63.5112H269.477V60.5178Z" fill="white"/>
<path d="M176.456 106.616H171.023V109.501H176.456V106.616Z" fill="white"/>
<path d="M183.596 106.616H178.163V109.501H183.596V106.616Z" fill="white"/>
<path d="M176.456 111.051H171.023V113.936H176.456V111.051Z" fill="white"/>
<path d="M183.596 111.051H178.163V113.936H183.596V111.051Z" fill="white"/>
<path d="M176.456 115.46H171.023V118.344H176.456V115.46Z" fill="white"/>
<path d="M183.596 115.405H178.163V118.29H183.596V115.405Z" fill="white"/>
<path d="M176.456 119.76H171.023V122.645H176.456V119.76Z" fill="white"/>
<path d="M183.596 119.76H178.163V122.645H183.596V119.76Z" fill="white"/>
<path d="M201.005 111.161H195.572V114.045H201.005V111.161Z" fill="white"/>
<path d="M208.146 111.161H202.712V114.045H208.146V111.161Z" fill="white"/>
<path d="M215.031 111.161H209.598V114.045H215.031V111.161Z" fill="white"/>
<path d="M426.731 105.719H417.372V108.712H426.731V105.719Z" fill="white"/>
<path d="M439.047 105.718H429.688V108.711H439.047V105.718Z" fill="white"/>
<path d="M426.731 111.977H417.372V114.971H426.731V111.977Z" fill="white"/>
<path d="M439.047 111.977H429.688V114.97H439.047V111.977Z" fill="white"/>
<path d="M451.282 105.636H441.923V108.629H451.282V105.636Z" fill="white"/>
<path d="M463.598 105.636H454.239V108.63H463.598V105.636Z" fill="white"/>
<path d="M451.281 111.867H441.922V114.861H451.281V111.867Z" fill="white"/>
<path d="M463.598 111.867H454.239V114.86H463.598V111.867Z" fill="white"/>
<path d="M367.505 81.662H360.307V88.5468H367.505V81.662Z" fill="white"/>
<path d="M378.939 81.6614H371.742V88.5462H378.939V81.6614Z" fill="white"/>
<path d="M390.291 81.6614H383.094V88.5462H390.291V81.6614Z" fill="white"/>
<path d="M401.641 81.6614H394.444V88.5462H401.641V81.6614Z" fill="white"/>
<path d="M367.505 98.4515H360.307V105.336H367.505V98.4515Z" fill="white"/>
<path d="M378.939 98.4512H371.742V105.336H378.939V98.4512Z" fill="white"/>
<path d="M390.291 98.4512H383.094V105.336H390.291V98.4512Z" fill="white"/>
<path d="M401.641 98.4512H394.444V105.336H401.641V98.4512Z" fill="white"/>
<path d="M367.505 115.542H360.307V122.426H367.505V115.542Z" fill="white"/>
<path d="M378.939 115.541H371.742V122.426H378.939V115.541Z" fill="white"/>
<path d="M390.291 115.541H383.094V122.426H390.291V115.541Z" fill="white"/>
<path d="M401.641 115.541H394.444V122.426H401.641V115.541Z" fill="white"/>
<path d="M76.1524 99.6769H72.1414V128.278H76.1524V99.6769Z" fill="white"/>
<path d="M53.8504 99.6218H50.4368V102.887H53.8504V99.6218Z" fill="white"/>
<path d="M60.2217 99.6227H56.8081V102.888H60.2217V99.6227Z" fill="white"/>
<path d="M66.6797 99.6227H63.2661V102.888H66.6797V99.6227Z" fill="white"/>
<path d="M53.8504 109.773H50.4368V113.039H53.8504V109.773Z" fill="white"/>
<path d="M60.2217 109.774H56.8081V113.039H60.2217V109.774Z" fill="white"/>
<path d="M66.6797 109.774H63.2661V113.039H66.6797V109.774Z" fill="white"/>
<path d="M53.8504 119.923H50.4368V123.188H53.8504V119.923Z" fill="white"/>
<path d="M60.2217 119.922H56.8081V123.188H60.2217V119.922Z" fill="white"/>
<path d="M66.6797 119.922H63.2661V123.188H66.6797V119.922Z" fill="white"/>
<path d="M82.4954 99.5682H78.4844V128.169H82.4954V99.5682Z" fill="white"/>
<path d="M91.2576 99.5687H87.844V102.834H91.2576V99.5687Z" fill="white"/>
<path d="M97.6585 99.5686H94.2449V102.834H97.6585V99.5686Z" fill="white"/>
<path d="M104.088 99.5686H100.674V102.834H104.088V99.5686Z" fill="white"/>
<path d="M91.2579 109.718H87.8442V112.984H91.2579V109.718Z" fill="white"/>
<path d="M97.6585 109.718H94.2449V112.983H97.6585V109.718Z" fill="white"/>
<path d="M104.088 109.718H100.674V112.983H104.088V109.718Z" fill="white"/>
<path d="M91.2576 119.868H87.844V123.134H91.2576V119.868Z" fill="white"/>
<path d="M97.6585 119.869H94.2449V123.134H97.6585V119.869Z" fill="white"/>
<path d="M104.088 119.869H100.674V123.134H104.088V119.869Z" fill="white"/>
<path d="M81.9552 84.4376H71.6006V90.0979H81.9552V84.4376Z" fill="white"/>
<path d="M431.055 89.7448C431.254 89.5543 431.481 89.3366 431.681 89.1461C433.16 87.731 434.668 86.2887 436.147 84.8737C436.204 84.8193 436.289 84.792 436.374 84.7648C437.029 84.7648 437.683 84.7648 438.337 84.7648C438.423 84.7648 438.479 84.792 438.536 84.8737C439.162 85.7717 440.016 86.2888 441.125 86.4248C442.86 86.6153 444.567 85.4996 444.937 83.758C445.25 82.3701 444.595 80.9278 443.258 80.1931C441.637 79.2951 439.617 79.7305 438.565 81.2272C438.479 81.3632 438.394 81.3905 438.223 81.3905C437.057 81.3905 435.919 81.3905 434.753 81.3905C434.554 81.3905 434.411 81.4449 434.269 81.5809C431.709 84.0301 429.149 86.4792 426.617 88.9284C426.56 88.9828 426.532 89.01 426.503 89.0644C426.077 88.8195 425.735 88.5746 425.422 88.2481C424.683 87.5133 424.228 86.6425 424.028 85.6629C424 85.4452 423.943 85.2274 423.943 84.9825C423.943 80.3564 423.915 75.7302 423.943 71.104C423.943 69.9067 424.427 68.8726 425.28 67.9746C426.077 67.1037 427.072 66.5867 428.267 66.369C428.551 66.3146 428.864 66.3146 429.177 66.2874C429.177 66.369 429.177 66.4234 429.177 66.4779C429.177 67.6208 429.177 68.7909 429.177 69.9339C429.177 70.0427 429.149 70.0971 429.064 70.1516C428.096 70.7503 427.556 71.5939 427.442 72.6824C427.271 74.0974 428.21 75.5397 429.576 76.084C431.197 76.7099 432.961 76.1928 433.928 74.7777C433.956 74.7233 434.07 74.6689 434.127 74.6689C435.521 74.6689 436.915 74.6689 438.309 74.6689C438.423 74.6689 438.479 74.7233 438.536 74.805C439.333 75.9207 440.442 76.4649 441.836 76.3289C443.059 76.22 443.998 75.6213 444.567 74.5873C445.648 72.6824 444.595 70.3149 442.405 69.7434C440.926 69.3624 439.39 69.9339 438.508 71.1857C438.451 71.2673 438.394 71.2945 438.28 71.2945C436.915 71.2945 435.549 71.2945 434.155 71.2945C434.042 71.2945 433.985 71.2673 433.928 71.1857C433.643 70.7503 433.302 70.4237 432.847 70.1516C432.762 70.0971 432.733 70.0427 432.733 69.9611C432.733 68.7909 432.733 67.6208 432.733 66.4506C432.733 66.3418 432.762 66.2874 432.904 66.2874C436.431 66.2874 439.959 66.2602 443.514 66.2874C444.766 66.2874 445.847 66.7772 446.757 67.5664C447.611 68.3011 448.151 69.2263 448.407 70.2876C448.464 70.587 448.521 70.8863 448.521 71.1857C448.521 75.7302 448.521 80.2747 448.521 84.8465C448.521 86.071 448.038 87.1596 447.184 88.0848C446.388 88.9556 445.364 89.4726 444.169 89.6903C443.884 89.7448 443.6 89.772 443.287 89.772C439.276 89.772 435.236 89.772 431.225 89.772C431.169 89.772 431.112 89.772 431.055 89.772C431.055 89.772 431.055 89.7448 431.055 89.7448Z" fill="white"/>
<path d="M432.734 73.0092C432.762 73.9072 431.937 74.6692 430.97 74.6692C430.031 74.6692 429.235 73.9072 429.235 72.9548C429.263 72.0568 430.003 71.322 431.027 71.322C431.965 71.3492 432.734 72.084 432.734 73.0092Z" fill="white"/>
<path d="M439.788 73.009C439.732 72.1926 440.471 71.3218 441.552 71.349C442.548 71.349 443.287 72.1654 443.259 73.0362C443.259 73.8798 442.519 74.6962 441.495 74.6962C440.5 74.669 439.732 73.8526 439.788 73.009Z" fill="white"/>
<path d="M439.788 83.0772C439.731 82.2063 440.556 81.39 441.552 81.4172C442.462 81.4444 443.287 82.2063 443.259 83.1044C443.259 84.0024 442.462 84.7644 441.495 84.7644C440.528 84.7099 439.788 84.0024 439.788 83.0772Z" fill="white"/>
<path d="M36.4121 87.0229C34.8475 87.0229 33.2545 87.0229 31.6899 87.0229C30.808 87.0229 30.4382 86.6691 30.4382 85.8255C30.4382 82.8049 30.4382 79.7843 30.4382 76.7637C30.4382 75.9201 30.808 75.5663 31.6614 75.5663C34.8191 75.5663 38.0051 75.5663 41.1627 75.5663C42.0161 75.5663 42.3859 75.9201 42.3859 76.7364C42.3859 79.7571 42.3859 82.8049 42.3859 85.8255C42.3859 86.6419 42.0161 86.9956 41.1343 86.9956C39.5697 87.0229 37.9767 87.0229 36.4121 87.0229ZM36.3836 78.2331C35.5587 78.2331 34.7337 78.2331 33.9087 78.2331C33.3683 78.2331 33.1976 78.3692 33.1976 78.8862C33.1976 80.4918 33.1976 82.0973 33.1976 83.7301C33.1976 84.2472 33.3398 84.3832 33.8803 84.3832C35.5587 84.3832 37.237 84.3832 38.8869 84.3832C39.4559 84.3832 39.5981 84.2472 39.5981 83.6757C39.5981 82.0974 39.5981 80.4918 39.5981 78.9135C39.5981 78.3692 39.4559 78.2331 38.8869 78.2331C38.062 78.2059 37.237 78.2059 36.3836 78.2331Z" fill="white"/>
<path d="M36.8379 73.5804C36.8379 73.8525 36.8379 74.1518 36.8379 74.424C36.8379 74.6145 36.781 74.6961 36.5819 74.6961C36.4396 74.6961 36.3258 74.7233 36.1836 74.6961C36.0983 74.6689 35.9845 74.56 35.9845 74.5056C35.956 73.8797 35.956 73.281 35.9845 72.6551C35.9845 72.4102 36.1552 72.2469 36.4112 72.2469C36.6672 72.2469 36.8094 72.4102 36.8379 72.6824C36.8379 72.9817 36.8379 73.281 36.8379 73.5804Z" fill="white"/>
<path d="M28.3327 80.8732C28.6172 80.8732 28.9301 80.8732 29.2146 80.8732C29.4422 80.8732 29.5275 80.9548 29.4991 81.1453C29.4991 81.2541 29.4991 81.363 29.4991 81.4446C29.4991 81.6079 29.4422 81.6895 29.243 81.6895C28.6172 81.6895 27.9914 81.6895 27.3371 81.6895C27.0811 81.6895 26.9104 81.5263 26.9104 81.2814C26.9104 81.0364 27.0811 80.8732 27.3371 80.8732C27.7069 80.8732 28.0198 80.8732 28.3327 80.8732Z" fill="white"/>
<path d="M44.4917 80.8733C44.8046 80.8733 45.1176 80.8733 45.4305 80.8733C45.6865 80.8733 45.8856 81.0093 45.8856 81.2543C45.8856 81.5264 45.7149 81.6624 45.4305 81.6897C44.8046 81.6897 44.1788 81.6897 43.5814 81.6897C43.3823 81.6897 43.297 81.608 43.3254 81.4175C43.3254 81.3359 43.3254 81.227 43.3254 81.1454C43.297 80.9277 43.3823 80.8461 43.6383 80.8461C43.8943 80.9005 44.2073 80.8733 44.4917 80.8733Z" fill="white"/>
<path d="M36.839 89.0375C36.839 89.3368 36.839 89.6362 36.839 89.9355C36.839 90.1804 36.6968 90.3709 36.4123 90.3709C36.1278 90.3709 35.9856 90.2076 35.9856 89.9355C35.9856 89.3368 35.9856 88.7381 35.9856 88.1667C35.9856 88.0034 36.0425 87.8945 36.2416 87.9218C36.3839 87.9218 36.5261 87.8945 36.6399 87.9218C36.7252 87.949 36.8675 88.0578 36.8675 88.1395C36.8675 88.4116 36.839 88.7109 36.839 89.0375Z" fill="white"/>
<path d="M44.4899 79.0229C44.177 79.0229 43.8641 79.0229 43.5512 79.0229C43.2098 79.0229 43.2951 78.778 43.2951 78.6147C43.2951 78.4242 43.2098 78.2065 43.5512 78.2065C44.1485 78.2065 44.7744 78.2065 45.3717 78.2338C45.6562 78.2338 45.8838 78.3698 45.8553 78.6692C45.8553 78.9685 45.6278 79.0501 45.3717 79.0501C45.0873 78.9957 44.7744 78.9957 44.4899 79.0229C44.4899 78.9957 44.4899 78.9957 44.4899 79.0229Z" fill="white"/>
<path d="M28.3608 83.5677C28.6453 83.5677 28.9582 83.5677 29.2427 83.5677C29.584 83.5677 29.5271 83.7855 29.5271 83.9759C29.5271 84.1664 29.6125 84.4113 29.2427 84.4113C28.6453 84.4113 28.0479 84.4113 27.4505 84.3841C27.1661 84.3841 26.9385 84.2753 26.9385 83.9759C26.9385 83.6766 27.1661 83.5677 27.4505 83.5677C27.7634 83.5677 28.0479 83.5677 28.3608 83.5677Z" fill="white"/>
<path d="M33.1975 73.5259C33.1975 73.2538 33.1975 72.9545 33.1975 72.6824C33.1975 72.4374 33.3113 72.2469 33.5958 72.2469C33.8802 72.2469 34.0225 72.4374 34.0509 72.6824C34.0794 73.281 34.0794 73.8797 34.0794 74.4512C34.0794 74.7777 33.8233 74.6961 33.6527 74.6961C33.482 74.6961 33.226 74.7777 33.226 74.4512C33.1975 74.1518 33.1975 73.8525 33.1975 73.5259Z" fill="white"/>
<path d="M34.0506 88.9824C34.0506 89.2818 34.0506 89.5811 34.0506 89.8804C34.0221 90.1526 33.9083 90.3703 33.5954 90.343C33.3109 90.343 33.1971 90.1253 33.1971 89.8804C33.1971 89.309 33.1971 88.7375 33.1687 88.166C33.1687 87.8395 33.3963 87.8939 33.5954 87.8939C33.7945 87.8939 34.0506 87.8395 34.0221 88.166C34.0506 88.4382 34.079 88.7103 34.0506 88.9824C34.0506 88.9824 34.079 88.9824 34.0506 88.9824Z" fill="white"/>
<path d="M39.6256 73.5804C39.6256 73.7981 39.6256 74.043 39.6256 74.2607C39.6541 74.56 39.5972 74.7233 39.1989 74.7233C38.8576 74.7233 38.7153 74.6417 38.7153 74.2879C38.7438 73.7981 38.7153 73.281 38.7438 72.7912C38.7438 72.5191 38.8291 72.2742 39.1705 72.2742C39.5118 72.2742 39.5972 72.5191 39.5972 72.7912C39.6256 73.0361 39.6256 73.3083 39.6256 73.5804Z" fill="white"/>
<path d="M28.3317 78.9957C28.0187 78.9957 27.7058 78.9957 27.3929 78.9957C27.1653 78.9957 26.9662 78.8869 26.9378 78.6419C26.9093 78.3698 27.1084 78.2337 27.3645 78.2065C28.0187 78.1793 28.6446 78.1793 29.2989 78.1793C29.3842 78.1793 29.498 78.3154 29.498 78.397C29.6118 78.9413 29.5264 79.0229 28.9575 79.0229C28.7584 79.0229 28.5308 79.0229 28.3317 78.9957Z" fill="white"/>
<path d="M44.4899 84.3562C44.177 84.3562 43.8641 84.3562 43.5512 84.3562C43.2098 84.3562 43.2951 84.1113 43.2951 83.948C43.2951 83.7575 43.2098 83.5398 43.5512 83.5398C44.177 83.5398 44.8028 83.5398 45.4002 83.567C45.6562 83.567 45.8838 83.7031 45.8554 84.0024C45.8554 84.2745 45.6562 84.3834 45.4002 84.3834C45.1157 84.3562 44.8028 84.3562 44.4899 84.3562Z" fill="white"/>
<path d="M39.5972 89.0377C39.5972 89.3371 39.5972 89.6364 39.5972 89.9357C39.5972 90.1534 39.455 90.3439 39.1989 90.3439C38.9145 90.3711 38.7722 90.1807 38.7438 89.9357C38.7153 89.3099 38.7153 88.7112 38.7153 88.0853C38.7153 87.7587 39.0282 87.8948 39.1989 87.8676C39.3696 87.8404 39.5687 87.8404 39.5687 88.1125C39.6256 88.439 39.6256 88.7384 39.5972 89.0377C39.6256 89.0377 39.6256 89.0377 39.5972 89.0377Z" fill="white"/>
<path d="M504.677 96.8735L585.864 36.951H601.14V26.8006L577.643 26.8822L504.677 80.2465V96.8735Z" stroke="#003650" stroke-width="2.8727" stroke-miterlimit="10"/>
<path d="M585.865 36.9511V26.8008" stroke="#003650" stroke-width="2.8727" stroke-miterlimit="10"/>
<path d="M577.643 26.8815L585.239 36.9502" stroke="#003650" stroke-width="2.8727" stroke-miterlimit="10"/>
<path d="M562.624 37.8763L570.589 48.4077" stroke="#003650" stroke-width="2.8727" stroke-miterlimit="10"/>
<path d="M570.332 32.46L570.219 47.9441" stroke="#003650" stroke-width="2.8727" stroke-miterlimit="10"/>
<path d="M570.332 32.6246L585.238 36.9514" stroke="#003650" stroke-width="2.8727" stroke-miterlimit="10"/>
<path d="M547.575 48.8705L555.512 59.3746" stroke="#003650" stroke-width="2.8727" stroke-miterlimit="10"/>
<path d="M555.284 43.4269L555.17 58.911" stroke="#003650" stroke-width="2.8727" stroke-miterlimit="10"/>
<path d="M555.285 43.5914L570.191 47.9183" stroke="#003650" stroke-width="2.8727" stroke-miterlimit="10"/>
<path d="M532.556 59.8645L540.435 70.3142" stroke="#003650" stroke-width="2.8727" stroke-miterlimit="10"/>
<path d="M540.207 54.3674L540.093 69.8515" stroke="#003650" stroke-width="2.8727" stroke-miterlimit="10"/>
<path d="M540.208 54.5304L555.114 58.8572" stroke="#003650" stroke-width="2.8727" stroke-miterlimit="10"/>
<path d="M517.507 70.8578L525.472 81.4164" stroke="#003650" stroke-width="2.8727" stroke-miterlimit="10"/>
<path d="M525.244 65.4694L525.13 80.9534" stroke="#003650" stroke-width="2.8727" stroke-miterlimit="10"/>
<path d="M525.244 65.6332L540.151 69.96" stroke="#003650" stroke-width="2.8727" stroke-miterlimit="10"/>
<path d="M510.282 76.7903L510.168 92.2471" stroke="#003650" stroke-width="2.8727" stroke-miterlimit="10"/>
<path d="M510.281 76.9269L525.188 81.2809" stroke="#003650" stroke-width="2.8727" stroke-miterlimit="10"/>
<path d="M593.489 27.2641L586.321 36.5981" stroke="#003650" stroke-width="2.8727" stroke-miterlimit="10"/>
<path d="M593.403 27.3448L600.686 36.5427" stroke="#003650" stroke-width="2.8727" stroke-miterlimit="10"/>
<path d="M504.677 85.0905L510.225 92.4379" stroke="#003650" stroke-width="2.8727" stroke-miterlimit="10"/>
<path d="M359.086 47.2373H310.897V136.577H359.086V47.2373Z" fill="#003650"/>
<path d="M315.106 85.3076H276.333V136.576H315.106V85.3076Z" fill="#003650"/>
<path d="M424.059 60.5178H365.003V136.578H424.059V60.5178Z" fill="#003650"/>
<path d="M429.293 48.7336H408.868V136.576H429.293V48.7336Z" fill="#003650"/>
<path d="M449.206 85.9611H425.624V136.577H449.206V85.9611Z" fill="#003650"/>
<path d="M504.193 45.8777H447.1V136.578H504.193V45.8777Z" fill="#003650"/>
<path d="M546.124 87.9758H504.222V136.578H546.124V87.9758Z" fill="#003650"/>
<path d="M572.295 102.507H544.018V136.578H572.295V102.507Z" fill="#003650"/>
<path d="M630.185 36.6523H594.086V136.578H630.185V36.6523Z" fill="#003650"/>
<path d="M681.702 58.4215H618.265V136.604H681.702V58.4215Z" fill="#003650"/>
<path d="M276.903 26.8829H262.31V30.9376H276.903V26.8829Z" fill="#003650"/>
<path d="M268.795 20.6772C268.682 19.9697 268.17 18.5547 265.808 19.8064C265.154 20.1874 264.158 19.4255 263.846 18.6907C263.447 19.4527 262.281 20.1602 261.854 19.7248C260.034 21.4664 257.843 18.9901 258.583 17.4117C257.502 18.3914 256.364 17.1396 257.047 16.813C256.563 16.6225 255.255 15.7789 255.824 14.7449C257.075 12.8128 259.55 14.5272 259.55 14.5272C261.172 12.8128 261.94 14.4999 261.94 14.4999C264.87 11.9964 265.268 15.8334 265.268 15.8334C266.747 14.8809 267.345 17.7655 267.345 17.7655C269.194 18.4186 268.938 19.9153 268.795 20.6772Z" fill="#003650"/>
<path d="M489.458 21.4411C489.344 20.7608 488.889 19.4546 486.641 20.6247C486.016 20.9785 485.105 20.2709 484.821 19.5906C484.451 20.2982 483.342 20.9785 482.972 20.5703C481.265 22.203 479.217 19.89 479.928 18.3933C478.932 19.3185 477.851 18.1483 478.506 17.8218C478.05 17.6585 476.827 16.8421 477.368 15.8897C478.534 14.0664 480.867 15.672 480.867 15.672C482.374 14.0664 483.114 15.6448 483.114 15.6448C485.845 13.2773 486.243 16.8966 486.243 16.8966C487.637 15.9985 488.177 18.6926 488.177 18.6926C489.856 19.3185 489.6 20.7063 489.458 21.4411Z" fill="#5C89A0"/>
<path d="M577.357 63.755C577.272 63.1292 576.817 61.8774 574.712 62.9931C574.114 63.3196 573.261 62.6665 572.977 62.0134C572.635 62.6938 571.583 63.3196 571.213 62.9387C569.62 64.4898 567.657 62.2856 568.311 60.8705C567.373 61.7413 566.348 60.6256 566.946 60.3535C566.519 60.1902 565.353 59.4282 565.865 58.5302C566.974 56.8158 569.165 58.3397 569.165 58.3397C570.587 56.8158 571.27 58.3125 571.27 58.3125C573.858 56.081 574.228 59.5099 574.228 59.5099C575.537 58.6663 576.077 61.2243 576.077 61.2243C577.699 61.7413 577.471 63.0747 577.357 63.755Z" fill="#5C89A0"/>
<path d="M584.499 62.7488C584.442 62.3678 584.158 61.6059 582.878 62.2862C582.508 62.4767 581.996 62.0957 581.825 61.6875C581.626 62.0957 580.972 62.4767 580.744 62.259C579.777 63.2114 578.582 61.878 578.98 61.0072C578.412 61.5242 577.786 60.8711 578.156 60.6806C577.899 60.5718 577.188 60.1092 577.501 59.5649C578.184 58.5308 579.521 59.4561 579.521 59.4561C580.403 58.5308 580.801 59.4561 580.801 59.4561C582.394 58.0954 582.593 60.1908 582.593 60.1908C583.39 59.6738 583.703 61.2249 583.703 61.2249C584.698 61.5515 584.556 62.3406 584.499 62.7488Z" fill="#5C89A0"/>
<path d="M479.786 13.6851C479.729 13.3313 479.416 12.6238 478.165 13.1953C477.823 13.3858 477.283 12.9776 477.112 12.6238C476.913 13.0048 476.287 13.3313 476.088 13.1136C475.149 13.9572 473.926 12.6782 474.296 11.9163C473.755 12.3789 473.101 11.753 473.471 11.5897C473.215 11.4809 472.504 11.0455 472.788 10.5556C473.414 9.60319 474.779 10.5012 474.779 10.5012C475.604 9.68482 476.06 10.5284 476.06 10.5284C477.567 9.33106 477.852 11.236 477.852 11.236C478.62 10.7733 478.99 12.2156 478.99 12.2156C479.985 12.5694 479.843 13.3041 479.786 13.6851Z" fill="#5C89A0"/>
<path d="M257.218 136.496H234.631C236.878 89.7444 239.012 48.0544 242.681 14.1201L250.22 14.0929C253.548 47.4558 255.539 90.8601 257.218 136.496Z" fill="#003650"/>
<path d="M253.604 16.8418H239.011V20.8965H253.604V16.8418Z" fill="#003650"/>
<path d="M245.583 11.7792C245.412 10.5818 244.559 8.18709 240.548 10.3097C239.438 10.9356 237.76 9.6838 237.248 8.45922C236.594 9.73822 234.602 10.9628 233.92 10.2281C230.876 13.167 227.149 9.00348 228.43 6.30941C226.637 7.96939 224.675 5.87401 225.841 5.30254C225.016 5.0032 222.825 3.56092 223.764 1.84652C225.869 -1.41901 230.051 1.46554 230.051 1.46554C232.782 -1.3918 234.062 1.43833 234.062 1.43833C239.012 -2.80687 239.694 3.69699 239.694 3.69699C242.198 2.06422 243.193 6.90809 243.193 6.90809C246.266 7.96939 245.782 10.473 245.583 11.7792Z" fill="#003650"/>
<path d="M258.412 136.577C260.488 93.8531 262.565 55.6463 265.979 24.134L273.517 24.1068C276.589 55.0205 278.524 94.5334 280.145 136.468L258.412 136.577Z" fill="#003650"/>
<path d="M348.646 54.6389H320.683V60.5169H348.646V54.6389Z" fill="white"/>
<path d="M693.194 136.386H646.655V98.5878L660.679 85.1174H693.194V136.386Z" fill="#003650"/>
<path d="M523.935 79.05H514.661V117.855H523.935V79.05Z" fill="#003650"/>
<path d="M540.947 79.05H531.673V117.855H540.947V79.05Z" fill="#003650"/>
<path d="M525.784 79.05H512.357V81.6625H525.784V79.05Z" fill="#003650"/>
<path d="M543.052 79.05H529.625V81.6625H543.052V79.05Z" fill="#003650"/>
<path d="M246.635 106.425H222V136.577H246.635V106.425Z" fill="#003650"/>
<path d="M458.934 101.908H360.052V136.604H458.934V101.908Z" fill="#5C89A0"/>
<path d="M499.612 28.8688H455.406V74.6679H499.612V28.8688Z" fill="#5C89A0"/>
<path d="M508.062 66.3951H441.354V136.604H508.062V66.3951Z" fill="#5C89A0"/>
<path d="M555.028 115.786H504.222V136.577H555.028V115.786Z" fill="#5C89A0"/>
<path d="M374.219 68.9268H348.617V136.578H374.219V68.9268Z" fill="#5C89A0"/>
<path d="M272.038 66.2864H244.189V136.577H272.038V66.2864Z" fill="#5C89A0"/>
<path d="M333.967 91.1593H263.618V136.577H333.967V91.1593Z" fill="#5C89A0"/>
<path d="M392.483 97.5H383.892V136.714H392.483V97.5Z" fill="#5C89A0"/>
<path d="M415.922 97.5H407.331V136.714H415.922V97.5Z" fill="#5C89A0"/>
<path d="M307.967 82.5044H290.017V96.138H307.967V82.5044Z" fill="#5C89A0"/>
<path d="M490.056 23.1002H486.016V30.23H490.056V23.1002Z" fill="#5C89A0"/>
<path d="M496.313 23.1002H492.274V30.23H496.313V23.1002Z" fill="#5C89A0"/>
<path d="M633.797 67.9193H570.958V136.604H633.797V67.9193Z" fill="#5C89A0"/>
<path d="M693.193 97.5H607.54V136.578H693.193V97.5Z" fill="#5C89A0"/>
<path d="M579.463 64.0281H575.424V71.1578H579.463V64.0281Z" fill="#5C89A0"/>
<path d="M586.831 64.0281H582.792V71.1578H586.831V64.0281Z" fill="#5C89A0"/>
<path d="M309.103 81.2812H288.821V82.4786H309.103V81.2812Z" fill="#5C89A0"/>
<path d="M336.357 91.24H271.128V93.6075H336.357V91.24Z" fill="#5C89A0"/>
<path d="M456.346 81.662H451.141V93.0369H456.346V81.662Z" fill="white"/>
<path d="M462.974 81.6614H457.768V93.0363H462.974V81.6614Z" fill="white"/>
<path d="M472.275 81.662H467.069V93.0369H472.275V81.662Z" fill="white"/>
<path d="M478.904 81.6614H473.698V93.0363H478.904V81.6614Z" fill="white"/>
<path d="M488.206 81.662H483V93.0369H488.206V81.662Z" fill="white"/>
<path d="M494.836 81.6614H489.63V93.0363H494.836V81.6614Z" fill="white"/>
<path d="M456.346 97.7177H451.141V109.093H456.346V97.7177Z" fill="white"/>
<path d="M462.974 97.7172H457.768V109.092H462.974V97.7172Z" fill="white"/>
<path d="M472.105 97.7177H466.899V109.093H472.105V97.7177Z" fill="white"/>
<path d="M478.732 97.7172H473.527V109.092H478.732V97.7172Z" fill="white"/>
<path d="M488.206 97.7177H483V109.093H488.206V97.7177Z" fill="white"/>
<path d="M494.836 97.7172H489.63V109.092H494.836V97.7172Z" fill="white"/>
<path d="M456.431 113.774H451.225V125.149H456.431V113.774Z" fill="white"/>
<path d="M463.059 113.774H457.854V125.149H463.059V113.774Z" fill="white"/>
<path d="M472.105 113.774H466.899V125.149H472.105V113.774Z" fill="white"/>
<path d="M478.732 113.774H473.527V125.149H478.732V113.774Z" fill="white"/>
<path d="M488.206 113.774H483V125.149H488.206V113.774Z" fill="white"/>
<path d="M494.836 113.774H489.63V125.149H494.836V113.774Z" fill="white"/>
<path d="M360.025 77.1974H355.047V83.0754H360.025V77.1974Z" fill="white"/>
<path d="M367.506 77.197H362.528V83.075H367.506V77.197Z" fill="white"/>
<path d="M360.024 86.5602H355.046V92.4381H360.024V86.5602Z" fill="white"/>
<path d="M367.507 86.561H362.528V92.439H367.507V86.561Z" fill="white"/>
<path d="M360.024 95.7327H355.046V101.611H360.024V95.7327Z" fill="white"/>
<path d="M367.507 95.7321H362.528V101.61H367.507V95.7321Z" fill="white"/>
<path d="M360.024 104.521H355.046V110.399H360.024V104.521Z" fill="white"/>
<path d="M367.507 104.521H362.528V110.399H367.507V104.521Z" fill="white"/>
<path d="M360.167 113.174H355.189V119.052H360.167V113.174Z" fill="white"/>
<path d="M367.648 113.173H362.67V119.051H367.648V113.173Z" fill="white"/>
<path d="M360.167 121.827H355.189V127.705H360.167V121.827Z" fill="white"/>
<path d="M367.647 121.828H362.669V127.706H367.647V121.828Z" fill="white"/>
<path d="M491.449 34.2021H463.372V37.1956H491.449V34.2021Z" fill="white"/>
<path d="M491.449 40.7065H463.372V43.7H491.449V40.7065Z" fill="white"/>
<path d="M491.449 47.2373H463.372V50.2307H491.449V47.2373Z" fill="white"/>
<path d="M491.449 53.8512H463.372V56.8446H491.449V53.8512Z" fill="white"/>
<path d="M491.477 60.5178H463.4V63.5112H491.477V60.5178Z" fill="white"/>
<path d="M398.456 106.616H393.023V109.501H398.456V106.616Z" fill="white"/>
<path d="M405.596 106.616H400.163V109.501H405.596V106.616Z" fill="white"/>
<path d="M398.456 111.051H393.023V113.936H398.456V111.051Z" fill="white"/>
<path d="M405.596 111.051H400.163V113.936H405.596V111.051Z" fill="white"/>
<path d="M398.456 115.46H393.022V118.344H398.456V115.46Z" fill="white"/>
<path d="M405.596 115.405H400.163V118.29H405.596V115.405Z" fill="white"/>
<path d="M398.456 119.76H393.023V122.645H398.456V119.76Z" fill="white"/>
<path d="M405.596 119.76H400.163V122.645H405.596V119.76Z" fill="white"/>
<path d="M423.005 111.161H417.572V114.045H423.005V111.161Z" fill="white"/>
<path d="M430.146 111.161H424.712V114.045H430.146V111.161Z" fill="white"/>
<path d="M437.031 111.161H431.598V114.045H437.031V111.161Z" fill="white"/>
<path d="M648.731 105.719H639.372V108.712H648.731V105.719Z" fill="white"/>
<path d="M661.048 105.718H651.688V108.711H661.048V105.718Z" fill="white"/>
<path d="M648.731 111.977H639.372V114.971H648.731V111.977Z" fill="white"/>
<path d="M661.048 111.977H651.688V114.97H661.048V111.977Z" fill="white"/>
<path d="M673.282 105.636H663.923V108.629H673.282V105.636Z" fill="white"/>
<path d="M685.598 105.636H676.239V108.63H685.598V105.636Z" fill="white"/>
<path d="M673.281 111.867H663.922V114.861H673.281V111.867Z" fill="white"/>
<path d="M685.598 111.867H676.239V114.86H685.598V111.867Z" fill="white"/>
<path d="M589.505 81.662H582.307V88.5468H589.505V81.662Z" fill="white"/>
<path d="M600.94 81.6614H593.743V88.5462H600.94V81.6614Z" fill="white"/>
<path d="M612.292 81.6614H605.094V88.5462H612.292V81.6614Z" fill="white"/>
<path d="M623.641 81.6614H616.444V88.5462H623.641V81.6614Z" fill="white"/>
<path d="M589.505 98.4515H582.307V105.336H589.505V98.4515Z" fill="white"/>
<path d="M600.94 98.4512H593.743V105.336H600.94V98.4512Z" fill="white"/>
<path d="M612.292 98.4512H605.094V105.336H612.292V98.4512Z" fill="white"/>
<path d="M623.641 98.4512H616.444V105.336H623.641V98.4512Z" fill="white"/>
<path d="M589.505 115.542H582.307V122.426H589.505V115.542Z" fill="white"/>
<path d="M600.94 115.541H593.743V122.426H600.94V115.541Z" fill="white"/>
<path d="M612.292 115.541H605.094V122.426H612.292V115.541Z" fill="white"/>
<path d="M623.641 115.541H616.444V122.426H623.641V115.541Z" fill="white"/>
<path d="M298.152 99.6769H294.141V128.278H298.152V99.6769Z" fill="white"/>
<path d="M275.85 99.6218H272.437V102.887H275.85V99.6218Z" fill="white"/>
<path d="M282.221 99.6227H278.807V102.888H282.221V99.6227Z" fill="white"/>
<path d="M288.679 99.6227H285.266V102.888H288.679V99.6227Z" fill="white"/>
<path d="M275.85 109.773H272.437V113.039H275.85V109.773Z" fill="white"/>
<path d="M282.221 109.774H278.807V113.039H282.221V109.774Z" fill="white"/>
<path d="M288.679 109.774H285.266V113.039H288.679V109.774Z" fill="white"/>
<path d="M275.85 119.923H272.437V123.188H275.85V119.923Z" fill="white"/>
<path d="M282.221 119.922H278.807V123.188H282.221V119.922Z" fill="white"/>
<path d="M288.679 119.922H285.266V123.188H288.679V119.922Z" fill="white"/>
<path d="M304.495 99.5682H300.484V128.169H304.495V99.5682Z" fill="white"/>
<path d="M313.258 99.5687H309.844V102.834H313.258V99.5687Z" fill="white"/>
<path d="M319.658 99.5686H316.244V102.834H319.658V99.5686Z" fill="white"/>
<path d="M326.087 99.5686H322.674V102.834H326.087V99.5686Z" fill="white"/>
<path d="M313.257 109.718H309.844V112.984H313.257V109.718Z" fill="white"/>
<path d="M319.658 109.718H316.244V112.983H319.658V109.718Z" fill="white"/>
<path d="M326.087 109.718H322.674V112.983H326.087V109.718Z" fill="white"/>
<path d="M313.258 119.868H309.844V123.134H313.258V119.868Z" fill="white"/>
<path d="M319.658 119.869H316.244V123.134H319.658V119.869Z" fill="white"/>
<path d="M326.087 119.869H322.674V123.134H326.087V119.869Z" fill="white"/>
<path d="M303.955 84.4376H293.601V90.0979H303.955V84.4376Z" fill="white"/>
<path d="M653.055 89.7448C653.254 89.5543 653.481 89.3366 653.681 89.1461C655.16 87.731 656.668 86.2887 658.147 84.8737C658.204 84.8193 658.289 84.792 658.374 84.7648C659.029 84.7648 659.683 84.7648 660.337 84.7648C660.423 84.7648 660.479 84.792 660.536 84.8737C661.162 85.7717 662.016 86.2888 663.125 86.4248C664.86 86.6153 666.567 85.4996 666.937 83.758C667.25 82.3701 666.595 80.9278 665.258 80.1931C663.637 79.2951 661.617 79.7305 660.565 81.2272C660.479 81.3632 660.394 81.3905 660.223 81.3905C659.057 81.3905 657.919 81.3905 656.753 81.3905C656.554 81.3905 656.411 81.4449 656.269 81.5809C653.709 84.0301 651.149 86.4792 648.617 88.9284C648.56 88.9828 648.532 89.01 648.503 89.0644C648.077 88.8195 647.735 88.5746 647.422 88.2481C646.683 87.5133 646.228 86.6425 646.028 85.6629C646 85.4452 645.943 85.2274 645.943 84.9825C645.943 80.3564 645.915 75.7302 645.943 71.104C645.943 69.9067 646.427 68.8726 647.28 67.9746C648.077 67.1037 649.072 66.5867 650.267 66.369C650.551 66.3146 650.864 66.3146 651.177 66.2874C651.177 66.369 651.177 66.4234 651.177 66.4779C651.177 67.6208 651.177 68.7909 651.177 69.9339C651.177 70.0427 651.149 70.0971 651.064 70.1516C650.096 70.7503 649.556 71.5939 649.442 72.6824C649.271 74.0974 650.21 75.5397 651.576 76.084C653.197 76.7099 654.961 76.1928 655.928 74.7777C655.956 74.7233 656.07 74.6689 656.127 74.6689C657.521 74.6689 658.915 74.6689 660.309 74.6689C660.423 74.6689 660.479 74.7233 660.536 74.805C661.333 75.9207 662.442 76.4649 663.836 76.3289C665.059 76.22 665.998 75.6213 666.567 74.5873C667.648 72.6824 666.595 70.3149 664.405 69.7434C662.926 69.3624 661.39 69.9339 660.508 71.1857C660.451 71.2673 660.394 71.2945 660.28 71.2945C658.915 71.2945 657.549 71.2945 656.155 71.2945C656.042 71.2945 655.985 71.2673 655.928 71.1857C655.643 70.7503 655.302 70.4237 654.847 70.1516C654.762 70.0971 654.733 70.0427 654.733 69.9611C654.733 68.7909 654.733 67.6208 654.733 66.4506C654.733 66.3418 654.762 66.2874 654.904 66.2874C658.431 66.2874 661.959 66.2602 665.514 66.2874C666.766 66.2874 667.847 66.7772 668.757 67.5664C669.611 68.3011 670.151 69.2263 670.407 70.2876C670.464 70.587 670.521 70.8863 670.521 71.1857C670.521 75.7302 670.521 80.2747 670.521 84.8465C670.521 86.071 670.038 87.1596 669.184 88.0848C668.388 88.9556 667.364 89.4726 666.169 89.6903C665.884 89.7448 665.6 89.772 665.287 89.772C661.276 89.772 657.236 89.772 653.225 89.772C653.169 89.772 653.112 89.772 653.055 89.772C653.055 89.772 653.055 89.7448 653.055 89.7448Z" fill="white"/>
<path d="M654.734 73.0092C654.762 73.9072 653.938 74.6692 652.97 74.6692C652.032 74.6692 651.235 73.9072 651.235 72.9548C651.264 72.0568 652.003 71.322 653.027 71.322C653.966 71.3492 654.734 72.084 654.734 73.0092Z" fill="white"/>
<path d="M661.789 73.009C661.732 72.1926 662.472 71.3218 663.553 71.349C664.548 71.349 665.288 72.1654 665.259 73.0362C665.259 73.8798 664.52 74.6962 663.496 74.6962C662.5 74.669 661.732 73.8526 661.789 73.009Z" fill="white"/>
<path d="M661.789 83.0772C661.732 82.2063 662.557 81.39 663.552 81.4172C664.463 81.4444 665.288 82.2063 665.259 83.1044C665.259 84.0024 664.463 84.7644 663.495 84.7644C662.528 84.7099 661.789 84.0024 661.789 83.0772Z" fill="white"/>
<path d="M258.413 87.0229C256.848 87.0229 255.255 87.0229 253.69 87.0229C252.809 87.0229 252.439 86.6691 252.439 85.8255C252.439 82.8049 252.439 79.7843 252.439 76.7637C252.439 75.9201 252.809 75.5663 253.662 75.5663C256.82 75.5663 260.006 75.5663 263.163 75.5663C264.017 75.5663 264.386 75.9201 264.386 76.7364C264.386 79.7571 264.386 82.8049 264.386 85.8255C264.386 86.6419 264.017 86.9956 263.135 86.9956C261.57 87.0229 259.977 87.0229 258.413 87.0229ZM258.384 78.2331C257.559 78.2331 256.734 78.2331 255.909 78.2331C255.369 78.2331 255.198 78.3692 255.198 78.8862C255.198 80.4918 255.198 82.0973 255.198 83.7301C255.198 84.2472 255.34 84.3832 255.881 84.3832C257.559 84.3832 259.238 84.3832 260.887 84.3832C261.456 84.3832 261.599 84.2472 261.599 83.6757C261.599 82.0974 261.599 80.4918 261.599 78.9135C261.599 78.3692 261.456 78.2331 260.887 78.2331C260.062 78.2059 259.238 78.2059 258.384 78.2331Z" fill="white"/>
<path d="M258.838 73.5804C258.838 73.8525 258.838 74.1518 258.838 74.424C258.838 74.6145 258.781 74.6961 258.582 74.6961C258.44 74.6961 258.326 74.7233 258.184 74.6961C258.099 74.6689 257.985 74.56 257.985 74.5056C257.957 73.8797 257.957 73.281 257.985 72.6551C257.985 72.4102 258.156 72.2469 258.412 72.2469C258.668 72.2469 258.81 72.4102 258.838 72.6824C258.838 72.9817 258.838 73.281 258.838 73.5804Z" fill="white"/>
<path d="M250.333 80.8732C250.618 80.8732 250.931 80.8732 251.215 80.8732C251.443 80.8732 251.528 80.9548 251.5 81.1453C251.5 81.2541 251.5 81.363 251.5 81.4446C251.5 81.6079 251.443 81.6895 251.244 81.6895C250.618 81.6895 249.992 81.6895 249.338 81.6895C249.082 81.6895 248.911 81.5263 248.911 81.2814C248.911 81.0364 249.082 80.8732 249.338 80.8732C249.707 80.8732 250.02 80.8732 250.333 80.8732Z" fill="white"/>
<path d="M266.492 80.8733C266.805 80.8733 267.118 80.8733 267.431 80.8733C267.687 80.8733 267.886 81.0093 267.886 81.2543C267.886 81.5264 267.715 81.6624 267.431 81.6897C266.805 81.6897 266.179 81.6897 265.582 81.6897C265.383 81.6897 265.297 81.608 265.326 81.4175C265.326 81.3359 265.326 81.227 265.326 81.1454C265.297 80.9277 265.383 80.8461 265.639 80.8461C265.895 80.9005 266.208 80.8733 266.492 80.8733Z" fill="white"/>
<path d="M258.839 89.0375C258.839 89.3368 258.839 89.6362 258.839 89.9355C258.839 90.1804 258.697 90.3709 258.413 90.3709C258.128 90.3709 257.986 90.2076 257.986 89.9355C257.986 89.3368 257.986 88.7381 257.986 88.1667C257.986 88.0034 258.043 87.8945 258.242 87.9218C258.384 87.9218 258.527 87.8945 258.64 87.9218C258.726 87.949 258.868 88.0578 258.868 88.1395C258.868 88.4116 258.839 88.7109 258.839 89.0375Z" fill="white"/>
<path d="M266.49 79.0229C266.177 79.0229 265.865 79.0229 265.552 79.0229C265.21 79.0229 265.296 78.778 265.296 78.6147C265.296 78.4242 265.21 78.2065 265.552 78.2065C266.149 78.2065 266.775 78.2065 267.372 78.2338C267.657 78.2338 267.884 78.3698 267.856 78.6692C267.856 78.9685 267.628 79.0501 267.372 79.0501C267.088 78.9957 266.775 78.9957 266.49 79.0229C266.49 78.9957 266.49 78.9957 266.49 79.0229Z" fill="white"/>
<path d="M250.361 83.5677C250.646 83.5677 250.959 83.5677 251.243 83.5677C251.585 83.5677 251.528 83.7855 251.528 83.9759C251.528 84.1664 251.613 84.4113 251.243 84.4113C250.646 84.4113 250.048 84.4113 249.451 84.3841C249.167 84.3841 248.939 84.2753 248.939 83.9759C248.939 83.6766 249.167 83.5677 249.451 83.5677C249.764 83.5677 250.048 83.5677 250.361 83.5677Z" fill="white"/>
<path d="M255.198 73.5259C255.198 73.2538 255.198 72.9545 255.198 72.6824C255.198 72.4374 255.312 72.2469 255.596 72.2469C255.881 72.2469 256.023 72.4374 256.051 72.6824C256.08 73.281 256.08 73.8797 256.08 74.4512C256.08 74.7777 255.824 74.6961 255.653 74.6961C255.482 74.6961 255.226 74.7777 255.226 74.4512C255.198 74.1518 255.198 73.8525 255.198 73.5259Z" fill="white"/>
<path d="M256.051 88.9824C256.051 89.2818 256.051 89.5811 256.051 89.8804C256.023 90.1526 255.909 90.3703 255.596 90.343C255.311 90.343 255.198 90.1253 255.198 89.8804C255.198 89.309 255.198 88.7375 255.169 88.166C255.169 87.8395 255.397 87.8939 255.596 87.8939C255.795 87.8939 256.051 87.8395 256.023 88.166C256.051 88.4382 256.079 88.7103 256.051 88.9824C256.051 88.9824 256.079 88.9824 256.051 88.9824Z" fill="white"/>
<path d="M261.626 73.5804C261.626 73.7981 261.626 74.043 261.626 74.2607C261.655 74.56 261.598 74.7233 261.199 74.7233C260.858 74.7233 260.716 74.6417 260.716 74.2879C260.744 73.7981 260.716 73.281 260.744 72.7912C260.744 72.5191 260.83 72.2742 261.171 72.2742C261.512 72.2742 261.598 72.5191 261.598 72.7912C261.626 73.0361 261.626 73.3083 261.626 73.5804Z" fill="white"/>
<path d="M250.332 78.9957C250.019 78.9957 249.706 78.9957 249.393 78.9957C249.166 78.9957 248.967 78.8869 248.938 78.6419C248.91 78.3698 249.109 78.2337 249.365 78.2065C250.019 78.1793 250.645 78.1793 251.299 78.1793C251.385 78.1793 251.498 78.3154 251.498 78.397C251.612 78.9413 251.527 79.0229 250.958 79.0229C250.759 79.0229 250.531 79.0229 250.332 78.9957Z" fill="white"/>
<path d="M266.49 84.3562C266.177 84.3562 265.865 84.3562 265.552 84.3562C265.21 84.3562 265.296 84.1113 265.296 83.948C265.296 83.7575 265.21 83.5398 265.552 83.5398C266.177 83.5398 266.803 83.5398 267.401 83.567C267.657 83.567 267.884 83.7031 267.856 84.0024C267.856 84.2745 267.657 84.3834 267.401 84.3834C267.116 84.3562 266.803 84.3562 266.49 84.3562Z" fill="white"/>
<path d="M261.598 89.0377C261.598 89.3371 261.598 89.6364 261.598 89.9357C261.598 90.1534 261.455 90.3439 261.199 90.3439C260.915 90.3711 260.773 90.1807 260.744 89.9357C260.716 89.3099 260.716 88.7112 260.716 88.0853C260.716 87.7587 261.029 87.8948 261.199 87.8676C261.37 87.8404 261.569 87.8404 261.569 88.1125C261.626 88.439 261.626 88.7384 261.598 89.0377C261.626 89.0377 261.626 89.0377 261.598 89.0377Z" fill="white"/>
</svg>
