<svg xmlns="http://www.w3.org/2000/svg" viewBox="0 0 2645.24 509.09"><defs><style>.cls-1{fill:#003650;}.cls-2{fill:none;stroke:#003650;stroke-miterlimit:10;stroke-width:2.87px;}.cls-3{fill:#5c89a0;}.cls-4{fill:#fff;}</style></defs><title>Long Factory Skyline</title><g id="Layer_1" data-name="Layer 1"><rect class="cls-1" x="69.84" y="338.2" width="59.04" height="172.07"/><rect class="cls-1" x="188.76" y="158.55" width="131.53" height="235.3"/><rect class="cls-1" x="120.49" y="276.2" width="106.84" height="235.3"/><rect class="cls-1" x="283.59" y="302.97" width="147.32" height="157.43"/><rect class="cls-1" x="320.29" y="270.14" width="32.62" height="142.58"/><rect class="cls-1" x="380.18" y="270.14" width="32.62" height="142.58"/><rect class="cls-1" x="312.23" y="270.14" width="47.18" height="9.65"/><rect class="cls-1" x="372.9" y="270.14" width="47.18" height="9.65"/><rect class="cls-1" x="527.4" y="142.86" width="126.87" height="367.18"/><polygon class="cls-2" points="1775.66 363.15 2061.08 143 2114.76 142.93 2114.85 105.66 2032.16 105.98 1775.66 302.1 1775.66 363.15"/><line class="cls-2" x1="2061.08" y1="143" x2="2061.08" y2="105.66"/><line class="cls-2" x1="2032.16" y1="105.98" x2="2058.92" y2="143"/><line class="cls-2" x1="1979.38" y1="146.33" x2="2007.37" y2="185.05"/><line class="cls-2" x1="2006.51" y1="126.48" x2="2006.13" y2="183.33"/><line class="cls-2" x1="2006.51" y1="127.04" x2="2058.92" y2="143"/><line class="cls-2" x1="1926.52" y1="186.75" x2="1954.43" y2="225.36"/><line class="cls-2" x1="1953.57" y1="166.79" x2="1953.19" y2="223.65"/><line class="cls-2" x1="1953.57" y1="167.35" x2="2005.98" y2="183.31"/><line class="cls-2" x1="1873.69" y1="227.14" x2="1901.44" y2="265.53"/><line class="cls-2" x1="1900.58" y1="206.96" x2="1900.2" y2="263.82"/><line class="cls-2" x1="1900.58" y1="207.52" x2="1952.99" y2="223.48"/><line class="cls-2" x1="1820.81" y1="267.57" x2="1848.84" y2="306.34"/><line class="cls-2" x1="1847.98" y1="247.77" x2="1847.6" y2="304.63"/><line class="cls-2" x1="1847.98" y1="248.33" x2="1900.39" y2="264.29"/><line class="cls-2" x1="1795.38" y1="289.33" x2="1795" y2="346.19"/><line class="cls-2" x1="1795.38" y1="289.89" x2="1847.79" y2="305.85"/><line class="cls-2" x1="2087.86" y1="107.35" x2="2062.73" y2="141.62"/><line class="cls-2" x1="2087.61" y1="107.69" x2="2113.21" y2="141.42"/><line class="cls-2" x1="1775.66" y1="319.85" x2="1795.19" y2="346.87"/><rect class="cls-1" x="1094.54" y="180.77" width="169.42" height="328.32"/><rect class="cls-1" x="973" y="320.69" width="136.27" height="188.4"/><rect class="cls-1" x="1284.73" y="229.59" width="207.57" height="279.5"/><rect class="cls-1" x="1438.9" y="186.26" width="71.82" height="322.83"/><rect class="cls-1" x="1497.82" y="323.1" width="82.87" height="185.99"/><rect class="cls-1" x="1573.33" y="175.79" width="200.72" height="333.31"/><rect class="cls-1" x="1774.05" y="330.47" width="147.32" height="178.62"/><rect class="cls-1" x="1914" y="383.87" width="99.44" height="125.22"/><rect class="cls-1" x="2089.97" y="141.91" width="126.87" height="367.18"/><rect class="cls-1" x="2175.01" y="221.82" width="222.99" height="287.27"/><rect class="cls-1" x="923.67" y="105.92" width="51.3" height="14.89"/><path class="cls-1" d="M946.52,83.19c-.38-2.63-2.16-7.81-10.54-3.18-2.34,1.39-5.79-1.36-6.87-4.07-1.38,2.8-5.54,5.44-7,3.84-6.36,6.44-14.12-2.68-11.48-8.55-3.75,3.6-7.84-1-5.38-2.2-1.74-.67-6.28-3.82-4.31-7.57,4.38-7.13,13.12-.81,13.12-.81,5.67-6.26,8.39-.07,8.39-.07,10.31-9.25,11.74,4.92,11.74,4.92,5.21-3.5,7.32,7.07,7.32,7.07C947.94,74.91,947,80.35,946.52,83.19Z"/><path class="cls-3" d="M1722.25,85.95c-.35-2.46-2-7.31-9.86-3-2.19,1.3-5.42-1.27-6.43-3.8-1.29,2.62-5.19,5.09-6.52,3.59-6,6-13.21-2.51-10.74-8-3.51,3.37-7.33-.91-5-2.06-1.62-.63-5.88-3.58-4-7.08,4.1-6.67,12.28-.76,12.28-.76,5.31-5.86,7.85-.06,7.85-.06,9.65-8.66,11,4.6,11,4.6,4.87-3.28,6.85,6.62,6.85,6.62C1723.57,78.2,1722.65,83.29,1722.25,85.95Z"/><path class="cls-3" d="M2031.18,241.44c-.34-2.33-1.92-6.93-9.34-2.82-2.08,1.23-5.14-1.2-6.09-3.6-1.22,2.48-4.92,4.82-6.18,3.4-5.64,5.71-12.52-2.38-10.18-7.58-3.33,3.19-6.95-.87-4.77-1.95-1.54-.59-5.57-3.39-3.82-6.71,3.88-6.32,11.63-.72,11.63-.72,5-5.55,7.44-.06,7.44-.06,9.14-8.2,10.41,4.36,10.41,4.36,4.62-3.1,6.49,6.27,6.49,6.27C2032.43,234.1,2031.56,238.92,2031.18,241.44Z"/><path class="cls-3" d="M2056.26,237.8c-.2-1.42-1.17-4.21-5.68-1.72-1.26.75-3.12-.73-3.7-2.19-.74,1.51-3,2.93-3.75,2.07-3.43,3.47-7.61-1.44-6.18-4.6-2,1.94-4.22-.53-2.9-1.18-.94-.36-3.39-2.06-2.32-4.08,2.36-3.84,7.07-.44,7.07-.44,3.06-3.37,4.52,0,4.52,0,5.56-5,6.33,2.65,6.33,2.65,2.81-1.89,3.94,3.81,3.94,3.81C2057,233.34,2056.5,236.27,2056.26,237.8Z"/><path class="cls-3" d="M1688.24,57.47c-.25-1.31-1.28-3.91-5.67-1.76-1.22.65-3.11-.77-3.73-2.13-.69,1.37-2.86,2.61-3.65,1.79-3.29,3.09-7.57-1.57-6.26-4.43-1.94,1.72-4.19-.61-2.91-1.18-.94-.36-3.41-2-2.42-3.83,2.22-3.47,7-.19,7-.19,2.92-3,4.47.11,4.47.11,5.34-4.42,6.34,2.64,6.34,2.64,2.72-1.65,4,3.63,4,3.63C1688.86,53.39,1688.43,56.07,1688.24,57.47Z"/><path class="cls-1" d="M905.81,508.72H826.4c7.89-171.81,15.36-325,28.29-449.68l26.54-.11C892.93,181.52,899.9,341,905.81,508.72Z"/><rect class="cls-1" x="841.77" y="69.06" width="51.3" height="14.89"/><path class="cls-1" d="M864.9,50.41c-.64-4.43-3.64-13.16-17.75-5.36-3.94,2.34-9.76-2.28-11.58-6.85-2.32,4.72-9.34,9.16-11.73,6.46-10.72,10.84-23.78-4.52-19.34-14.39-6.32,6.06-13.2-1.64-9.07-3.7-2.92-1.13-10.59-6.44-7.25-12.74,7.38-12,22.1-1.37,22.1-1.37,9.55-10.55,14.14-.11,14.14-.11,17.37-15.58,19.78,8.29,19.78,8.29,8.77-5.9,12.33,11.91,12.33,11.91C867.28,36.46,865.63,45.63,864.9,50.41Z"/><path class="cls-1" d="M910,509.09c7.3-157,14.6-297.37,26.6-413.19l26.54-.11C974,209.36,980.75,354.64,986.39,508.72Z"/><rect class="cls-4" x="1128.85" y="208" width="98.26" height="21.59"/><polygon class="cls-1" points="2503.33 508.33 2274.76 508.33 2274.76 369.44 2343.63 319.95 2503.33 319.95 2503.33 508.33"/><rect class="cls-1" x="1810.75" y="297.64" width="32.62" height="142.58"/><rect class="cls-1" x="1870.63" y="297.64" width="32.62" height="142.58"/><rect class="cls-1" x="1802.68" y="297.64" width="47.18" height="9.65"/><rect class="cls-1" x="1863.35" y="297.64" width="47.18" height="9.65"/><rect class="cls-1" x="782" y="398.29" width="86.55" height="110.8"/><rect class="cls-3" x="1267.27" y="381.64" width="347.62" height="127.46"/><rect class="cls-3" x="1602.54" y="113.27" width="155.4" height="168.27"/><rect class="cls-3" x="1553.09" y="251.11" width="234.5" height="257.98"/><rect class="cls-3" x="1774.05" y="432.67" width="178.59" height="76.42"/><rect class="cls-3" x="1227.11" y="260.45" width="90.01" height="248.65"/><rect class="cls-3" x="859.98" y="250.77" width="97.95" height="258.32"/><rect class="cls-3" x="928.25" y="342.21" width="247.32" height="166.89"/><rect class="cls-3" x="1351.1" y="365.46" width="30.18" height="144.13"/><rect class="cls-3" x="1433.47" y="365.46" width="30.18" height="144.13"/><rect class="cls-3" x="1021.1" y="310.35" width="63.06" height="50.06"/><rect class="cls-3" x="1710.06" y="92.09" width="14.18" height="26.21"/><rect class="cls-3" x="1732.13" y="92.09" width="14.18" height="26.21"/><rect class="cls-3" x="2008.65" y="256.73" width="220.86" height="252.37"/><rect class="cls-3" x="2137.32" y="365.46" width="301.07" height="143.64"/><rect class="cls-3" x="2024.38" y="242.42" width="14.18" height="26.21"/><rect class="cls-3" x="2050.32" y="242.42" width="14.18" height="26.21"/><rect class="cls-3" x="1016.88" y="305.9" width="71.32" height="4.44"/><rect class="cls-3" x="954.71" y="342.44" width="229.28" height="8.71"/><rect class="cls-4" x="1587.46" y="307.29" width="18.29" height="41.83"/><rect class="cls-4" x="1610.78" y="307.29" width="18.29" height="41.83"/><rect class="cls-4" x="1643.47" y="307.29" width="18.29" height="41.83"/><rect class="cls-4" x="1666.79" y="307.29" width="18.29" height="41.83"/><rect class="cls-4" x="1699.47" y="307.29" width="18.29" height="41.83"/><rect class="cls-4" x="1722.8" y="307.29" width="18.29" height="41.83"/><rect class="cls-4" x="1587.46" y="366.26" width="18.29" height="41.83"/><rect class="cls-4" x="1610.78" y="366.26" width="18.29" height="41.83"/><rect class="cls-4" x="1642.9" y="366.26" width="18.29" height="41.83"/><rect class="cls-4" x="1666.22" y="366.26" width="18.29" height="41.83"/><rect class="cls-4" x="1699.47" y="366.26" width="18.29" height="41.83"/><rect class="cls-4" x="1722.8" y="366.26" width="18.29" height="41.83"/><rect class="cls-4" x="1587.79" y="425.24" width="18.29" height="41.83"/><rect class="cls-4" x="1611.11" y="425.24" width="18.29" height="41.83"/><rect class="cls-4" x="1642.9" y="425.24" width="18.29" height="41.83"/><rect class="cls-4" x="1666.22" y="425.24" width="18.29" height="41.83"/><rect class="cls-4" x="1699.47" y="425.24" width="18.29" height="41.83"/><rect class="cls-4" x="1722.8" y="425.24" width="18.29" height="41.83"/><rect class="cls-4" x="1249.68" y="290.88" width="17.5" height="21.58"/><rect class="cls-4" x="1275.98" y="290.88" width="17.5" height="21.58"/><rect class="cls-4" x="1249.68" y="325.26" width="17.5" height="21.58"/><rect class="cls-4" x="1275.98" y="325.26" width="17.5" height="21.58"/><rect class="cls-4" x="1249.68" y="358.98" width="17.5" height="21.58"/><rect class="cls-4" x="1275.98" y="358.98" width="17.5" height="21.58"/><rect class="cls-4" x="1249.68" y="391.23" width="17.5" height="21.58"/><rect class="cls-4" x="1275.98" y="391.23" width="17.5" height="21.58"/><rect class="cls-4" x="1250.22" y="423.07" width="17.5" height="21.58"/><rect class="cls-4" x="1276.51" y="423.07" width="17.5" height="21.58"/><rect class="cls-4" x="1250.22" y="454.9" width="17.5" height="21.58"/><rect class="cls-4" x="1276.51" y="454.9" width="17.5" height="21.58"/><polygon class="cls-4" points="1927.27 509.09 1923.19 509.09 1922.9 460.63 1804.56 460.63 1804.56 509.09 1800.53 509.09 1800.53 456.45 1927.27 456.45 1927.27 509.09"/><rect class="cls-4" x="1831.94" y="475.05" width="30.09" height="34.04"/><rect class="cls-4" x="1867.37" y="475.05" width="30.09" height="34.04"/><rect class="cls-4" x="1630.51" y="132.84" width="98.67" height="10.98"/><rect class="cls-4" x="1630.51" y="156.81" width="98.67" height="10.98"/><rect class="cls-4" x="1630.51" y="180.77" width="98.67" height="10.98"/><rect class="cls-4" x="1630.51" y="205.08" width="98.67" height="10.98"/><rect class="cls-4" x="1630.59" y="229.59" width="98.67" height="10.98"/><rect class="cls-4" x="1383.21" y="399.01" width="19.05" height="10.55"/><rect class="cls-4" x="1408.34" y="399.01" width="19.05" height="10.55"/><rect class="cls-4" x="1383.21" y="415.23" width="19.05" height="10.55"/><rect class="cls-4" x="1408.34" y="415.23" width="19.05" height="10.55"/><rect class="cls-4" x="1383.21" y="431.46" width="19.05" height="10.55"/><rect class="cls-4" x="1408.34" y="431.25" width="19.05" height="10.55"/><rect class="cls-4" x="1383.21" y="447.27" width="19.05" height="10.55"/><rect class="cls-4" x="1408.34" y="447.27" width="19.05" height="10.55"/><rect class="cls-4" x="1383.21" y="463.09" width="19.05" height="10.55"/><rect class="cls-4" x="1408.34" y="463.3" width="19.05" height="10.55"/><rect class="cls-4" x="1383.21" y="478.9" width="19.05" height="10.55"/><rect class="cls-4" x="1408.34" y="478.9" width="19.05" height="10.55"/><rect class="cls-4" x="1469.49" y="415.65" width="19.05" height="10.55"/><rect class="cls-4" x="1494.62" y="415.65" width="19.05" height="10.55"/><rect class="cls-4" x="1469.49" y="463.51" width="19.05" height="10.55"/><rect class="cls-4" x="1494.62" y="463.71" width="19.05" height="10.55"/><rect class="cls-4" x="1518.77" y="415.65" width="19.05" height="10.55"/><rect class="cls-4" x="1518.77" y="463.51" width="19.05" height="10.55"/><rect class="cls-4" x="2249.16" y="395.68" width="32.86" height="11.01"/><rect class="cls-4" x="2292.5" y="395.68" width="32.86" height="11.01"/><rect class="cls-4" x="2249.16" y="418.61" width="32.86" height="11.01"/><rect class="cls-4" x="2292.5" y="418.61" width="32.86" height="11.01"/><rect class="cls-4" x="2335.49" y="395.35" width="32.86" height="11.01"/><rect class="cls-4" x="2378.83" y="395.35" width="32.86" height="11.01"/><rect class="cls-4" x="2335.49" y="418.28" width="32.86" height="11.01"/><rect class="cls-4" x="2378.83" y="418.28" width="32.86" height="11.01"/><rect class="cls-4" x="2048.62" y="307.29" width="25.32" height="25.32"/><rect class="cls-4" x="2088.75" y="307.29" width="25.32" height="25.32"/><rect class="cls-4" x="2128.66" y="307.29" width="25.32" height="25.32"/><rect class="cls-4" x="2168.56" y="307.29" width="25.32" height="25.32"/><rect class="cls-4" x="2048.62" y="368.93" width="25.32" height="25.32"/><rect class="cls-4" x="2088.75" y="368.93" width="25.32" height="25.32"/><rect class="cls-4" x="2128.66" y="368.93" width="25.32" height="25.32"/><rect class="cls-4" x="2168.56" y="368.93" width="25.32" height="25.32"/><rect class="cls-4" x="2048.62" y="431.75" width="25.32" height="25.32"/><rect class="cls-4" x="2088.75" y="431.75" width="25.32" height="25.32"/><rect class="cls-4" x="2128.66" y="431.75" width="25.32" height="25.32"/><rect class="cls-4" x="2168.56" y="431.75" width="25.32" height="25.32"/><rect class="cls-4" x="1035.59" y="373.42" width="14.07" height="105.14"/><rect class="cls-4" x="959.31" y="373.27" width="11.97" height="11.97"/><rect class="cls-4" x="981.73" y="373.27" width="11.97" height="11.97"/><rect class="cls-4" x="1004.37" y="373.27" width="11.97" height="11.97"/><rect class="cls-4" x="959.31" y="410.56" width="11.97" height="11.97"/><rect class="cls-4" x="981.73" y="410.56" width="11.97" height="11.97"/><rect class="cls-4" x="1004.37" y="410.56" width="11.97" height="11.97"/><rect class="cls-4" x="959.31" y="447.83" width="11.97" height="11.97"/><rect class="cls-4" x="981.73" y="447.83" width="11.97" height="11.97"/><rect class="cls-4" x="1004.37" y="447.83" width="11.97" height="11.97"/><rect class="cls-4" x="1057.85" y="373.06" width="14.07" height="105.14"/><rect class="cls-4" x="1090.83" y="373.06" width="11.97" height="11.97"/><rect class="cls-4" x="1113.25" y="373.06" width="11.97" height="11.97"/><rect class="cls-4" x="1135.9" y="373.06" width="11.97" height="11.97"/><rect class="cls-4" x="1090.83" y="410.36" width="11.97" height="11.97"/><rect class="cls-4" x="1113.25" y="410.36" width="11.97" height="11.97"/><rect class="cls-4" x="1135.9" y="410.36" width="11.97" height="11.97"/><rect class="cls-4" x="1090.83" y="447.62" width="11.97" height="11.97"/><rect class="cls-4" x="1113.25" y="447.62" width="11.97" height="11.97"/><rect class="cls-4" x="1135.9" y="447.62" width="11.97" height="11.97"/><rect class="cls-4" x="1033.71" y="317.47" width="36.39" height="20.78"/><path class="cls-4" d="M2297.27,336.95l2.22-2.19q7.87-7.86,15.74-15.72a1.32,1.32,0,0,1,.83-.35c2.29,0,4.57,0,6.86,0a.76.76,0,0,1,.73.4,12.17,12.17,0,0,0,9.12,5.66,12.35,12.35,0,1,0-9-19.12,1.22,1.22,0,0,1-1.17.61c-4.07,0-8.14,0-12.2,0a2.2,2.2,0,0,0-1.73.73q-13.46,13.5-26.95,27a4.84,4.84,0,0,0-.39.51,17.17,17.17,0,0,1-3.76-3,18.28,18.28,0,0,1-4.85-9.52,14,14,0,0,1-.26-2.46c0-17-.05-34,0-51a17.11,17.11,0,0,1,4.66-11.5,18.22,18.22,0,0,1,10.49-5.86c1-.2,2.1-.21,3.23-.32v.68c0,4.25,0,8.5,0,12.74a.85.85,0,0,1-.44.83,12.21,12.21,0,0,0-5.69,9.33,12.38,12.38,0,0,0,22.78,7.69,1,1,0,0,1,.68-.37c4.9,0,9.79,0,14.69,0a.84.84,0,0,1,.77.45,12,12,0,0,0,11.62,5.61,11.74,11.74,0,0,0,9.64-6.43,12.34,12.34,0,0,0-21.29-12.47.85.85,0,0,1-.83.44q-7.24,0-14.47,0a.84.84,0,0,1-.83-.43,11.78,11.78,0,0,0-3.82-3.82.77.77,0,0,1-.4-.75q0-6.43,0-12.85c0-.43.11-.59.57-.59,12.42,0,24.84-.05,37.26,0a17.1,17.1,0,0,1,11.44,4.66,18.08,18.08,0,0,1,5.76,10,16.13,16.13,0,0,1,.36,3.26q0,25.08,0,50.17a17.59,17.59,0,0,1-4.68,11.93,18.44,18.44,0,0,1-13.64,6.15q-21.2,0-42.39,0h-.64Z"/><path class="cls-4" d="M2303.19,275.46a6.12,6.12,0,1,1-6-6.16A6.1,6.1,0,0,1,2303.19,275.46Z"/><path class="cls-4" d="M2328,275.42a6.05,6.05,0,0,1,6.18-6.11,6.13,6.13,0,1,1-.2,12.26A6.07,6.07,0,0,1,2328,275.42Z"/><path class="cls-4" d="M2328,312.46a6.11,6.11,0,0,1,6.2-6.14,6.12,6.12,0,0,1-.18,12.24A6,6,0,0,1,2328,312.46Z"/><path class="cls-4" d="M910,326.94H893.33c-3.08,0-4.37-1.29-4.37-4.38q0-16.65,0-33.3c0-3.12,1.27-4.4,4.34-4.4h33.42c3,0,4.31,1.32,4.31,4.31q0,16.71,0,33.42c0,3-1.32,4.34-4.41,4.35Zm-.1-32.33c-2.9,0-5.8,0-8.7,0-1.9,0-2.46.52-2.46,2.37q0,8.88,0,17.77c0,1.9.53,2.43,2.4,2.43q8.82,0,17.64,0c2,0,2.52-.49,2.53-2.55q0-8.76,0-17.52c0-2-.51-2.48-2.46-2.5C915.84,294.6,912.86,294.61,909.88,294.61Z"/><path class="cls-4" d="M911.53,277.59c0,1,0,2.09,0,3.14,0,.69-.22,1-.94,1a6.8,6.8,0,0,1-1.37,0c-.3-.09-.71-.47-.72-.73q-.08-3.39,0-6.78a1.41,1.41,0,0,1,1.51-1.5,1.45,1.45,0,0,1,1.47,1.56c0,1.13,0,2.26,0,3.39Z"/><path class="cls-4" d="M881.64,304.38c1,0,2.09,0,3.14,0,.77,0,1.07.27,1,1a7.46,7.46,0,0,0,0,1.13c0,.62-.18.93-.85.92-2.22,0-4.44,0-6.65,0a1.49,1.49,0,1,1,0-3c1.13-.05,2.26,0,3.39,0Z"/><path class="cls-4" d="M938.41,304.4c1.09,0,2.18,0,3.26,0a1.5,1.5,0,1,1,0,3c-2.18,0-4.35,0-6.53,0-.72,0-1-.28-.93-1a5.57,5.57,0,0,0,0-1c-.08-.8.22-1.15,1.06-1.1,1,.05,2.09,0,3.14,0Z"/><path class="cls-4" d="M911.51,334.33c0,1.09,0,2.18,0,3.26a1.5,1.5,0,1,1-3,0c0-2.18,0-4.35,0-6.53,0-.62.19-1,.86-.91a5.68,5.68,0,0,1,1.37,0c.33.11.76.5.79.79.09,1.12,0,2.26,0,3.39Z"/><path class="cls-4" d="M938.39,297.52h-3.27c-1.19,0-.89-.88-.89-1.53s-.26-1.54.91-1.54c2.14,0,4.28,0,6.42.05,1,0,1.76.48,1.72,1.59s-.79,1.39-1.73,1.39h-3.14Z"/><path class="cls-4" d="M881.66,314.27c1,0,2.1,0,3.15,0s1,.78,1,1.47.3,1.63-1,1.61c-2.1,0-4.19,0-6.29-.05-1,0-1.78-.42-1.79-1.53s.79-1.46,1.79-1.47h3.14Z"/><path class="cls-4" d="M898.74,277.4c0-1,0-2.09,0-3.14,0-.89.42-1.59,1.39-1.63s1.53.69,1.56,1.6c.08,2.17.05,4.35.07,6.53,0,1.17-.87.91-1.53.9s-1.54.31-1.54-.88,0-2.26,0-3.39Z"/><path class="cls-4" d="M901.72,334.17c0,1.09,0,2.18,0,3.26s-.47,1.77-1.57,1.73-1.39-.82-1.4-1.75c0-2.09,0-4.19-.06-6.28,0-1.24.82-1,1.55-1s1.59-.19,1.55,1c0,1,0,2,0,3Z"/><path class="cls-4" d="M921.31,277.55c0,.84,0,1.68,0,2.51.08,1.08-.1,1.7-1.45,1.67s-1.75-.28-1.67-1.61c.11-1.84,0-3.68.07-5.52,0-1,.32-1.92,1.49-1.95s1.49.88,1.51,1.89,0,2,0,3Z"/><path class="cls-4" d="M881.58,297.47c-1.09,0-2.19,0-3.28,0a1.43,1.43,0,0,1-1.57-1.33,1.41,1.41,0,0,1,1.46-1.57c2.27-.11,4.54-.1,6.81-.07.26,0,.69.46.74.76.35,2,.1,2.27-1.89,2.27h-2.27Z"/><path class="cls-4" d="M938.38,317.2h-3.26c-1.19,0-.88-.88-.89-1.53s-.26-1.54.9-1.53c2.18,0,4.35,0,6.53.06.91,0,1.65.52,1.61,1.56s-.73,1.36-1.62,1.39c-1.09,0-2.18,0-3.26,0Z"/><path class="cls-4" d="M921.24,334.39c0,1.09,0,2.18,0,3.26a1.46,1.46,0,1,1-2.91.06q-.14-3.38-.06-6.78c0-1.24,1.09-.72,1.74-.8s1.31-.12,1.3.86c0,1.13,0,2.26,0,3.39Z"/><rect class="cls-1" x="713.64" y="309.97" width="128.13" height="168.1"/><rect class="cls-3" x="2484.96" y="235.15" width="97.67" height="273.94"/><rect class="cls-3" x="2547.57" y="391.64" width="97.67" height="117.28"/><rect class="cls-3" x="2436.12" y="437.96" width="97.67" height="71.14"/><rect class="cls-1" x="749.54" y="292.41" width="92.27" height="168.1"/><rect class="cls-3" x="639.11" y="384.24" width="220.86" height="125.72"/><rect class="cls-4" x="668.78" y="410.48" width="32.86" height="11.01"/><rect class="cls-4" x="712.12" y="410.48" width="32.86" height="11.01"/><rect class="cls-4" x="668.78" y="447.35" width="32.86" height="11.01"/><rect class="cls-4" x="712.12" y="447.35" width="32.86" height="11.01"/><rect class="cls-4" x="755.11" y="410.15" width="32.86" height="11.01"/><rect class="cls-4" x="798.45" y="410.15" width="32.86" height="11.01"/><rect class="cls-4" x="755.11" y="447.02" width="32.86" height="11.01"/><rect class="cls-4" x="798.45" y="447.02" width="32.86" height="11.01"/><rect class="cls-4" x="2511.9" y="258.98" width="17.5" height="21.58"/><rect class="cls-4" x="2538.2" y="258.98" width="17.5" height="21.58"/><rect class="cls-4" x="2511.9" y="296.86" width="17.5" height="21.58"/><rect class="cls-4" x="2538.2" y="296.86" width="17.5" height="21.58"/><rect class="cls-4" x="2511.9" y="334.07" width="17.5" height="21.58"/><rect class="cls-4" x="2538.2" y="334.07" width="17.5" height="21.58"/><rect class="cls-4" x="2511.9" y="369.83" width="17.5" height="21.58"/><rect class="cls-4" x="2538.2" y="369.83" width="17.5" height="21.58"/><rect class="cls-4" x="2532.04" y="473.53" width="30.09" height="34.04"/><rect class="cls-4" x="2567.47" y="473.53" width="30.09" height="34.04"/><rect class="cls-4" x="2512.01" y="438.1" width="25.32" height="11.48"/><rect class="cls-4" x="2553.14" y="438.1" width="25.32" height="11.48"/><rect class="cls-4" x="2594.04" y="438.1" width="25.32" height="11.48"/><path class="cls-3" d="M425.58,232.44c-.34-2.33-1.92-6.93-9.34-2.82-2.08,1.23-5.14-1.2-6.09-3.6-1.22,2.48-4.92,4.82-6.18,3.4-5.64,5.71-12.52-2.38-10.18-7.58-3.33,3.19-6.95-.87-4.77-1.95-1.54-.59-5.57-3.39-3.82-6.71,3.88-6.32,11.63-.72,11.63-.72,5-5.55,7.44-.06,7.44-.06,9.14-8.2,10.41,4.36,10.41,4.36,4.62-3.1,6.49,6.27,6.49,6.27C426.83,225.09,426,229.92,425.58,232.44Z"/><path class="cls-3" d="M450.66,228.8c-.2-1.42-1.17-4.21-5.68-1.72-1.26.75-3.12-.73-3.7-2.19-.74,1.51-3,2.93-3.75,2.07-3.43,3.47-7.61-1.44-6.18-4.6-2,1.94-4.22-.53-2.9-1.18-.94-.36-3.39-2.06-2.32-4.08,2.36-3.84,7.07-.44,7.07-.44,3.06-3.37,4.52,0,4.52,0,5.56-5,6.33,2.65,6.33,2.65,2.81-1.89,3.94,3.81,3.94,3.81C451.43,224.34,450.9,227.27,450.66,228.8Z"/><rect class="cls-3" x="405.31" y="248.2" width="198.06" height="263.3"/><rect class="cls-3" x="419.41" y="233.27" width="12.71" height="27.35"/><rect class="cls-3" x="442.67" y="233.27" width="12.71" height="27.35"/><rect class="cls-4" x="441.15" y="300.95" width="22.71" height="26.42"/><rect class="cls-4" x="477.14" y="300.95" width="22.71" height="26.42"/><rect class="cls-4" x="512.92" y="300.95" width="22.71" height="26.42"/><rect class="cls-4" x="548.7" y="300.95" width="22.71" height="26.42"/><rect class="cls-4" x="441.15" y="365.27" width="22.71" height="26.42"/><rect class="cls-4" x="477.14" y="365.27" width="22.71" height="26.42"/><rect class="cls-4" x="512.92" y="365.27" width="22.71" height="26.42"/><rect class="cls-4" x="548.7" y="365.27" width="22.71" height="26.42"/><rect class="cls-4" x="441.15" y="430.81" width="22.71" height="26.42"/><rect class="cls-4" x="477.14" y="430.81" width="22.71" height="26.42"/><rect class="cls-4" x="512.92" y="430.81" width="22.71" height="26.42"/><rect class="cls-4" x="548.7" y="430.81" width="22.71" height="26.42"/><rect class="cls-3" x="248.87" y="338.2" width="156.85" height="173.3"/><rect class="cls-4" x="295.52" y="476.12" width="30.09" height="34.04"/><rect class="cls-4" x="330.95" y="476.12" width="30.09" height="34.04"/><rect class="cls-4" x="277.33" y="436.37" width="19.45" height="7.49"/><rect class="cls-4" x="277.33" y="414.51" width="19.45" height="7.49"/><rect class="cls-4" x="317.26" y="436.27" width="19.45" height="7.49"/><rect class="cls-4" x="317.26" y="414.51" width="19.45" height="7.49"/><rect class="cls-4" x="357.18" y="436.37" width="19.45" height="7.49"/><rect class="cls-4" x="357.18" y="414.51" width="19.45" height="7.49"/><rect class="cls-1" x="23.8" y="312.47" width="59.04" height="188.58"/><rect class="cls-3" y="393.42" width="248.87" height="117.75"/><rect class="cls-3" x="30.51" y="378.48" width="30.18" height="133.15"/><rect class="cls-3" x="112.88" y="378.48" width="30.18" height="133.15"/><rect class="cls-4" x="62.63" y="412.63" width="19.05" height="10.55"/><rect class="cls-4" x="87.75" y="412.63" width="19.05" height="10.55"/><rect class="cls-4" x="62.63" y="445.08" width="19.05" height="10.55"/><rect class="cls-4" x="87.75" y="444.88" width="19.05" height="10.55"/><rect class="cls-4" x="62.63" y="476.71" width="19.05" height="10.55"/><rect class="cls-4" x="87.75" y="476.92" width="19.05" height="10.55"/><rect class="cls-4" x="148.91" y="417.69" width="19.05" height="10.55"/><rect class="cls-4" x="174.04" y="417.69" width="19.05" height="10.55"/><rect class="cls-4" x="148.91" y="465.54" width="19.05" height="10.55"/><rect class="cls-4" x="174.04" y="465.75" width="19.05" height="10.55"/><rect class="cls-4" x="198.18" y="417.69" width="19.05" height="10.55"/><rect class="cls-4" x="198.18" y="465.54" width="19.05" height="10.55"/><rect class="cls-4" x="39.18" y="328.41" width="26.05" height="26.05"/><rect class="cls-4" x="277.96" y="359.95" width="98.67" height="9.26"/><rect class="cls-4" x="277.96" y="380.15" width="98.67" height="9.26"/><rect class="cls-1" x="44.42" y="333.64" width="15.57" height="15.57"/><rect class="cls-1" x="628.51" y="131.25" width="11.95" height="26.21"/><rect class="cls-1" x="607.99" y="131.25" width="11.95" height="26.21"/></g></svg>