<svg id="Layer_1" data-name="Layer 1" xmlns="http://www.w3.org/2000/svg" xmlns:xlink="http://www.w3.org/1999/xlink" viewBox="0 0 1920 9776"><defs><style>@import url('https://fonts.googleapis.com/css2?family=Fredoka+One');
	.cls-1{fill:url(#linear-gradient);}.cls-2{fill:url(#linear-gradient-2);}.cls-3{fill:url(#linear-gradient-3);}.cls-4{fill:#cfdbdd;}.cls-13,.cls-5{fill:#003650;}.cls-6{fill:url(#radial-gradient);}.cls-7{fill:#f79d5e;}.cls-8{fill:#b63035;}.cls-9{opacity:0.3;}.cls-10{fill:#b3b3b3;}.cls-11,.cls-22{fill:#fff;}.cls-12{fill:#5c89a0;}.cls-13{font-size:300px;stroke:#cfdbdd;font-family:"'Fredoka One'", sans-serif;letter-spacing:0.03em;}.cls-13,.cls-14,.cls-15,.cls-16,.cls-17,.cls-18,.cls-20,.cls-22{stroke-miterlimit:10;}.cls-13,.cls-15{stroke-width:10px;}.cls-14,.cls-15,.cls-16,.cls-17,.cls-18,.cls-19,.cls-20{fill:none;}.cls-14,.cls-17,.cls-18{stroke:#003650;}.cls-14{stroke-width:2.87px;}.cls-15,.cls-16{stroke:#fff;}.cls-16{stroke-width:6.87px;}.cls-17{stroke-width:5px;}.cls-18{stroke-width:4.99px;}.cls-20{stroke:#f79d5e;stroke-width:2px;}.cls-21{fill:url(#linear-gradient-4);}.cls-22{stroke:#ccc;}</style><linearGradient id="linear-gradient" x1="960" y1="9776" x2="960" y2="6090.92" gradientUnits="userSpaceOnUse"><stop offset="0.13" stop-color="#cfdbdd"/><stop offset="0.15" stop-color="#cad7da"/><stop offset="0.29" stop-color="#a2bbc5"/><stop offset="0.43" stop-color="#84a5b5"/><stop offset="0.57" stop-color="#6e96a9"/><stop offset="0.7" stop-color="#608ca2"/><stop offset="0.81" stop-color="#5c89a0"/></linearGradient><linearGradient id="linear-gradient-2" x1="960" y1="3954.04" x2="960" y2="6831" gradientUnits="userSpaceOnUse"><stop offset="0.13" stop-color="#003650"/><stop offset="0.22" stop-color="#164a63"/><stop offset="0.38" stop-color="#34657e"/><stop offset="0.53" stop-color="#4a7991"/><stop offset="0.68" stop-color="#58859c"/><stop offset="0.81" stop-color="#5c89a0"/></linearGradient><linearGradient id="linear-gradient-3" x1="960" y1="3773.04" x2="960" y2="318" gradientUnits="userSpaceOnUse"><stop offset="0.14" stop-color="#003650"/><stop offset="0.81" stop-color="#d0dcde"/></linearGradient><radialGradient id="radial-gradient" cx="652" cy="3386" r="277" gradientTransform="translate(0 2370.2) scale(1 0.3)" gradientUnits="userSpaceOnUse"><stop offset="0.46" stop-color="#f79d5e" stop-opacity="0.5"/><stop offset="0.76" stop-color="#f79d5e" stop-opacity="0.22"/><stop offset="1" stop-color="#f79d5e" stop-opacity="0"/></radialGradient><linearGradient id="linear-gradient-4" x1="586.1" y1="5281" x2="586.1" y2="6019" gradientUnits="userSpaceOnUse"><stop offset="0.13" stop-color="#003650"/><stop offset="0.22" stop-color="#315d72"/><stop offset="0.33" stop-color="#618392"/><stop offset="0.43" stop-color="#89a3ad"/><stop offset="0.53" stop-color="#a7bbc2"/><stop offset="0.63" stop-color="#bdcdd1"/><stop offset="0.73" stop-color="#cbd7da"/><stop offset="0.81" stop-color="#cfdbdd"/></linearGradient></defs><title>Wiki Home Page</title><rect class="cls-1" y="6090.92" width="1920" height="3685.08"/><rect class="cls-2" y="3954.04" width="1920" height="2876.96"/><rect class="cls-3" y="318" width="1920" height="3455.04"/><rect class="cls-4" width="1920" height="318"/><path class="cls-5" d="M69,2504c102.08-254.48-44.31-159.48-54.5-312.5-6.84-102.63,102.88-182.66,69.88-244.86s122.92-162,102.71-221.23,89.12-84.14,98.29-183.24c9.15,42.41,52.39,67.22,46.08,107.49,6.27,41.68,36.63,50.79,47.06,89.88,28.32,74.32-7.71,185.43,29,278.22,22.46-142.82,116.11-132,113.23-302.82-1.31-56.82,53.78-100.27,65.77-136.94,11.92,35.95,34.76,44.72,33.84,88,2.66,17.16,37.34,76.15,42.17,124.71s28.33,81.45,39.26,133c72-46.81,36.33-127.07,60.91-201.14,19.08-50.18,35-53.08,41.78-95.57s23.79-52.31,33.57-83.61c9.09,29.37,46.8,30.31,46.8,57.92,3.94,49.58,73.36,94.59,79.7,51.07s38.13-47,38.76-70.46,28.37-35.85,38.82-61c-.06,22.24,16.36,25.46,13,62.57-.2,39.84,26.6,62.27,36.9,99.88,5.54-35.22,43.52-44.49,51.52-88.9,9-38.43,22.7-24.56,32.76-46.43,6.75,24.34,25.54,27.43,29.9,65s27,20.91,28.58,66.19c1.51,41.51,44.86,64.48,46.51,93.62,21.47-53.84,56.93-51.83,64-118.08,0-49.72,44.27-13.62,40.71-66.07s21.21-40,30.71-79.45c4.85,35.15,33.73,112.14,13.71,97.16-5.1-4.3-4.82-10.91-2.25,2.27s28.47,48.83,22.66,78.3c-8.15,41.35,25,74.75,39.75,101.57,12,21.81,25.76,71.45,25.76,71.45s96.56-74.26,97.44-120.82c1.28-67.73,30.33-33.28,25.7-85.87-2.24-33.1,31.22-54,20.32-92.81,0,26.09,49.55,53,51.25,110.87s43,35.95,59.79,96.33c25.82,92.78-99.44,118.8-99.45,262.86S1500.32,2131.65,1405,2323s-12.63,196.79-229.55,276.76-36.61,247.1-251.09,384.51C735.63,3059.6,880.74,3277.6,885,3334c30.51,171.06-459.08,253.21-459,64,0-151.53-204-247.69-190.34-355.2C265.56,2807.09-33.08,2758.48,69,2504Z"/><ellipse class="cls-6" cx="652" cy="3386" rx="376.27" ry="109"/><rect class="cls-5" y="3615.02" width="1920" height="561.98"/><path class="cls-5" d="M1415,4200c-95.32,191.35-121.63,357.78-338.55,437.74s-36.61,247.1-251.09,384.51c-188.73,75.33-58.91,202.35-54.65,258.75,30.51,171.06-369.29,189.21-369.21,0,0-151.53-110.48-227.7-96.84-335.21C334.56,4710.07,58.92,4767.47,161,4513s-44.31-159.48-54.5-312.5"/><path class="cls-4" d="M1920,6092.67c-212.69-62.72-285.51-13.62-519,101S1297,6018.92,1025,6090c-207.2,95.52-248-10.67-254.29-71-11.37-154.29-366.25-225.16-369.21-66.33-14.38,205.6,5,292.35,91.9,359.33,190.54,146.84,398.83-40.06,597.21,153.28,206.7,201.44,763.84-113.24,829.4,142.39"/><path class="cls-5" d="M208.35,1642.3c-10.45-1.84,1.25-27.3-15.76-.49-5,7-9.85-.31-6.82-7,5.18-12.91,16.56-16.28,21.27-26.06,3.78-4.62-11.79,3.47-7.4-6.56,15.09-20.08,41.45-30.25,68.31-27.43C223.3,1594.83,234,1636.84,208.35,1642.3Z"/><path class="cls-5" d="M176.85,1611.44c-2.42-1.17-2.89-3.9-.59-6.62,3.47-2.76,6.79-2.93,12.15-1.19C179,1605,182.14,1611.7,176.85,1611.44Z"/><path class="cls-5" d="M1737.42,1658.36c8.29,1.08,4.81-16.35,12,3,2.3,5.19,7.52,1.86,6.62-2.7-1.2-8.68-9.1-13-10.6-19.77-1.88-3.5,8.19,4.49,7-2.33-7.18-15-25-26.43-45.89-30.34C1736.11,1627.28,1719.17,1649.82,1737.42,1658.36Z"/><path class="cls-5" d="M1436.37,1557.59c3.16.2,4.21-3.6,1.88-9.68-3.75-7.1-7.77-10.11-14.61-11.85C1434.9,1545.95,1429.88,1553.63,1436.37,1557.59Z"/><circle class="cls-7" cx="783.13" cy="2173.96" r="18.01"/><circle class="cls-7" cx="1406.9" cy="1559.58" r="7.82"/><circle class="cls-7" cx="1395.6" cy="1622.07" r="9.64"/><circle class="cls-7" cx="1432.74" cy="1776.55" r="11.33"/><circle class="cls-7" cx="1411.39" cy="1582.13" r="8.71"/><circle class="cls-7" cx="1366.61" cy="1696.24" r="10.17"/><circle class="cls-7" cx="1377.46" cy="1868.69" r="11.64"/><circle class="cls-7" cx="1430.27" cy="1659.48" r="10.17"/><circle class="cls-7" cx="1405.07" cy="1966.49" r="12.57"/><circle class="cls-7" cx="1193.75" cy="2375.8" r="16.83"/><circle class="cls-7" cx="549.54" cy="2613" r="20.34"/><circle class="cls-7" cx="509.62" cy="1907.68" r="12.75"/><circle class="cls-7" cx="491.32" cy="2303.92" r="18.3"/><circle class="cls-7" cx="687.46" cy="2630.85" r="17.85"/><circle class="cls-7" cx="778.46" cy="4430.85" r="17.85"/><circle class="cls-7" cx="912.46" cy="4567.85" r="17.85"/><circle class="cls-7" cx="584.46" cy="4734.85" r="17.85"/><circle class="cls-8" cx="387.46" cy="4305.85" r="17.85"/><circle class="cls-8" cx="1213.46" cy="4305.85" r="17.85"/><circle class="cls-8" cx="760.46" cy="4784.85" r="17.85"/><circle class="cls-8" cx="593.46" cy="5118.85" r="17.85"/><circle class="cls-8" cx="634.46" cy="4924.85" r="17.85"/><circle class="cls-8" cx="859.46" cy="4244.85" r="17.85"/><circle class="cls-8" cx="257.46" cy="4609.85" r="17.85"/><circle class="cls-7" cx="365.98" cy="2891.88" r="21.2"/><circle class="cls-7" cx="528.98" cy="4469.88" r="21.2"/><circle class="cls-7" cx="426.98" cy="4885.88" r="21.2"/><circle class="cls-7" cx="682.98" cy="5016.88" r="21.2"/><circle class="cls-7" cx="473.98" cy="5016.88" r="21.2"/><circle class="cls-7" cx="582.97" cy="1608.26" r="6"/><circle class="cls-7" cx="585.63" cy="1637.43" r="7.55"/><circle class="cls-7" cx="574.68" cy="1664.22" r="8.29"/><circle class="cls-7" cx="608.59" cy="1709.16" r="10.17"/><circle class="cls-7" cx="557.94" cy="1733.77" r="10.17"/><circle class="cls-7" cx="613.95" cy="1775.39" r="10.17"/><circle class="cls-7" cx="1186.84" cy="2132.76" r="14.04"/><circle class="cls-7" cx="1036.03" cy="1549.7" r="6.04"/><circle class="cls-7" cx="1022.86" cy="1576.79" r="7.13"/><circle class="cls-7" cx="1035.48" cy="1595.51" r="7.37"/><circle class="cls-7" cx="1001.7" cy="1642.93" r="10.17"/><circle class="cls-7" cx="1034.75" cy="1706.41" r="10.17"/><circle class="cls-7" cx="977.74" cy="1765.22" r="12.3"/><circle class="cls-7" cx="1012.73" cy="1951.71" r="13.06"/><circle class="cls-7" cx="623.37" cy="2008.94" r="14.78"/><circle class="cls-8" cx="837.26" cy="1587.08" r="6.74"/><circle class="cls-8" cx="856.59" cy="1615.97" r="7.49"/><circle class="cls-8" cx="847.22" cy="1637.37" r="8.3"/><circle class="cls-8" cx="828.75" cy="1729.5" r="10.17"/><circle class="cls-8" cx="855.32" cy="1804.99" r="11.68"/><circle class="cls-8" cx="893.13" cy="1688.82" r="10.17"/><circle class="cls-8" cx="803.12" cy="1888.46" r="14.25"/><circle class="cls-8" cx="869.86" cy="2023.84" r="14.54"/><circle class="cls-8" cx="902.84" cy="2460.22" r="17.96"/><circle class="cls-8" cx="291.33" cy="1582.24" r="5.96"/><circle class="cls-8" cx="282.05" cy="1647.2" r="9.06"/><circle class="cls-8" cx="300.21" cy="1595.41" r="6.34"/><circle class="cls-8" cx="241" cy="1698.99" r="10.17"/><circle class="cls-8" cx="307.58" cy="1713.43" r="10.17"/><circle class="cls-8" cx="183.05" cy="2536.34" r="18.46"/><circle class="cls-8" cx="284.09" cy="1784.53" r="11.56"/><circle class="cls-8" cx="178.5" cy="1985.13" r="13.91"/><circle class="cls-8" cx="640.84" cy="2930.92" r="22.07"/><circle class="cls-8" cx="1174.88" cy="1575.56" r="6.84"/><circle class="cls-8" cx="1166.38" cy="1595.67" r="7.53"/><circle class="cls-8" cx="1185.25" cy="1634.33" r="9"/><circle class="cls-8" cx="1153.57" cy="1711.61" r="10.17"/><circle class="cls-8" cx="1209.28" cy="1784.21" r="11.25"/><circle class="cls-8" cx="1174.83" cy="1879.24" r="12.01"/><circle class="cls-8" cx="1674.16" cy="1608.85" r="8.03"/><circle class="cls-8" cx="1669.75" cy="1631.18" r="8.59"/><circle class="cls-8" cx="1692.27" cy="1668.58" r="9.85"/><circle class="cls-8" cx="1661.16" cy="1709.06" r="10.17"/><circle class="cls-8" cx="1715.42" cy="1748.26" r="10.17"/><circle class="cls-8" cx="1651.33" cy="1809.24" r="12.27"/><circle class="cls-8" cx="1644.64" cy="1986.96" r="13.14"/><circle class="cls-8" cx="1428.77" cy="2140.65" r="15.3"/><circle class="cls-7" cx="503.06" cy="3368.4" r="29.47"/><circle class="cls-7" cx="583.65" cy="3309.59" r="29.47"/><circle class="cls-7" cx="613.05" cy="3385.82" r="29.47"/><circle class="cls-7" cx="652.26" cy="3356.42" r="29.47"/><circle class="cls-7" cx="711.07" cy="3368.4" r="29.47" transform="translate(-2687.54 3917.21) rotate(-87.25)"/><circle class="cls-7" cx="691.46" cy="3327.02" r="29.47" transform="translate(-2664.87 3858.23) rotate(-87.25)"/><circle class="cls-7" cx="613.05" cy="3271.47" r="29.47" transform="translate(-2684.04 3727.03) rotate(-87.25)"/><circle class="cls-7" cx="681.66" cy="3280.19" r="29.47" transform="translate(-2627.43 3803.86) rotate(-87.25)"/><circle class="cls-8" cx="721.96" cy="3298.7" r="29.47" transform="translate(-2607.55 3861.73) rotate(-87.25)"/><circle class="cls-8" cx="749.18" cy="3348.8" r="29.47" transform="translate(-2631.67 3936.62) rotate(-87.25)"/><circle class="cls-7" cx="769.87" cy="3319.39" r="29.47" transform="translate(-2582.6 3929.3) rotate(-87.25)"/><circle class="cls-8" cx="809.08" cy="3360.78" r="29.47" transform="translate(-2586.61 4007.86) rotate(-87.25)"/><circle class="cls-7" cx="593.45" cy="3348.8" r="29.47"/><circle class="cls-8" cx="662.06" cy="3385.82" r="29.47"/><circle class="cls-7" cx="761.16" cy="3385.82" r="29.47" transform="translate(-2657.25 3983.84) rotate(-87.25)"/><circle class="cls-8" cx="554.24" cy="3378.2" r="29.47"/><circle class="cls-8" cx="534.64" cy="3331.37" r="29.47"/><circle class="cls-8" cx="632.65" cy="3309.59" r="29.47"/><g class="cls-9"><circle class="cls-10" cx="503.06" cy="3368.4" r="29.47"/><circle class="cls-10" cx="583.65" cy="3309.59" r="29.47"/><circle class="cls-10" cx="613.05" cy="3385.82" r="29.47"/><circle class="cls-10" cx="652.26" cy="3356.42" r="29.47"/><circle class="cls-10" cx="711.07" cy="3368.4" r="29.47" transform="translate(-2687.54 3917.21) rotate(-87.25)"/><circle class="cls-10" cx="691.46" cy="3327.02" r="29.47" transform="translate(-2664.87 3858.23) rotate(-87.25)"/><circle class="cls-10" cx="613.05" cy="3271.47" r="29.47" transform="translate(-2684.04 3727.03) rotate(-87.25)"/><circle class="cls-10" cx="681.66" cy="3280.19" r="29.47" transform="translate(-2627.43 3803.86) rotate(-87.25)"/><circle class="cls-10" cx="721.96" cy="3298.7" r="29.47" transform="translate(-2607.55 3861.73) rotate(-87.25)"/><circle class="cls-10" cx="749.18" cy="3348.8" r="29.47" transform="translate(-2631.67 3936.62) rotate(-87.25)"/><circle class="cls-10" cx="769.87" cy="3319.39" r="29.47" transform="translate(-2582.6 3929.3) rotate(-87.25)"/><circle class="cls-10" cx="809.08" cy="3360.78" r="29.47" transform="translate(-2586.61 4007.86) rotate(-87.25)"/><circle class="cls-10" cx="593.45" cy="3348.8" r="29.47"/><circle class="cls-10" cx="662.06" cy="3385.82" r="29.47"/><circle class="cls-10" cx="761.16" cy="3385.82" r="29.47" transform="translate(-2657.25 3983.84) rotate(-87.25)"/><circle class="cls-10" cx="554.24" cy="3378.2" r="29.47"/><circle class="cls-10" cx="534.64" cy="3331.37" r="29.47"/><circle class="cls-10" cx="632.65" cy="3309.59" r="29.47"/></g><rect class="cls-11" x="146.26" y="7651.72" width="514.74" height="71.69"/><rect class="cls-11" x="213.2" y="7057.41" width="381.8" height="594"/><circle class="cls-7" cx="356.98" cy="7629.89" r="21.2"/><circle class="cls-7" cx="353.14" cy="7767.93" r="22.14"/><circle class="cls-7" cx="474.14" cy="7792.93" r="22.14"/><circle class="cls-7" cx="305.98" cy="7687.89" r="21.2"/><path class="cls-12" d="M306.93,7599.51a42.73,42.73,0,1,0-53.48,28.12l12.68-40.8Z"/><path class="cls-12" d="M387.91,7614.24a42.73,42.73,0,1,0-60.19,5.37l27.41-32.78Z"/><path class="cls-12" d="M474.86,7636.34a42.73,42.73,0,1,0-60.24-4.78l32.51-27.73Z"/><circle class="cls-7" cx="278.83" cy="7611.92" r="17.85"/><path class="cls-12" d="M499.33,7599.51a42.73,42.73,0,1,1,53.48,28.12l-12.68-40.8Z"/><circle class="cls-7" cx="527.44" cy="7611.92" r="17.85"/><path class="cls-12" d="M306.93,7502.51a42.73,42.73,0,1,0-53.48,28.12l12.68-40.8Z"/><path class="cls-12" d="M398.39,7513.85a42.73,42.73,0,1,0-57.28,19.24l19-38.26Z"/><path class="cls-12" d="M476.27,7528.63a42.73,42.73,0,1,0-59.94-7.66l33.8-26.14Z"/><circle class="cls-7" cx="283.83" cy="7521.92" r="17.85"/><path class="cls-12" d="M512,7522.11a42.73,42.73,0,1,1,60.28-4.24l-32.26-28Z"/><circle class="cls-7" cx="542.38" cy="7521.86" r="17.85" transform="translate(-3877.9 1411.73) rotate(-31.76)"/><path class="cls-12" d="M306.93,7408.51a42.73,42.73,0,1,0-53.48,28.12l12.68-40.8Z"/><path class="cls-12" d="M383,7418.23a42.73,42.73,0,1,0-60.26-4.54l32.4-27.86Z"/><path class="cls-12" d="M465.3,7425.77A42.73,42.73,0,1,0,410.19,7401l39.94-15.17Z"/><path class="cls-12" d="M499.33,7408.51a42.73,42.73,0,1,1,53.48,28.12l-12.68-40.8Z"/><circle class="cls-7" cx="517.44" cy="7439.92" r="17.85"/><path class="cls-12" d="M290.94,7327.33a42.73,42.73,0,1,0-60.24-4.72l32.48-27.76Z"/><path class="cls-12" d="M395.32,7316.33A42.73,42.73,0,1,0,340.63,7342l14.5-40.19Z"/><path class="cls-12" d="M471.1,7329.86a42.73,42.73,0,1,0-59-13.06l36-23Z"/><circle class="cls-7" cx="260.55" cy="7322.84" r="17.85" transform="translate(-6073.84 3639.45) rotate(-57.78)"/><path class="cls-12" d="M522.88,7330a42.73,42.73,0,1,1,58.94-13.31l-36.12-22.82Z"/><circle class="cls-7" cx="552.32" cy="7321.21" r="17.85" transform="translate(-4618.17 2108.61) rotate(-40.45)"/><circle class="cls-7" cx="542.32" cy="7241.21" r="17.85" transform="translate(-4568.66 2083) rotate(-40.45)"/><path class="cls-12" d="M293.94,7238.33a42.73,42.73,0,1,0-60.24-4.72l32.48-27.76Z"/><path class="cls-12" d="M376.27,7243A42.73,42.73,0,1,0,318,7227l37.13-21.14Z"/><path class="cls-12" d="M488.61,7211.84a42.73,42.73,0,1,0-53.36,28.36l12.5-40.86Z"/><circle class="cls-7" cx="348.55" cy="7234.84" r="17.85" transform="translate(-5958.3 3672.81) rotate(-57.78)"/><circle class="cls-7" cx="261.55" cy="7258.84" r="17.85" transform="translate(-6019.22 3610.41) rotate(-57.78)"/><circle class="cls-7" cx="366.55" cy="7133.84" r="17.85" transform="translate(-5864.44 3640.88) rotate(-57.78)"/><path class="cls-12" d="M511.39,7237.56a42.73,42.73,0,1,1,60.42,1l-29.72-30.7Z"/><circle class="cls-7" cx="462.81" cy="7224.78" r="17.85" transform="translate(-6380.05 4861.11) rotate(-67.28)"/><circle class="cls-7" cx="449.81" cy="7140.78" r="17.85" transform="translate(-6310.55 4797.57) rotate(-67.28)"/><path class="cls-12" d="M306.89,7126.76a42.73,42.73,0,1,0-51.25,32l9.61-41.63Z"/><path class="cls-12" d="M395.32,7120.33A42.73,42.73,0,1,0,340.63,7146l14.5-40.19Z"/><path class="cls-12" d="M480.48,7127.75a42.73,42.73,0,1,0-60.26,4.43l27.92-32.35Z"/><circle class="cls-7" cx="279.78" cy="7141.22" r="17.85" transform="translate(-530.35 40.59) rotate(-4.27)"/><path class="cls-12" d="M500.8,7132.19a42.73,42.73,0,1,1,55.14,24.71L540.73,7117Z"/><circle class="cls-7" cx="529.63" cy="7142.8" r="17.85" transform="translate(-447.36 47.34) rotate(-3.6)"/><circle class="cls-7" cx="283.98" cy="7446.89" r="21.2"/><circle class="cls-7" cx="444.98" cy="7666.89" r="21.2"/><circle class="cls-7" cx="433.98" cy="7418.89" r="21.2"/><circle class="cls-7" cx="444.98" cy="7347.89" r="21.2"/><circle class="cls-7" cx="369.98" cy="7337.89" r="21.2"/><circle class="cls-7" cx="345.98" cy="7434.89" r="21.2"/><circle class="cls-7" cx="375.98" cy="7535.89" r="21.2"/><circle class="cls-7" cx="446.98" cy="7533.89" r="21.2"/><rect class="cls-11" x="259.95" y="7902.82" width="283.36" height="341.88"/><circle class="cls-7" cx="379.49" cy="8212.7" r="22.14"/><circle class="cls-7" cx="301.89" cy="8184.99" r="22.14"/><circle class="cls-7" cx="330.89" cy="8201.13" r="22.14"/><circle class="cls-7" cx="357.34" cy="8181.13" r="22.14"/><circle class="cls-7" cx="415.03" cy="8206.85" r="22.14"/><circle class="cls-7" cx="419.18" cy="8168.7" r="22.14"/><circle class="cls-7" cx="464.03" cy="8206.85" r="22.14"/><circle class="cls-7" cx="452.03" cy="8184.85" r="22.14"/><circle class="cls-7" cx="496.03" cy="8190.85" r="22.14"/><circle class="cls-7" cx="474.03" cy="8162.85" r="22.14"/><circle class="cls-7" cx="508.32" cy="8153.13" r="22.14"/><circle class="cls-7" cx="473.89" cy="8073.76" r="22.14"/><circle class="cls-7" cx="459.03" cy="8140.85" r="22.14"/><circle class="cls-7" cx="419.18" cy="8143.85" r="22.14"/><circle class="cls-7" cx="382.37" cy="8153.13" r="22.14"/><circle class="cls-7" cx="324.03" cy="8156.85" r="22.14"/><circle class="cls-7" cx="299.03" cy="8136.85" r="22.14"/><circle class="cls-7" cx="343.03" cy="8124.85" r="22.14"/><circle class="cls-7" cx="393.03" cy="8113.85" r="22.14"/><circle class="cls-7" cx="496.03" cy="8113.85" r="22.14"/><circle class="cls-7" cx="452.03" cy="8108.85" r="22.14"/><circle class="cls-7" cx="430.03" cy="8089.85" r="22.14"/><circle class="cls-7" cx="386.03" cy="8080.85" r="22.14"/><circle class="cls-7" cx="353.03" cy="8089.85" r="22.14"/><circle class="cls-7" cx="305.03" cy="8096.85" r="22.14"/><circle class="cls-7" cx="327.03" cy="8006.85" r="22.14"/><circle class="cls-7" cx="496.03" cy="7982.85" r="22.14"/><rect class="cls-11" x="241.09" y="7857.63" width="321.09" height="45.19"/><circle class="cls-7" cx="402.03" cy="7891.85" r="22.14"/><rect class="cls-11" x="146.26" y="6985.72" width="514.74" height="71.69"/><text class="cls-13" transform="translate(374.41 427.27)">REMINE</text><rect class="cls-12" x="377.49" y="405.84" width="65.34" height="19"/><rect class="cls-12" x="499.99" y="405.84" width="65.34" height="19"/><rect class="cls-12" x="778.49" y="405.84" width="65.34" height="19"/><rect class="cls-12" x="963.49" y="405.84" width="65.34" height="19"/><rect class="cls-12" x="1048.49" y="405.84" width="65.34" height="19"/><rect class="cls-12" x="1134.49" y="405.84" width="65.34" height="19"/><rect class="cls-12" x="1273.49" y="209.88" width="65.34" height="19"/><rect class="cls-12" x="1048.49" y="264.72" width="65.34" height="19"/><rect class="cls-4" x="1048.49" y="206.72" width="65.34" height="58.55"/><rect class="cls-12" x="713.99" y="224.05" width="65.34" height="19" transform="translate(513.11 980.21) rotate(-90)"/><rect class="cls-12" x="713.99" y="392.84" width="65.34" height="19" transform="translate(344.32 1149.01) rotate(-90)"/><rect class="cls-12" x="683.99" y="307.22" width="65.34" height="19" transform="translate(399.95 1033.38) rotate(-90)"/><rect class="cls-12" x="1495.99" y="224.05" width="65.34" height="19" transform="translate(1295.11 1762.21) rotate(-90)"/><rect class="cls-12" x="1495.99" y="392.84" width="65.34" height="19" transform="translate(1126.32 1931.01) rotate(-90)"/><rect class="cls-12" x="1465.99" y="307.22" width="65.34" height="19" transform="translate(1181.95 1815.38) rotate(-90)"/><circle class="cls-7" cx="1081.16" cy="230.98" r="19.71"/><circle class="cls-7" cx="1081.16" cy="230.98" r="19.71"/><rect class="cls-5" x="434.03" y="1219.48" width="20.34" height="98.04"/><rect class="cls-5" x="676.19" y="1219.97" width="20.34" height="178.29"/><rect class="cls-5" x="1071.62" y="1216.38" width="20.34" height="48.51"/><rect class="cls-5" x="1281.24" y="1219.48" width="20.34" height="114.34"/><rect class="cls-5" x="702.99" y="1277.43" width="78.38" height="20.34"/><rect class="cls-5" x="241.31" y="1219" width="20.34" height="54.67" rx="0.08" ry="0.08"/><rect class="cls-5" x="343.2" y="1440.48" width="128.54" height="20.34"/><rect class="cls-5" x="495.36" y="1353.94" width="185.78" height="20.34"/><rect class="cls-5" x="828.75" y="1344.26" width="20.34" height="210.66"/><rect class="cls-5" x="278" y="1502.14" width="20.34" height="61.08"/><rect class="cls-5" x="737.96" y="1439.05" width="185.12" height="20.34"/><rect class="cls-5" x="727.79" y="1418.02" width="20.34" height="69.96"/><rect class="cls-5" x="1038.47" y="1360.46" width="78.21" height="20.34"/><rect class="cls-5" x="1163.74" y="1421.18" width="20.34" height="134.82"/><rect class="cls-5" x="641.47" y="1519.01" width="44.88" height="20.34"/><rect class="cls-5" x="1119.91" y="1293.69" width="342.41" height="20.34"/><rect class="cls-5" x="1506.12" y="1353.54" width="20.34" height="134.79"/><rect class="cls-5" x="1688.66" y="1219.02" width="20.34" height="167.5"/><rect class="cls-5" x="1094.56" y="1428.88" width="549.65" height="20.34"/><rect class="cls-5" x="1403.3" y="1439.05" width="20.34" height="92.33"/><rect class="cls-5" x="1028.11" y="1491.79" width="20.34" height="42.03"/><rect class="cls-5" x="1575.84" y="1513.49" width="30" height="20.34"/><path class="cls-5" d="M1119.63,1293.69H1147l-.14,20.34-27.22-.06c-26.52,0-48-19-48-44.82v-26.62H1092v26.8C1092,1282.93,1105.21,1293.69,1119.63,1293.69Z"/><path class="cls-5" d="M1329.24,1372.86h27.38v20.23l-27.36.05c-26.52,0-48-19-48-44.82v-26.62h20.34v26.8C1301.58,1362.1,1314.83,1372.86,1329.24,1372.86Z"/><path class="cls-5" d="M1554.13,1513.43h27.38l0,20.34-27.38-.06c-26.52,0-48-19-48-44.82v-26.62h20.34v26.8C1526.46,1502.66,1539.72,1513.43,1554.13,1513.43Z"/><path class="cls-5" d="M724.19,1439h27.38l0,20.35-27.39-.07c-26.52,0-48-19-48-44.82v-26.62h20.34v26.8C696.53,1428.28,709.78,1439,724.19,1439Z"/><path class="cls-5" d="M683.45,1277.43h27.38l0,20.34-27.37-.06c-26.52,0-48-19-48-44.82V1220h20.34v33.1C655.79,1266.67,669,1277.43,683.45,1277.43Z"/><path class="cls-5" d="M482,1353.95h27.38l0,20.34-27.37-.06c-26.52,0-48-19-48-44.82v-26.62h20.34v26.8C454.37,1343.18,467.62,1353.95,482,1353.95Z"/><rect class="cls-5" x="303.2" y="1311.14" width="166.38" height="20.34"/><rect class="cls-5" x="517.3" y="1376.05" width="20.34" height="21.39"/><path class="cls-5" d="M289.31,1311.21h27.38l0,20.34-27.37-.06c-26.52,0-48-19-48-44.82v-26.62h20.34v26.8C261.65,1300.45,274.9,1311.21,289.31,1311.21Z"/><path class="cls-5" d="M489.59,1440.49H462.21l0,20.34,27.37-.06c26.52,0,48-19,48-44.82v-26.62H517.26v26.8C517.26,1429.72,504,1440.49,489.59,1440.49Z"/><path class="cls-5" d="M700.12,1519H672.74l0,20.34,27.37-.06c26.52,0,48-19,48-44.82v-26.62H727.79v26.8C727.79,1508.25,714.54,1519,700.12,1519Z"/><path class="cls-5" d="M1661,1428.88h-27.38l0,20.34,27.37-.06c26.52,0,48-19,48-44.82v-26.62h-20.34v26.8C1688.69,1418.12,1675.44,1428.88,1661,1428.88Z"/><path class="cls-5" d="M1478.52,1314.17h-27.38l0-20.34,27.37.06c26.52,0,48,19,48,44.82v26.62h-20.34v-26.8C1506.18,1324.94,1492.93,1314.17,1478.52,1314.17Z"/><path class="cls-5" d="M1628.3,1533.82h-27.38l0-20.34,27.37.06c26.52,0,48,19,48,44.82V1585H1656v-26.8C1656,1544.59,1642.71,1533.82,1628.3,1533.82Z"/><path class="cls-5" d="M1375.65,1393.2h-27.38l0-20.34,27.37.06c26.52,0,48,19,48,44.82v26.62h-20.34v-26.8C1403.32,1404,1390.06,1393.2,1375.65,1393.2Z"/><path class="cls-5" d="M1136,1380.8h-27.38l0-20.34,27.37.06c26.52,0,48,19,48,44.82V1432h-20.34v-26.8C1163.66,1391.56,1150.4,1380.8,1136,1380.8Z"/><path class="cls-5" d="M801.09,1297.88H773.7l0-20.34,27.37.06c26.52,0,48,19,48,44.82V1349H828.75v-26.8C828.75,1308.64,815.5,1297.88,801.09,1297.88Z"/><path class="cls-5" d="M700.12,1374.28H672.74l0-20.34,27.37.06c26.52,0,48,19,48,44.82v26.62H727.79v-26.8C727.79,1385,714.54,1374.28,700.12,1374.28Z"/><path class="cls-5" d="M489.59,1331.48H462.21l0-20.34,27.37.06c26.52,0,48,19,48,44.82v26.62H517.26v-26.8C517.26,1342.24,504,1331.48,489.59,1331.48Z"/><path class="cls-5" d="M990.28,1404.25c0-13.6,13.25-23.45,27.66-23.45h27.38l0-20.34-27.37.06c-26.52,0-48,19-48,44.82Z"/><path class="cls-5" d="M1076.11,1449.22h27.38l0-20.34-27.37.06c-26.52,0-48,19-48,44.82v26.62h20.34v-26.8C1048.44,1460,1061.7,1449.22,1076.11,1449.22Z"/><path class="cls-5" d="M970,1415.6c0,13.6-13.25,23.45-27.66,23.45H915l0,20.34,27.37-.06c26.52,0,48-19,48-44.82Z"/><path class="cls-5" d="M624.25,1539.35h27.38l0-20.34-27.37.06c-26.52,0-48,19-48,44.82v26.62h20.34v-26.8C596.59,1550.12,609.84,1539.35,624.25,1539.35Z"/><path class="cls-5" d="M326,1460.87h27.38l0-20.34-27.37.06c-26.52,0-48,19-48,44.82V1512h20.34v-26.8C298.34,1471.63,311.6,1460.87,326,1460.87Z"/><rect class="cls-5" x="969.94" y="1402.41" width="20.34" height="15.51"/><path class="cls-5" d="M321.34,1585.41c3.69-1,5-4.72,2.51-9.11-4.15-4.74-8.75-5.83-16.68-4.76C320,1575.86,313.89,1584.42,321.34,1585.41Z"/><rect class="cls-12" x="292.93" y="1305.35" width="8.48" height="33.19"/><rect class="cls-12" x="334.59" y="1434.06" width="8.48" height="33.19"/><rect class="cls-12" x="474.88" y="1304.72" width="8.48" height="33.19"/><rect class="cls-12" x="658.23" y="1347.52" width="8.48" height="33.19"/><rect class="cls-12" x="633.35" y="1513.49" width="8.48" height="33.19"/><rect class="cls-12" x="783.13" y="1272.1" width="8.48" height="33.19"/><rect class="cls-12" x="929.24" y="1433.91" width="8.48" height="33.19"/><rect class="cls-12" x="1366.61" y="1367.12" width="8.48" height="33.19"/><rect class="cls-12" x="1090.76" y="1422.46" width="8.48" height="33.19"/><rect class="cls-12" x="1451.35" y="1288.12" width="8.48" height="33.19"/><rect class="cls-12" x="1641.67" y="1423.13" width="8.48" height="33.19"/><rect class="cls-12" x="1618.82" y="1507.06" width="8.48" height="33.19"/><rect class="cls-12" x="1550.54" y="1507.06" width="8.48" height="33.19"/><rect class="cls-12" x="1274.1" y="1333.88" width="33.19" height="8.48"/><rect class="cls-12" x="1065.01" y="1247.7" width="33.19" height="8.48"/><rect class="cls-12" x="1124.06" y="1287.99" width="8.48" height="33.19"/><rect class="cls-12" x="1014.33" y="1354.28" width="8.48" height="33.19"/><rect class="cls-12" x="962.48" y="1410.27" width="33.19" height="8.48"/><rect class="cls-12" x="822.33" y="1327.96" width="33.19" height="8.48"/><rect class="cls-12" x="721.37" y="1486.41" width="33.19" height="8.48"/><rect class="cls-12" x="271.51" y="1559.04" width="33.19" height="8.48"/><rect class="cls-12" x="569.87" y="1586.27" width="33.19" height="8.48"/><rect class="cls-12" x="822.33" y="1550.68" width="33.19" height="8.48"/><rect class="cls-12" x="1021.68" y="1529.91" width="33.19" height="8.48"/><rect class="cls-12" x="1157.32" y="1551.76" width="33.19" height="8.48"/><rect class="cls-12" x="1397.09" y="1527.14" width="33.19" height="8.48"/><rect class="cls-12" x="1649.23" y="1580.74" width="33.19" height="8.48"/><rect class="cls-12" x="427.61" y="1236.31" width="33.19" height="8.48"/><rect class="cls-12" x="1682.24" y="1363.51" width="33.19" height="8.48"/><rect class="cls-12" x="629.03" y="1236.8" width="33.19" height="8.48"/><polygon class="cls-14" points="1125.32 1073.54 1410.74 853.38 1464.42 853.31 1464.51 816.04 1381.82 816.36 1125.32 1012.48 1125.32 1073.54"/><line class="cls-14" x1="1410.74" y1="853.38" x2="1410.74" y2="816.04"/><line class="cls-14" x1="1381.82" y1="816.36" x2="1408.58" y2="853.38"/><line class="cls-14" x1="1329.04" y1="856.71" x2="1357.03" y2="895.43"/><line class="cls-14" x1="1356.17" y1="836.86" x2="1355.79" y2="893.72"/><line class="cls-14" x1="1356.17" y1="837.42" x2="1408.58" y2="853.38"/><line class="cls-14" x1="1276.18" y1="897.13" x2="1304.09" y2="935.74"/><line class="cls-14" x1="1303.23" y1="877.17" x2="1302.85" y2="934.03"/><line class="cls-14" x1="1303.23" y1="877.73" x2="1355.64" y2="893.69"/><line class="cls-14" x1="1223.35" y1="937.52" x2="1251.1" y2="975.91"/><line class="cls-14" x1="1250.24" y1="917.34" x2="1249.86" y2="974.2"/><line class="cls-14" x1="1250.24" y1="917.9" x2="1302.65" y2="933.86"/><line class="cls-14" x1="1170.47" y1="977.95" x2="1198.5" y2="1016.72"/><line class="cls-14" x1="1197.64" y1="958.15" x2="1197.26" y2="1015.01"/><line class="cls-14" x1="1197.64" y1="958.71" x2="1250.05" y2="974.67"/><line class="cls-14" x1="1145.04" y1="999.72" x2="1144.66" y2="1056.57"/><line class="cls-14" x1="1145.04" y1="1000.27" x2="1197.45" y2="1016.23"/><line class="cls-14" x1="1437.52" y1="817.73" x2="1412.39" y2="852.01"/><line class="cls-14" x1="1437.27" y1="818.07" x2="1462.87" y2="851.8"/><line class="cls-14" x1="1125.32" y1="1030.24" x2="1144.85" y2="1057.25"/><rect class="cls-5" x="444.2" y="891.15" width="169.42" height="328.32"/><rect class="cls-5" x="322.66" y="1031.07" width="136.27" height="188.4"/><rect class="cls-5" x="634.39" y="939.98" width="207.57" height="279.5"/><rect class="cls-5" x="788.56" y="896.64" width="71.82" height="322.83"/><rect class="cls-5" x="847.49" y="1033.49" width="82.87" height="185.99"/><rect class="cls-5" x="922.99" y="886.17" width="200.72" height="333.31"/><rect class="cls-5" x="1123.71" y="1040.85" width="147.32" height="178.62"/><rect class="cls-5" x="1263.66" y="1094.26" width="99.44" height="125.22"/><rect class="cls-5" x="1439.63" y="852.29" width="126.87" height="367.18"/><rect class="cls-5" x="1524.67" y="932.21" width="222.99" height="287.27"/><rect class="cls-5" x="273.33" y="816.31" width="51.3" height="14.89"/><path class="cls-5" d="M296.18,793.57c-.38-2.63-2.16-7.81-10.54-3.18-2.34,1.39-5.79-1.36-6.87-4.07-1.38,2.8-5.54,5.44-7,3.84-6.36,6.44-14.12-2.68-11.48-8.55-3.75,3.6-7.84-1-5.38-2.2-1.74-.67-6.28-3.82-4.31-7.57,4.38-7.13,13.12-.81,13.12-.81,5.67-6.26,8.39-.07,8.39-.07,10.31-9.25,11.74,4.92,11.74,4.92,5.21-3.5,7.32,7.07,7.32,7.07C297.6,785.29,296.62,790.73,296.18,793.57Z"/><path class="cls-12" d="M1071.91,796.33c-.35-2.46-2-7.31-9.86-3-2.19,1.3-5.42-1.27-6.43-3.8-1.29,2.62-5.19,5.09-6.52,3.59-6,6-13.21-2.51-10.74-8-3.51,3.37-7.33-.91-5-2.06-1.62-.63-5.88-3.58-4-7.08,4.1-6.67,12.28-.76,12.28-.76,5.31-5.86,7.85-.06,7.85-.06,9.65-8.66,11,4.6,11,4.6,4.87-3.28,6.85,6.62,6.85,6.62C1073.23,788.58,1072.32,793.67,1071.91,796.33Z"/><path class="cls-12" d="M1380.84,951.82c-.34-2.33-1.92-6.93-9.34-2.82-2.08,1.23-5.14-1.2-6.09-3.6-1.22,2.48-4.92,4.82-6.18,3.4-5.64,5.71-12.52-2.38-10.18-7.58-3.33,3.19-6.95-.87-4.77-1.95-1.54-.59-5.57-3.39-3.82-6.71,3.88-6.32,11.63-.72,11.63-.72,5-5.55,7.44-.06,7.44-.06,9.14-8.2,10.41,4.36,10.41,4.36,4.62-3.1,6.49,6.27,6.49,6.27C1382.09,944.48,1381.22,949.3,1380.84,951.82Z"/><path class="cls-12" d="M1405.92,948.18c-.2-1.42-1.17-4.21-5.68-1.72-1.26.75-3.12-.73-3.7-2.19-.74,1.51-3,2.93-3.75,2.07-3.43,3.47-7.61-1.44-6.18-4.6-2,1.94-4.22-.53-2.9-1.18-.94-.36-3.39-2.06-2.32-4.08,2.36-3.84,7.07-.44,7.07-.44,3.06-3.37,4.52,0,4.52,0,5.56-5,6.33,2.65,6.33,2.65,2.81-1.89,3.94,3.81,3.94,3.81C1406.68,943.72,1406.16,946.65,1405.92,948.18Z"/><path class="cls-12" d="M1037.9,767.86c-.25-1.31-1.28-3.91-5.67-1.76-1.22.65-3.11-.77-3.73-2.13-.69,1.37-2.86,2.61-3.65,1.79-3.29,3.09-7.57-1.57-6.26-4.43-1.94,1.72-4.19-.61-2.91-1.18-.94-.36-3.41-2-2.42-3.83,2.22-3.47,7-.19,7-.19,2.92-3,4.47.11,4.47.11,5.34-4.42,6.34,2.64,6.34,2.64,2.72-1.65,4,3.63,4,3.63C1038.52,763.77,1038.09,766.45,1037.9,767.86Z"/><path class="cls-5" d="M255.47,1219.1H176.06c7.89-171.81,15.36-325,28.29-449.68l26.54-.11C242.59,891.9,249.56,1051.43,255.47,1219.1Z"/><rect class="cls-5" x="191.43" y="779.44" width="51.3" height="14.89"/><path class="cls-5" d="M214.56,760.8c-.64-4.43-3.64-13.16-17.75-5.36-3.94,2.34-9.76-2.28-11.58-6.85-2.32,4.72-9.34,9.16-11.73,6.46-10.72,10.84-23.78-4.52-19.34-14.39-6.32,6.06-13.2-1.64-9.07-3.7-2.92-1.13-10.59-6.44-7.25-12.74,7.38-12,22.1-1.37,22.1-1.37,9.55-10.55,14.14-.11,14.14-.11,17.37-15.58,19.78,8.29,19.78,8.29,8.77-5.9,12.33,11.91,12.33,11.91C216.94,746.84,215.29,756,214.56,760.8Z"/><path class="cls-5" d="M259.65,1219.48c7.3-157,14.6-297.37,26.6-413.19l26.54-.11c10.84,113.57,17.62,258.84,23.26,412.93Z"/><rect class="cls-11" x="478.51" y="918.38" width="98.26" height="21.59"/><polygon class="cls-5" points="1788.05 1218.71 1624.42 1218.71 1624.42 1079.82 1673.72 1030.33 1788.05 1030.33 1788.05 1218.71"/><rect class="cls-5" x="1160.41" y="1008.02" width="32.62" height="142.58"/><rect class="cls-5" x="1220.29" y="1008.02" width="32.62" height="142.58"/><rect class="cls-5" x="1152.34" y="1008.02" width="47.18" height="9.65"/><rect class="cls-5" x="1213.01" y="1008.02" width="47.18" height="9.65"/><rect class="cls-5" x="131.66" y="1108.67" width="86.55" height="110.8"/><rect class="cls-12" x="616.93" y="1092.02" width="347.62" height="127.46"/><rect class="cls-12" x="952.2" y="823.66" width="155.4" height="168.27"/><rect class="cls-12" x="902.75" y="961.5" width="234.5" height="257.98"/><rect class="cls-12" x="1123.71" y="1143.06" width="178.59" height="76.42"/><rect class="cls-12" x="576.77" y="970.83" width="90.01" height="248.65"/><rect class="cls-12" x="209.64" y="961.16" width="97.95" height="258.32"/><rect class="cls-12" x="277.91" y="1052.59" width="247.32" height="166.89"/><rect class="cls-12" x="700.76" y="1075.84" width="30.18" height="144.13"/><rect class="cls-12" x="783.13" y="1075.84" width="30.18" height="144.13"/><rect class="cls-12" x="370.76" y="1020.73" width="63.06" height="50.06"/><rect class="cls-12" x="1059.72" y="802.47" width="14.18" height="26.21"/><rect class="cls-12" x="1081.79" y="802.47" width="14.18" height="26.21"/><rect class="cls-12" x="1358.31" y="967.11" width="220.86" height="252.37"/><rect class="cls-12" x="1486.98" y="1075.84" width="301.07" height="143.64"/><rect class="cls-12" x="1374.04" y="952.8" width="14.18" height="26.21"/><rect class="cls-12" x="1399.98" y="952.8" width="14.18" height="26.21"/><rect class="cls-12" x="366.54" y="1016.29" width="71.32" height="4.44"/><rect class="cls-12" x="304.37" y="1052.82" width="229.28" height="8.71"/><rect class="cls-11" x="937.12" y="1017.67" width="18.29" height="41.83"/><rect class="cls-11" x="960.44" y="1017.67" width="18.29" height="41.83"/><rect class="cls-11" x="993.13" y="1017.67" width="18.29" height="41.83"/><rect class="cls-11" x="1016.45" y="1017.67" width="18.29" height="41.83"/><rect class="cls-11" x="1049.14" y="1017.67" width="18.29" height="41.83"/><rect class="cls-11" x="1072.46" y="1017.67" width="18.29" height="41.83"/><rect class="cls-11" x="937.12" y="1076.65" width="18.29" height="41.83"/><rect class="cls-11" x="960.44" y="1076.65" width="18.29" height="41.83"/><rect class="cls-11" x="992.56" y="1076.65" width="18.29" height="41.83"/><rect class="cls-11" x="1015.88" y="1076.65" width="18.29" height="41.83"/><rect class="cls-11" x="1049.14" y="1076.65" width="18.29" height="41.83"/><rect class="cls-11" x="1072.46" y="1076.65" width="18.29" height="41.83"/><rect class="cls-11" x="937.45" y="1135.62" width="18.29" height="41.83"/><rect class="cls-11" x="960.77" y="1135.62" width="18.29" height="41.83"/><rect class="cls-11" x="992.56" y="1135.62" width="18.29" height="41.83"/><rect class="cls-11" x="1015.88" y="1135.62" width="18.29" height="41.83"/><rect class="cls-11" x="1049.14" y="1135.62" width="18.29" height="41.83"/><rect class="cls-11" x="1072.46" y="1135.62" width="18.29" height="41.83"/><rect class="cls-11" x="599.34" y="1001.27" width="17.5" height="21.58"/><rect class="cls-11" x="625.64" y="1001.27" width="17.5" height="21.58"/><rect class="cls-11" x="599.34" y="1035.64" width="17.5" height="21.58"/><rect class="cls-11" x="625.64" y="1035.64" width="17.5" height="21.58"/><rect class="cls-11" x="599.34" y="1069.36" width="17.5" height="21.58"/><rect class="cls-11" x="625.64" y="1069.36" width="17.5" height="21.58"/><rect class="cls-11" x="599.34" y="1101.62" width="17.5" height="21.58"/><rect class="cls-11" x="625.64" y="1101.62" width="17.5" height="21.58"/><rect class="cls-11" x="599.88" y="1133.45" width="17.5" height="21.58"/><rect class="cls-11" x="626.17" y="1133.45" width="17.5" height="21.58"/><rect class="cls-11" x="599.88" y="1165.28" width="17.5" height="21.58"/><rect class="cls-11" x="626.17" y="1165.28" width="17.5" height="21.58"/><polygon class="cls-11" points="1276.93 1219.48 1272.86 1219.48 1272.56 1171.01 1154.22 1171.01 1154.22 1219.48 1150.19 1219.48 1150.19 1166.84 1276.93 1166.84 1276.93 1219.48"/><rect class="cls-11" x="1181.6" y="1185.44" width="30.09" height="34.04"/><rect class="cls-11" x="1217.03" y="1185.44" width="30.09" height="34.04"/><rect class="cls-11" x="980.17" y="843.22" width="98.67" height="10.98"/><rect class="cls-11" x="980.17" y="867.19" width="98.67" height="10.98"/><rect class="cls-11" x="980.17" y="891.15" width="98.67" height="10.98"/><rect class="cls-11" x="980.17" y="915.47" width="98.67" height="10.98"/><rect class="cls-11" x="980.25" y="939.98" width="98.67" height="10.98"/><rect class="cls-11" x="732.87" y="1109.39" width="19.05" height="10.55"/><rect class="cls-11" x="758" y="1109.39" width="19.05" height="10.55"/><rect class="cls-11" x="732.87" y="1125.62" width="19.05" height="10.55"/><rect class="cls-11" x="758" y="1125.62" width="19.05" height="10.55"/><rect class="cls-11" x="732.87" y="1141.84" width="19.05" height="10.55"/><rect class="cls-11" x="758" y="1141.64" width="19.05" height="10.55"/><rect class="cls-11" x="732.87" y="1157.66" width="19.05" height="10.55"/><rect class="cls-11" x="758" y="1157.66" width="19.05" height="10.55"/><rect class="cls-11" x="732.87" y="1173.47" width="19.05" height="10.55"/><rect class="cls-11" x="758" y="1173.68" width="19.05" height="10.55"/><rect class="cls-11" x="732.87" y="1189.29" width="19.05" height="10.55"/><rect class="cls-11" x="758" y="1189.29" width="19.05" height="10.55"/><rect class="cls-11" x="819.15" y="1126.04" width="19.05" height="10.55"/><rect class="cls-11" x="844.28" y="1126.04" width="19.05" height="10.55"/><rect class="cls-11" x="819.15" y="1173.89" width="19.05" height="10.55"/><rect class="cls-11" x="844.28" y="1174.1" width="19.05" height="10.55"/><rect class="cls-11" x="868.43" y="1126.04" width="19.05" height="10.55"/><rect class="cls-11" x="868.43" y="1173.89" width="19.05" height="10.55"/><rect class="cls-11" x="1598.82" y="1106.07" width="32.86" height="11.01"/><rect class="cls-11" x="1642.16" y="1106.07" width="32.86" height="11.01"/><rect class="cls-11" x="1598.82" y="1128.99" width="32.86" height="11.01"/><rect class="cls-11" x="1642.16" y="1128.99" width="32.86" height="11.01"/><rect class="cls-11" x="1685.15" y="1105.74" width="32.86" height="11.01"/><rect class="cls-11" x="1728.49" y="1105.74" width="32.86" height="11.01"/><rect class="cls-11" x="1685.15" y="1128.67" width="32.86" height="11.01"/><rect class="cls-11" x="1728.49" y="1128.67" width="32.86" height="11.01"/><rect class="cls-11" x="1398.28" y="1017.67" width="25.32" height="25.32"/><rect class="cls-11" x="1438.41" y="1017.67" width="25.32" height="25.32"/><rect class="cls-11" x="1478.32" y="1017.67" width="25.32" height="25.32"/><rect class="cls-11" x="1518.22" y="1017.67" width="25.32" height="25.32"/><rect class="cls-11" x="1398.28" y="1079.32" width="25.32" height="25.32"/><rect class="cls-11" x="1438.41" y="1079.32" width="25.32" height="25.32"/><rect class="cls-11" x="1478.32" y="1079.32" width="25.32" height="25.32"/><rect class="cls-11" x="1518.22" y="1079.32" width="25.32" height="25.32"/><rect class="cls-11" x="1398.28" y="1142.13" width="25.32" height="25.32"/><rect class="cls-11" x="1438.41" y="1142.13" width="25.32" height="25.32"/><rect class="cls-11" x="1478.32" y="1142.13" width="25.32" height="25.32"/><rect class="cls-11" x="1518.22" y="1142.13" width="25.32" height="25.32"/><rect class="cls-11" x="385.25" y="1083.8" width="14.07" height="105.14"/><rect class="cls-11" x="308.97" y="1083.65" width="11.97" height="11.97"/><rect class="cls-11" x="331.39" y="1083.65" width="11.97" height="11.97"/><rect class="cls-11" x="354.03" y="1083.65" width="11.97" height="11.97"/><rect class="cls-11" x="308.97" y="1120.95" width="11.97" height="11.97"/><rect class="cls-11" x="331.39" y="1120.95" width="11.97" height="11.97"/><rect class="cls-11" x="354.03" y="1120.95" width="11.97" height="11.97"/><rect class="cls-11" x="308.97" y="1158.21" width="11.97" height="11.97"/><rect class="cls-11" x="331.39" y="1158.21" width="11.97" height="11.97"/><rect class="cls-11" x="354.03" y="1158.21" width="11.97" height="11.97"/><rect class="cls-11" x="407.51" y="1083.44" width="14.07" height="105.14"/><rect class="cls-11" x="440.49" y="1083.44" width="11.97" height="11.97"/><rect class="cls-11" x="462.92" y="1083.44" width="11.97" height="11.97"/><rect class="cls-11" x="485.56" y="1083.44" width="11.97" height="11.97"/><rect class="cls-11" x="440.49" y="1120.74" width="11.97" height="11.97"/><rect class="cls-11" x="462.92" y="1120.74" width="11.97" height="11.97"/><rect class="cls-11" x="485.56" y="1120.74" width="11.97" height="11.97"/><rect class="cls-11" x="440.49" y="1158" width="11.97" height="11.97"/><rect class="cls-11" x="462.92" y="1158" width="11.97" height="11.97"/><rect class="cls-11" x="485.56" y="1158" width="11.97" height="11.97"/><rect class="cls-11" x="383.37" y="1027.85" width="36.39" height="20.78"/><path class="cls-11" d="M1646.93,1047.33l2.22-2.19q7.87-7.86,15.74-15.72a1.32,1.32,0,0,1,.83-.35c2.29,0,4.57,0,6.86,0a.76.76,0,0,1,.73.4,12.17,12.17,0,0,0,9.12,5.66,12.35,12.35,0,1,0-9-19.12,1.22,1.22,0,0,1-1.17.61c-4.07,0-8.14,0-12.2,0a2.2,2.2,0,0,0-1.73.73q-13.46,13.5-26.95,27a4.84,4.84,0,0,0-.39.51,17.17,17.17,0,0,1-3.76-3,18.28,18.28,0,0,1-4.85-9.52,14,14,0,0,1-.26-2.46c0-17-.05-34,0-51a17.11,17.11,0,0,1,4.66-11.5,18.22,18.22,0,0,1,10.49-5.86c1-.2,2.1-.21,3.23-.32v.68c0,4.25,0,8.5,0,12.74a.85.85,0,0,1-.44.83,12.21,12.21,0,0,0-5.69,9.33,12.38,12.38,0,0,0,22.78,7.69,1,1,0,0,1,.68-.37c4.9,0,9.79,0,14.69,0a.84.84,0,0,1,.77.45,12,12,0,0,0,11.62,5.61,11.74,11.74,0,0,0,9.64-6.43,12.34,12.34,0,0,0-21.29-12.47.85.85,0,0,1-.83.44q-7.24,0-14.47,0a.84.84,0,0,1-.83-.43,11.78,11.78,0,0,0-3.82-3.82.77.77,0,0,1-.4-.75q0-6.43,0-12.85c0-.43.11-.59.57-.59,12.42,0,24.84-.05,37.26,0a17.1,17.1,0,0,1,11.44,4.66,18.08,18.08,0,0,1,5.76,10,16.13,16.13,0,0,1,.36,3.26q0,25.08,0,50.17a17.59,17.59,0,0,1-4.68,11.93,18.44,18.44,0,0,1-13.64,6.15q-21.2,0-42.39,0H1647Z"/><path class="cls-11" d="M1652.85,985.85a6.12,6.12,0,1,1-6-6.16A6.1,6.1,0,0,1,1652.85,985.85Z"/><path class="cls-11" d="M1677.64,985.8a6.05,6.05,0,0,1,6.18-6.11,6.13,6.13,0,1,1-.2,12.26A6.07,6.07,0,0,1,1677.64,985.8Z"/><path class="cls-11" d="M1677.64,1022.84a6.11,6.11,0,0,1,6.2-6.14,6.12,6.12,0,0,1-.18,12.24A6,6,0,0,1,1677.64,1022.84Z"/><path class="cls-11" d="M259.64,1037.33H243c-3.08,0-4.37-1.29-4.37-4.38q0-16.65,0-33.3c0-3.12,1.27-4.4,4.34-4.4h33.42c3,0,4.31,1.32,4.31,4.31q0,16.71,0,33.42c0,3-1.32,4.34-4.41,4.35Zm-.1-32.33c-2.9,0-5.8,0-8.7,0-1.9,0-2.46.52-2.46,2.37q0,8.88,0,17.77c0,1.9.53,2.43,2.4,2.43q8.82,0,17.64,0c2,0,2.52-.49,2.53-2.55q0-8.76,0-17.52c0-2-.51-2.48-2.46-2.5C265.5,1005,262.52,1005,259.54,1005Z"/><path class="cls-11" d="M261.19,988c0,1,0,2.09,0,3.14,0,.69-.22,1-.94,1a6.8,6.8,0,0,1-1.37,0c-.3-.09-.71-.47-.72-.73q-.08-3.39,0-6.78a1.41,1.41,0,0,1,1.51-1.5,1.45,1.45,0,0,1,1.47,1.56c0,1.13,0,2.26,0,3.39Z"/><path class="cls-11" d="M231.3,1014.76c1,0,2.09,0,3.14,0,.77,0,1.07.27,1,1a7.46,7.46,0,0,0,0,1.13c0,.62-.18.93-.85.92-2.22,0-4.44,0-6.65,0a1.49,1.49,0,1,1,0-3c1.13-.05,2.26,0,3.39,0Z"/><path class="cls-11" d="M288.07,1014.78c1.09,0,2.18,0,3.26,0a1.5,1.5,0,1,1,0,3c-2.18,0-4.35,0-6.53,0-.72,0-1-.28-.93-1a5.57,5.57,0,0,0,0-1c-.08-.8.22-1.15,1.06-1.1,1,.05,2.09,0,3.14,0Z"/><path class="cls-11" d="M261.17,1044.71c0,1.09,0,2.18,0,3.26a1.5,1.5,0,1,1-3,0c0-2.18,0-4.35,0-6.53,0-.62.19-1,.86-.91a5.68,5.68,0,0,1,1.37,0c.33.11.76.5.79.79.09,1.12,0,2.26,0,3.39Z"/><path class="cls-11" d="M288.05,1007.9h-3.27c-1.19,0-.89-.88-.89-1.53s-.26-1.54.91-1.54c2.14,0,4.28,0,6.42.05,1,0,1.76.48,1.72,1.59s-.79,1.39-1.73,1.39h-3.14Z"/><path class="cls-11" d="M231.32,1024.66c1,0,2.1,0,3.15,0s1,.78,1,1.47.3,1.63-1,1.61c-2.1,0-4.19,0-6.29-.05-1,0-1.78-.42-1.79-1.53s.79-1.46,1.79-1.47h3.14Z"/><path class="cls-11" d="M248.4,987.78c0-1,0-2.09,0-3.14,0-.89.42-1.59,1.39-1.63s1.53.69,1.56,1.6c.08,2.17.05,4.35.07,6.53,0,1.17-.87.91-1.53.9s-1.54.31-1.54-.88,0-2.26,0-3.39Z"/><path class="cls-11" d="M251.38,1044.55c0,1.09,0,2.18,0,3.26s-.47,1.77-1.57,1.73-1.39-.82-1.4-1.75c0-2.09,0-4.19-.06-6.28,0-1.24.82-1,1.55-1s1.59-.19,1.55,1c0,1,0,2,0,3Z"/><path class="cls-11" d="M271,987.93c0,.84,0,1.68,0,2.51.08,1.08-.1,1.7-1.45,1.67s-1.75-.28-1.67-1.61c.11-1.84,0-3.68.07-5.52,0-1,.32-1.92,1.49-1.95s1.49.88,1.51,1.89,0,2,0,3Z"/><path class="cls-11" d="M231.24,1007.85c-1.09,0-2.19,0-3.28,0a1.43,1.43,0,0,1-1.57-1.33,1.41,1.41,0,0,1,1.46-1.57c2.27-.11,4.54-.1,6.81-.07.26,0,.69.46.74.76.35,2,.1,2.27-1.89,2.27h-2.27Z"/><path class="cls-11" d="M288,1027.59h-3.26c-1.19,0-.88-.88-.89-1.53s-.26-1.54.9-1.53c2.18,0,4.35,0,6.53.06.91,0,1.65.52,1.61,1.56s-.73,1.36-1.62,1.39c-1.09,0-2.18,0-3.26,0Z"/><path class="cls-11" d="M270.9,1044.77c0,1.09,0,2.18,0,3.26a1.46,1.46,0,1,1-2.91.06q-.14-3.38-.06-6.78c0-1.24,1.09-.72,1.74-.8s1.31-.12,1.3.86c0,1.13,0,2.26,0,3.39Z"/><path class="cls-7" d="M1442,8255.11q0-31.35,0-62.69c0-5.74,2.12-10.36,7.48-12.88a15.24,15.24,0,0,1,6.18-1.34c12.91-.12,25.82-.08,38.73-.05,8,0,13.62,5.44,13.77,13.48.12,6.56,0,13.12,0,19.69q0,52.85,0,105.7a20.11,20.11,0,0,1-1,6.71c-2,5.49-6.63,8.52-12.55,8.54q-19.37,0-38.73,0c-8.22,0-13.8-5.55-13.88-13.82-.07-7.06,0-14.12,0-21.18Q1442,8276.19,1442,8255.11Zm33.21-38.4c-8.26,0-16.53,0-24.79,0-2,0-2.86.79-2.77,2.8.08,1.63,0,3.28,0,4.91,0,3,.36,3.34,3.31,3.34h34.83c4.7,0,9.4,0,14.1,0,1.87,0,2.77-.77,2.69-2.69s0-3.56,0-5.34c0-2.64-.35-3-3-3Q1487.37,8216.69,1475.19,8216.71Zm-.13-16.42v0h-1.5c-7.7,0-15.39,0-23.09.05-2.52,0-2.78.32-2.82,2.87,0,1.35,0,2.71,0,4.06,0,3.77.25,4,4,4,9.41,0,18.82,0,28.22,0,6.56,0,13.11,0,19.67,0,2.68,0,3.06-.43,3.07-3.14,0-1.57,0-3.14,0-4.7,0-2.78-.27-3-3.08-3Q1487.25,8200.27,1475.06,8200.29Zm-.08,120.85a10.92,10.92,0,1,0-10.89-11.05A10.89,10.89,0,0,0,1475,8321.14Z"/><path class="cls-11" d="M1475.19,8216.71q12.18,0,24.36,0c2.61,0,2.93.35,3,3,0,1.78,0,3.56,0,5.34s-.82,2.71-2.69,2.69c-4.7,0-9.4,0-14.1,0h-34.83c-2.95,0-3.32-.37-3.31-3.34,0-1.64.09-3.28,0-4.91-.09-2,.74-2.81,2.77-2.8C1458.67,8216.74,1466.93,8216.71,1475.19,8216.71Z"/><path class="cls-11" d="M1475.06,8200.29q12.19,0,24.38,0c2.81,0,3.06.27,3.08,3,0,1.57,0,3.14,0,4.7,0,2.71-.39,3.13-3.07,3.14-6.56,0-13.11,0-19.67,0-9.41,0-18.82,0-28.22,0-3.71,0-4-.19-4-4,0-1.35,0-2.71,0-4.06,0-2.54.3-2.85,2.82-2.87,7.7,0,15.39,0,23.09-.05h1.5Z"/><path class="cls-11" d="M1475,8321.14a10.92,10.92,0,1,1,11.11-10.84A10.88,10.88,0,0,1,1475,8321.14Z"/><path class="cls-7" d="M1310.26,8255.11q0-31.35,0-62.69c0-5.74,2.12-10.36,7.48-12.88a15.24,15.24,0,0,1,6.18-1.34c12.91-.12,25.82-.08,38.73-.05,8,0,13.62,5.44,13.77,13.48.12,6.56,0,13.12,0,19.69q0,52.85,0,105.7a20.11,20.11,0,0,1-1,6.71c-2,5.49-6.63,8.52-12.55,8.54q-19.37,0-38.73,0c-8.22,0-13.8-5.55-13.88-13.82-.07-7.06,0-14.12,0-21.18Q1310.26,8276.19,1310.26,8255.11Zm33.21-38.4c-8.26,0-16.53,0-24.79,0-2,0-2.86.79-2.77,2.8.08,1.63,0,3.28,0,4.91,0,3,.36,3.34,3.31,3.34H1354c4.7,0,9.4,0,14.1,0,1.87,0,2.77-.77,2.69-2.69s0-3.56,0-5.34c0-2.64-.35-3-3-3Q1355.65,8216.69,1343.47,8216.71Zm-.13-16.42v0h-1.5c-7.7,0-15.39,0-23.09.05-2.52,0-2.78.32-2.82,2.87,0,1.35,0,2.71,0,4.06,0,3.77.25,4,4,4,9.41,0,18.82,0,28.22,0,6.56,0,13.11,0,19.67,0,2.68,0,3.06-.43,3.07-3.14,0-1.57,0-3.14,0-4.7,0-2.78-.27-3-3.08-3Q1355.53,8200.27,1343.34,8200.29Zm-.08,120.85a10.92,10.92,0,1,0-10.89-11.05A10.89,10.89,0,0,0,1343.25,8321.14Z"/><path class="cls-11" d="M1343.47,8216.71q12.18,0,24.36,0c2.61,0,2.93.35,3,3,0,1.78,0,3.56,0,5.34s-.82,2.71-2.69,2.69c-4.7,0-9.4,0-14.1,0h-34.83c-2.95,0-3.32-.37-3.31-3.34,0-1.64.09-3.28,0-4.91-.09-2,.74-2.81,2.77-2.8C1326.95,8216.74,1335.21,8216.71,1343.47,8216.71Z"/><path class="cls-11" d="M1343.34,8200.29q12.19,0,24.38,0c2.81,0,3.06.27,3.08,3,0,1.57,0,3.14,0,4.7,0,2.71-.39,3.13-3.07,3.14-6.56,0-13.11,0-19.67,0-9.41,0-18.82,0-28.22,0-3.71,0-4-.19-4-4,0-1.35,0-2.71,0-4.06,0-2.54.3-2.85,2.82-2.87,7.7,0,15.39,0,23.09-.05h1.5Z"/><path class="cls-11" d="M1343.25,8321.14a10.92,10.92,0,1,1,11.11-10.84A10.88,10.88,0,0,1,1343.25,8321.14Z"/><path class="cls-7" d="M1573.71,8255.11q0-31.35,0-62.69c0-5.74,2.12-10.36,7.48-12.88a15.24,15.24,0,0,1,6.18-1.34c12.91-.12,25.82-.08,38.73-.05,8,0,13.62,5.44,13.77,13.48.12,6.56,0,13.12,0,19.69q0,52.85,0,105.7a20.11,20.11,0,0,1-1,6.71c-2,5.49-6.63,8.52-12.55,8.54q-19.37,0-38.73,0c-8.22,0-13.8-5.55-13.88-13.82-.07-7.06,0-14.12,0-21.18Q1573.7,8276.19,1573.71,8255.11Zm33.21-38.4c-8.26,0-16.53,0-24.79,0-2,0-2.86.79-2.77,2.8.08,1.63,0,3.28,0,4.91,0,3,.36,3.34,3.31,3.34h34.83c4.7,0,9.4,0,14.1,0,1.87,0,2.77-.77,2.69-2.69s0-3.56,0-5.34c0-2.64-.35-3-3-3Q1619.1,8216.69,1606.91,8216.71Zm-.13-16.42v0h-1.5c-7.7,0-15.39,0-23.09.05-2.52,0-2.78.32-2.82,2.87,0,1.35,0,2.71,0,4.06,0,3.77.25,4,4,4,9.41,0,18.82,0,28.22,0,6.56,0,13.11,0,19.67,0,2.68,0,3.06-.43,3.07-3.14,0-1.57,0-3.14,0-4.7,0-2.78-.27-3-3.08-3Q1619,8200.27,1606.78,8200.29Zm-.08,120.85a10.92,10.92,0,1,0-10.89-11.05A10.89,10.89,0,0,0,1606.7,8321.14Z"/><path class="cls-11" d="M1606.91,8216.71q12.18,0,24.36,0c2.61,0,2.93.35,3,3,0,1.78,0,3.56,0,5.34s-.82,2.71-2.69,2.69c-4.7,0-9.4,0-14.1,0h-34.83c-2.95,0-3.32-.37-3.31-3.34,0-1.64.09-3.28,0-4.91-.09-2,.74-2.81,2.77-2.8C1590.39,8216.74,1598.65,8216.71,1606.91,8216.71Z"/><path class="cls-11" d="M1606.78,8200.29q12.19,0,24.38,0c2.81,0,3.06.27,3.08,3,0,1.57,0,3.14,0,4.7,0,2.71-.39,3.13-3.07,3.14-6.56,0-13.11,0-19.67,0-9.41,0-18.82,0-28.22,0-3.71,0-4-.19-4-4,0-1.35,0-2.71,0-4.06,0-2.54.3-2.85,2.82-2.87,7.7,0,15.39,0,23.09-.05h1.5Z"/><path class="cls-11" d="M1606.7,8321.14a10.92,10.92,0,1,1,11.11-10.84A10.88,10.88,0,0,1,1606.7,8321.14Z"/><path class="cls-7" d="M1705.43,8255.11q0-31.35,0-62.69c0-5.74,2.12-10.36,7.48-12.88a15.24,15.24,0,0,1,6.18-1.34c12.91-.12,25.82-.08,38.73-.05,8,0,13.62,5.44,13.77,13.48.12,6.56,0,13.12,0,19.69q0,52.85,0,105.7a20.11,20.11,0,0,1-1,6.71c-2,5.49-6.63,8.52-12.55,8.54q-19.37,0-38.73,0c-8.22,0-13.8-5.55-13.88-13.82-.07-7.06,0-14.12,0-21.18Q1705.42,8276.19,1705.43,8255.11Zm33.21-38.4c-8.26,0-16.53,0-24.79,0-2,0-2.86.79-2.77,2.8.08,1.63,0,3.28,0,4.91,0,3,.36,3.34,3.31,3.34h34.83c4.7,0,9.4,0,14.1,0,1.87,0,2.77-.77,2.69-2.69s0-3.56,0-5.34c0-2.64-.35-3-3-3Q1750.82,8216.69,1738.64,8216.71Zm-.13-16.42v0H1737c-7.7,0-15.39,0-23.09.05-2.52,0-2.78.32-2.82,2.87,0,1.35,0,2.71,0,4.06,0,3.77.25,4,4,4,9.41,0,18.82,0,28.22,0,6.56,0,13.11,0,19.67,0,2.68,0,3.06-.43,3.07-3.14,0-1.57,0-3.14,0-4.7,0-2.78-.27-3-3.08-3Q1750.69,8200.27,1738.5,8200.29Zm-.08,120.85a10.92,10.92,0,1,0-10.89-11.05A10.89,10.89,0,0,0,1738.42,8321.14Z"/><path class="cls-11" d="M1738.64,8216.71q12.18,0,24.36,0c2.61,0,2.93.35,3,3,0,1.78,0,3.56,0,5.34s-.82,2.71-2.69,2.69c-4.7,0-9.4,0-14.1,0h-34.83c-2.95,0-3.32-.37-3.31-3.34,0-1.64.09-3.28,0-4.91-.09-2,.74-2.81,2.77-2.8C1722.11,8216.74,1730.37,8216.71,1738.64,8216.71Z"/><path class="cls-11" d="M1738.5,8200.29q12.19,0,24.38,0c2.81,0,3.06.27,3.08,3,0,1.57,0,3.14,0,4.7,0,2.71-.39,3.13-3.07,3.14-6.56,0-13.11,0-19.67,0-9.41,0-18.82,0-28.22,0-3.71,0-4-.19-4-4,0-1.35,0-2.71,0-4.06,0-2.54.3-2.85,2.82-2.87,7.7,0,15.39,0,23.09-.05h1.5Z"/><path class="cls-11" d="M1738.42,8321.14a10.92,10.92,0,1,1,11.11-10.84A10.88,10.88,0,0,1,1738.42,8321.14Z"/><path class="cls-7" d="M1837.15,8255.11q0-31.35,0-62.69c0-5.74,2.12-10.36,7.48-12.88a15.24,15.24,0,0,1,6.18-1.34c12.91-.12,25.82-.08,38.73-.05,8,0,13.62,5.44,13.77,13.48.12,6.56,0,13.12,0,19.69q0,52.85,0,105.7a20.11,20.11,0,0,1-1,6.71c-2,5.49-6.63,8.52-12.55,8.54q-19.37,0-38.73,0c-8.22,0-13.8-5.55-13.88-13.82-.07-7.06,0-14.12,0-21.18Q1837.15,8276.19,1837.15,8255.11Zm33.21-38.4c-8.26,0-16.53,0-24.79,0-2,0-2.86.79-2.77,2.8.08,1.63,0,3.28,0,4.91,0,3,.36,3.34,3.31,3.34h34.83c4.7,0,9.4,0,14.1,0,1.87,0,2.77-.77,2.69-2.69s0-3.56,0-5.34c0-2.64-.35-3-3-3Q1882.54,8216.69,1870.36,8216.71Zm-.13-16.42v0h-1.5c-7.7,0-15.39,0-23.09.05-2.52,0-2.78.32-2.82,2.87,0,1.35,0,2.71,0,4.06,0,3.77.25,4,4,4,9.41,0,18.82,0,28.22,0,6.56,0,13.11,0,19.67,0,2.68,0,3.06-.43,3.07-3.14,0-1.57,0-3.14,0-4.7,0-2.78-.27-3-3.08-3Q1882.41,8200.27,1870.22,8200.29Zm-.08,120.85a10.92,10.92,0,1,0-10.89-11.05A10.89,10.89,0,0,0,1870.14,8321.14Z"/><path class="cls-11" d="M1870.36,8216.71q12.18,0,24.36,0c2.61,0,2.93.35,3,3,0,1.78,0,3.56,0,5.34s-.82,2.71-2.69,2.69c-4.7,0-9.4,0-14.1,0h-34.83c-2.95,0-3.32-.37-3.31-3.34,0-1.64.09-3.28,0-4.91-.09-2,.74-2.81,2.77-2.8C1853.83,8216.74,1862.09,8216.71,1870.36,8216.71Z"/><path class="cls-11" d="M1870.22,8200.29q12.19,0,24.38,0c2.81,0,3.06.27,3.08,3,0,1.57,0,3.14,0,4.7,0,2.71-.39,3.13-3.07,3.14-6.56,0-13.11,0-19.67,0-9.41,0-18.82,0-28.22,0-3.71,0-4-.19-4-4,0-1.35,0-2.71,0-4.06,0-2.54.3-2.85,2.82-2.87,7.7,0,15.39,0,23.09-.05h1.5Z"/><path class="cls-11" d="M1870.14,8321.14a10.92,10.92,0,1,1,11.11-10.84A10.88,10.88,0,0,1,1870.14,8321.14Z"/><rect class="cls-12" x="661" y="8133.04" width="687" height="366"/><rect class="cls-15" x="706" y="8170.76" width="266" height="222.86"/><rect class="cls-16" x="1004.5" y="8305.18" width="316.5" height="88.45"/><rect class="cls-12" x="1347.26" y="8332.29" width="572.74" height="113"/><rect class="cls-11" x="1392.78" y="8445.04" width="79.33" height="136"/><rect class="cls-11" x="661" y="8445.29" width="687" height="153.75"/><rect class="cls-11" x="1347.1" y="8347.62" width="572.9" height="82.34"/><rect class="cls-12" x="1376.48" y="8581.04" width="111.93" height="18"/><rect class="cls-12" x="1404.49" y="8534.04" width="55.9" height="6"/><rect class="cls-12" x="1404.49" y="8549.54" width="55.9" height="6"/><rect class="cls-12" x="1404.49" y="8565.04" width="55.9" height="6"/><rect class="cls-12" x="748.49" y="8503.66" width="185.51" height="6"/><rect class="cls-12" x="748.49" y="8519.16" width="185.51" height="6"/><rect class="cls-12" x="748.49" y="8534.66" width="185.51" height="6"/><rect class="cls-12" x="1070.49" y="8503.66" width="185.51" height="6"/><rect class="cls-12" x="1070.49" y="8519.16" width="185.51" height="6"/><rect class="cls-12" x="1070.49" y="8534.66" width="185.51" height="6"/><rect class="cls-11" x="1814.78" y="8445.04" width="79.33" height="136"/><rect class="cls-12" x="1798.48" y="8581.04" width="111.93" height="18"/><circle class="cls-12" cx="1430.51" cy="8386.53" r="13.51"/><circle class="cls-12" cx="1551.77" cy="8386.53" r="13.51"/><circle class="cls-12" cx="1673.04" cy="8386.53" r="13.51"/><circle class="cls-12" cx="1794.3" cy="8386.53" r="13.51"/><rect class="cls-12" x="1826.49" y="8534.04" width="55.9" height="6"/><rect class="cls-12" x="1826.49" y="8549.54" width="55.9" height="6"/><rect class="cls-12" x="1826.49" y="8565.04" width="55.9" height="6"/><rect class="cls-12" x="534.82" y="8332.67" width="126.18" height="51.2"/><path class="cls-12" d="M428.19,8263.12v-18.38l-51.19,0,.14,18.35c0,66.74,47.92,120.91,112.82,120.91h67v-51.2H489.51C455.29,8332.76,428.19,8299.4,428.19,8263.12Z"/><circle class="cls-11" cx="1016.13" cy="8267.07" r="9.91"/><circle class="cls-11" cx="1045.76" cy="8267.07" r="9.91"/><circle class="cls-8" cx="1016.13" cy="8207.36" r="9.91"/><circle class="cls-11" cx="1045.76" cy="8207.36" r="9.91"/><circle class="cls-11" cx="1016.13" cy="8236.71" r="9.91"/><circle class="cls-11" cx="1045.76" cy="8236.71" r="9.91"/><circle class="cls-11" cx="1051.62" cy="8347.62" r="24.41"/><circle class="cls-12" cx="1051.62" cy="8347.62" r="5.5"/><circle class="cls-11" cx="1016.13" cy="8266.73" r="9.91"/><circle class="cls-8" cx="1045.76" cy="8266.73" r="9.91"/><line class="cls-17" x1="1051.62" y1="8347.62" x2="1065" y2="8333.88"/><circle class="cls-11" cx="1126.04" cy="8347.62" r="24.41"/><circle class="cls-12" cx="1126.04" cy="8347.62" r="5.5"/><line class="cls-17" x1="1112.66" y1="8333.88" x2="1126.04" y2="8347.62"/><circle class="cls-11" cx="1200.45" cy="8347.62" r="24.41"/><circle class="cls-12" cx="1200.45" cy="8347.62" r="5.5"/><line class="cls-18" x1="1200.45" y1="8347.66" x2="1200.45" y2="8366.84"/><circle class="cls-11" cx="1274.87" cy="8347.62" r="24.41"/><circle class="cls-12" cx="1274.87" cy="8347.62" r="5.5"/><line class="cls-17" x1="1288.43" y1="8361.18" x2="1274.87" y2="8347.62"/><path class="cls-19" d="M839.11,8249.06q12.18,0,24.36,0c2.61,0,2.93.35,3,3,0,1.78,0,3.56,0,5.34s-.82,2.71-2.69,2.69c-4.7,0-9.4,0-14.1,0H814.84c-2.95,0-3.32-.37-3.31-3.34,0-1.64.09-3.28,0-4.91-.09-2,.74-2.81,2.77-2.8C822.58,8249.1,830.85,8249.06,839.11,8249.06Z"/><path class="cls-19" d="M839,8232.64q12.19,0,24.38,0c2.81,0,3.06.27,3.08,3,0,1.57,0,3.14,0,4.7,0,2.71-.39,3.13-3.07,3.14-6.56,0-13.11,0-19.67,0-9.41,0-18.82,0-28.22,0-3.71,0-4-.19-4-4,0-1.35,0-2.71,0-4.06,0-2.54.3-2.85,2.82-2.87,7.7,0,15.39,0,23.09-.05H839Z"/><path class="cls-11" d="M838.89,8353.49A10.92,10.92,0,1,1,850,8342.66,10.88,10.88,0,0,1,838.89,8353.49Z"/><path class="cls-20" d="M805.9,8287.46q0-31.35,0-62.69c0-5.74,2.12-10.36,7.48-12.88a15.24,15.24,0,0,1,6.18-1.34c12.91-.12,25.82-.08,38.73-.05,8,0,13.62,5.44,13.77,13.48.12,6.56,0,13.12,0,19.69q0,52.85,0,105.7a20.11,20.11,0,0,1-1,6.71c-2,5.49-6.63,8.52-12.55,8.54q-19.37,0-38.73,0c-8.22,0-13.8-5.55-13.88-13.82-.07-7.06,0-14.12,0-21.18Q805.9,8308.54,805.9,8287.46Zm33.21-38.4c-8.26,0-16.53,0-24.79,0-2,0-2.86.79-2.77,2.8.08,1.63,0,3.28,0,4.91,0,3,.36,3.34,3.31,3.34h34.83c4.7,0,9.4,0,14.1,0,1.87,0,2.77-.77,2.69-2.69s0-3.56,0-5.34c0-2.64-.35-3-3-3Q851.29,8249,839.11,8249.06Zm-.13-16.42v0h-1.5c-7.7,0-15.39,0-23.09.05-2.52,0-2.78.32-2.82,2.87,0,1.35,0,2.71,0,4.06,0,3.77.25,4,4,4,9.41,0,18.82,0,28.22,0,6.56,0,13.11,0,19.67,0,2.68,0,3.06-.43,3.07-3.14,0-1.57,0-3.14,0-4.7,0-2.78-.27-3-3.08-3Q851.16,8232.62,839,8232.64Z"/><path class="cls-7" d="M805.9,8287.46q0,21.08,0,42.15c0,7.06-.05,14.12,0,21.18.08,8.27,5.66,13.81,13.88,13.82q19.37,0,38.73,0c5.92,0,10.56-3,12.55-8.54a20.12,20.12,0,0,0,1-6.71q.05-32.21,0-64.41H805.9Q805.9,8286.21,805.9,8287.46ZM839,8331.66a10.92,10.92,0,1,1-11,10.79A11,11,0,0,1,839,8331.66Z"/><rect class="cls-5" x="1119.35" y="8167.78" width="5.56" height="108.86"/><rect class="cls-5" x="1152.29" y="8167.78" width="5.56" height="108.86"/><rect class="cls-5" x="1185.24" y="8167.78" width="5.56" height="108.86"/><rect class="cls-11" x="1251.81" y="8245.6" width="11.5" height="34.62" transform="translate(-7005.35 9520.47) rotate(-90)"/><rect class="cls-11" x="1301.99" y="8245.6" width="11.5" height="34.62" transform="translate(-6955.17 9570.64) rotate(-90)"/><rect class="cls-11" x="1251.81" y="8269.52" width="11.5" height="34.62" transform="translate(-7029.27 9544.39) rotate(-90)"/><rect class="cls-11" x="1119.79" y="8269.96" width="4.67" height="15.42" transform="translate(-7155.53 9399.79) rotate(-90)"/><rect class="cls-11" x="1185.68" y="8213.96" width="4.67" height="15.42" transform="translate(-7033.65 9409.68) rotate(-90)"/><rect class="cls-11" x="1152.74" y="8246.37" width="4.67" height="15.42" transform="translate(-7099.01 9409.15) rotate(-90)"/><rect class="cls-5" x="1301.99" y="8269.52" width="11.5" height="34.62" transform="translate(-6979.09 9594.57) rotate(-90)"/><rect class="cls-5" x="1251.81" y="8204.9" width="11.5" height="34.62" transform="translate(-6964.65 9479.77) rotate(-90)"/><rect class="cls-11" x="1301.99" y="8204.9" width="11.5" height="34.62" transform="translate(-6914.47 9529.95) rotate(-90)"/><circle class="cls-7" cx="556.98" cy="5249.88" r="21.2"/><rect class="cls-11" x="328.26" y="5281.31" width="514.74" height="71.69"/><rect class="cls-11" x="328.26" y="5947.31" width="514.74" height="71.69"/><rect class="cls-11" x="395.2" y="5353" width="381.8" height="594"/><rect class="cls-21" x="401.49" y="5281" width="369.21" height="738"/><circle class="cls-8" cx="459.83" cy="5404.85" r="17.85"/><circle class="cls-8" cx="708.44" cy="5404.85" r="17.85"/><circle class="cls-7" cx="459.83" cy="5501.85" r="17.85"/><circle class="cls-7" cx="723.38" cy="5498.91" r="17.85" transform="translate(-4332.92 3219.64) rotate(-58.24)"/><circle class="cls-8" cx="708.44" cy="5595.85" r="17.85"/><circle class="cls-8" cx="441.55" cy="5693.93" r="17.85" transform="matrix(0.85, -0.53, 0.53, 0.85, -2967.48, 1111.97)"/><circle class="cls-8" cx="733.32" cy="5695.56" r="17.85" transform="translate(-4076.42 2558.12) rotate(-49.55)"/><circle class="cls-7" cx="529.55" cy="5781.93" r="17.85" transform="matrix(0.85, -0.53, 0.53, 0.85, -3000.84, 1172.43)"/><circle class="cls-7" cx="643.81" cy="5791.99" r="17.85" transform="matrix(0.92, -0.39, 0.39, 0.92, -2187.18, 698.16)"/><circle class="cls-8" cx="460.78" cy="5875.55" r="17.85" transform="translate(-5432.76 5898.06) rotate(-85.73)"/><circle class="cls-8" cx="710.63" cy="5873.96" r="17.85" transform="translate(-5196.36 6214.44) rotate(-86.4)"/><circle class="cls-8" cx="623.63" cy="5693.96" r="17.85" transform="translate(-5098.25 5958.91) rotate(-86.4)"/><circle class="cls-7" cx="540.98" cy="5396.88" r="21.2"/><circle class="cls-8" cx="623.98" cy="5486.88" r="21.2"/><circle class="cls-7" cx="540.98" cy="5396.88" r="21.2"/><circle class="cls-7" cx="644.98" cy="5634.88" r="21.2"/><circle class="cls-8" cx="535.98" cy="5595.88" r="21.2"/><path class="cls-12" d="M487.93,5417.25a42.73,42.73,0,1,1-53.48-28.12l12.68,40.8Z"/><path class="cls-12" d="M568.91,5402.53a42.73,42.73,0,1,1-60.19-5.37l27.41,32.78Z"/><path class="cls-12" d="M655.86,5380.43a42.73,42.73,0,1,1-60.24,4.78l32.51,27.73Z"/><path class="cls-12" d="M680.33,5417.25a42.73,42.73,0,1,0,53.48-28.12l-12.68,40.8Z"/><path class="cls-12" d="M487.93,5514.25a42.73,42.73,0,1,1-53.48-28.12l12.68,40.8Z"/><path class="cls-12" d="M579.39,5502.92a42.73,42.73,0,1,1-57.28-19.24l19,38.26Z"/><path class="cls-12" d="M655.27,5486.14a42.73,42.73,0,1,1-59.94,7.66l33.8,26.14Z"/><path class="cls-12" d="M693,5494.66a42.73,42.73,0,1,0,60.28,4.24l-32.26,28Z"/><path class="cls-12" d="M487.93,5608.25a42.73,42.73,0,1,1-53.48-28.12l12.68,40.8Z"/><path class="cls-12" d="M564,5598.54a42.73,42.73,0,1,1-60.26,4.54l32.4,27.86Z"/><path class="cls-12" d="M644.3,5581a42.73,42.73,0,1,1-55.11,24.77l39.94,15.17Z"/><path class="cls-12" d="M680.33,5608.25a42.73,42.73,0,1,0,53.48-28.12l-12.68,40.8Z"/><path class="cls-12" d="M471.94,5689.44a42.73,42.73,0,1,1-60.24,4.72l32.48,27.76Z"/><path class="cls-12" d="M576.32,5700.44a42.73,42.73,0,1,1-54.69-25.69l14.5,40.19Z"/><path class="cls-12" d="M652.1,5686.91a42.73,42.73,0,1,1-59,13.06l36,23Z"/><path class="cls-12" d="M703.88,5686.76a42.73,42.73,0,1,0,58.94,13.31l-36.12,22.82Z"/><path class="cls-12" d="M474.94,5778.44a42.73,42.73,0,1,1-60.24,4.72l32.48,27.76Z"/><path class="cls-12" d="M557.27,5773.8a42.73,42.73,0,1,1-58.27,16l37.13,21.14Z"/><path class="cls-12" d="M669.61,5804.93a42.73,42.73,0,1,1-53.36-28.36l12.5,40.86Z"/><path class="cls-12" d="M692.39,5774.21a42.73,42.73,0,1,0,60.42-1l-29.72,30.7Z"/><path class="cls-12" d="M487.89,5890a42.73,42.73,0,1,1-51.25-32l9.61,41.63Z"/><path class="cls-12" d="M576.32,5885.44a42.73,42.73,0,1,1-54.69-25.69l14.5,40.19Z"/><path class="cls-12" d="M658.48,5864a42.73,42.73,0,1,1-60.26-4.43l27.92,32.35Z"/><path class="cls-12" d="M681.8,5884.58a42.73,42.73,0,1,0,55.14-24.71l-15.22,39.93Z"/><circle class="cls-22" cx="547.06" cy="5882.45" r="8.49"/><circle class="cls-22" cx="538.57" cy="5863.82" r="8.49"/><circle class="cls-22" cx="570.33" cy="5875.55" r="8.49"/><circle class="cls-22" cx="557.18" cy="5860.78" r="8.49"/><circle class="cls-22" cx="504.06" cy="5857.98" r="8.49"/><circle class="cls-22" cx="489.91" cy="5873.96" r="8.49"/><circle class="cls-22" cx="482.08" cy="5853.67" r="8.49"/><circle class="cls-22" cx="412.37" cy="5856.11" r="8.49"/><circle class="cls-22" cx="581.65" cy="5857.98" r="8.49"/><circle class="cls-22" cx="629.13" cy="5875.55" r="8.49"/><circle class="cls-22" cx="668.86" cy="5855.33" r="8.49"/><circle class="cls-22" cx="680.36" cy="5875.55" r="8.49"/><circle class="cls-22" cx="690.58" cy="5849.49" r="8.49"/><circle class="cls-22" cx="759.66" cy="5855.33" r="8.49"/><circle class="cls-22" cx="710.63" cy="5774.13" r="8.49"/><circle class="cls-22" cx="733.32" cy="5778.44" r="8.49"/><circle class="cls-22" cx="687" cy="5764.08" r="8.49"/><circle class="cls-22" cx="661.66" cy="5769.95" r="8.49"/><circle class="cls-22" cx="671.49" cy="5786.93" r="8.49"/><circle class="cls-22" cx="599.64" cy="5769.95" r="8.49"/><circle class="cls-22" cx="583.87" cy="5782.62" r="8.49"/><circle class="cls-22" cx="566.9" cy="5764.08" r="8.49"/><circle class="cls-22" cx="581.65" cy="5746.43" r="8.49"/><circle class="cls-22" cx="504.73" cy="5761.46" r="8.49"/><circle class="cls-22" cx="481.42" cy="5761.46" r="8.49"/><circle class="cls-22" cx="495.53" cy="5782.13" r="8.49"/><circle class="cls-22" cx="462" cy="5776.57" r="8.49"/><circle class="cls-22" cx="446.26" cy="5791.99" r="8.49"/><circle class="cls-22" cx="432.86" cy="5778.44" r="8.49"/><circle class="cls-22" cx="412.37" cy="5769.95" r="8.49"/><circle class="cls-22" cx="415.66" cy="5683.08" r="8.49"/><circle class="cls-22" cx="410" cy="5660.15" r="8.49"/><circle class="cls-22" cx="464.97" cy="5671.63" r="8.49"/><circle class="cls-22" cx="484.21" cy="5679.93" r="8.49"/><circle class="cls-22" cx="490.57" cy="5656.08" r="8.49"/><circle class="cls-22" cx="541.13" cy="5687.53" r="8.49"/><circle class="cls-22" cx="561.84" cy="5695.44" r="8.49"/><circle class="cls-22" cx="573.16" cy="5674.75" r="8.49"/><circle class="cls-22" cx="586.4" cy="5658.05" r="8.49"/><circle class="cls-22" cx="587.31" cy="5691.58" r="8.49"/><circle class="cls-22" cx="600.55" cy="5674.75" r="8.49"/><circle class="cls-22" cx="647.17" cy="5671.63" r="8.49"/><circle class="cls-22" cx="668.86" cy="5680.72" r="8.49"/><circle class="cls-22" cx="678.24" cy="5700.81" r="8.49"/><circle class="cls-22" cx="692.78" cy="5683.08" r="8.49"/><circle class="cls-22" cx="685.84" cy="5662.62" r="8.49"/><circle class="cls-22" cx="675.35" cy="5591.46" r="8.49"/><circle class="cls-22" cx="751.17" cy="5572.5" r="8.49"/><circle class="cls-22" cx="689.99" cy="5572.5" r="8.49"/><circle class="cls-22" cx="672.73" cy="5555.2" r="8.49"/><circle class="cls-22" cx="634.44" cy="5574.68" r="8.49"/><circle class="cls-22" cx="623.63" cy="5605.3" r="8.49"/><circle class="cls-22" cx="615.14" cy="5583.17" r="8.49"/><circle class="cls-22" cx="600.55" cy="5566.18" r="8.49"/><circle class="cls-22" cx="578.82" cy="5570.04" r="8.49"/><circle class="cls-22" cx="596.98" cy="5587.17" r="8.49"/><circle class="cls-22" cx="577.91" cy="5594.99" r="8.49"/><circle class="cls-22" cx="562.18" cy="5578" r="8.49"/><circle class="cls-22" cx="514.78" cy="5570.04" r="8.49"/><circle class="cls-22" cx="499.06" cy="5555.2" r="8.49"/><circle class="cls-22" cx="502.32" cy="5591.46" r="8.49"/><circle class="cls-22" cx="489.87" cy="5573.33" r="8.49"/><circle class="cls-22" cx="464.97" cy="5578.53" r="8.49"/><circle class="cls-22" cx="481.38" cy="5595.88" r="8.49"/><circle class="cls-22" cx="453.51" cy="5605.3" r="8.49"/><circle class="cls-22" cx="447.13" cy="5586.49" r="8.49"/><circle class="cls-22" cx="415.66" cy="5572.5" r="8.49"/><circle class="cls-22" cx="412.88" cy="5472.56" r="8.49"/><circle class="cls-22" cx="482.08" cy="5477.28" r="8.49"/><circle class="cls-22" cx="502.32" cy="5475.77" r="8.49"/><circle class="cls-22" cx="492.7" cy="5498.16" r="8.49"/><circle class="cls-22" cx="538.49" cy="5486.14" r="8.49"/><circle class="cls-22" cx="551.98" cy="5501.85" r="8.49"/><circle class="cls-22" cx="573.44" cy="5494.66" r="8.49"/><circle class="cls-22" cx="557.18" cy="5481.06" r="8.49"/><circle class="cls-22" cx="574.88" cy="5469.75" r="8.49"/><circle class="cls-22" cx="590.18" cy="5453.35" r="8.49"/><circle class="cls-22" cx="592.05" cy="5483.68" r="8.49"/><circle class="cls-22" cx="651.43" cy="5465.68" r="8.49"/><circle class="cls-22" cx="668.86" cy="5453.35" r="8.49"/><circle class="cls-22" cx="671.86" cy="5475.77" r="8.49"/><circle class="cls-22" cx="678.39" cy="5494.66" r="8.49"/><circle class="cls-22" cx="696.2" cy="5478.24" r="8.49"/><circle class="cls-22" cx="752.26" cy="5477.28" r="8.49"/><circle class="cls-22" cx="664.48" cy="5573.33" r="8.49"/><circle class="cls-22" cx="666.18" cy="5660.15" r="8.49"/><circle class="cls-22" cx="714.1" cy="5676.08" r="8.49"/><circle class="cls-22" cx="751.17" cy="5668.64" r="8.49"/><circle class="cls-22" cx="759.66" cy="5686.76" r="8.49"/><circle class="cls-22" cx="677.35" cy="5746.43" r="8.49"/><circle class="cls-22" cx="581.65" cy="5840.42" r="8.49"/><path class="cls-12" d="M1915.56,8374.2a13.51,13.51,0,1,0,4.44,26.25V8375A13.46,13.46,0,0,0,1915.56,8374.2Z"/><circle class="cls-8" cx="639.31" cy="5375.68" r="21.2"/><circle class="cls-7" cx="568.98" cy="5537.88" r="21.2"/><circle class="cls-7" cx="511.98" cy="5697.88" r="21.2"/></svg>