<svg xmlns="http://www.w3.org/2000/svg" xmlns:xlink="http://www.w3.org/1999/xlink" viewBox="0 0 2500 11110.6"><defs><style>.cls-1{fill:url(#linear-gradient);}.cls-2{fill:url(#linear-gradient-2);}.cls-3{fill:url(#linear-gradient-3);}.cls-4{fill:#cfdbdd;}.cls-30,.cls-31,.cls-5{fill:#003650;}.cls-6{fill:url(#linear-gradient-4);}.cls-7{fill:url(#radial-gradient);}.cls-8{fill:#f79d5e;}.cls-9{fill:#b63035;}.cls-10{opacity:0.3;}.cls-11{fill:#c14855;}.cls-12,.cls-16{fill:#fff;}.cls-13{fill:url(#linear-gradient-5);}.cls-14,.cls-28{fill:#5c89a0;}.cls-15,.cls-16{opacity:0.8;}.cls-17,.cls-18,.cls-19,.cls-20,.cls-21,.cls-22,.cls-23,.cls-24,.cls-25,.cls-26,.cls-27,.cls-29{fill:none;}.cls-17,.cls-18,.cls-23,.cls-24{stroke:#fff;}.cls-17,.cls-18,.cls-19,.cls-20,.cls-22,.cls-23,.cls-24,.cls-25,.cls-26,.cls-27,.cls-28,.cls-29,.cls-30,.cls-31{stroke-miterlimit:10;}.cls-17{stroke-width:7.32px;}.cls-18{stroke-width:5.03px;}.cls-19,.cls-20,.cls-25,.cls-26,.cls-29{stroke:#003650;}.cls-19{stroke-width:3.66px;}.cls-20{stroke-width:3.65px;}.cls-22{stroke:#f79d5e;stroke-width:1.46px;}.cls-23{stroke-width:9.43px;}.cls-24{stroke-width:6.48px;}.cls-25{stroke-width:4.72px;}.cls-26{stroke-width:4.71px;}.cls-27,.cls-28{stroke:#b63035;stroke-width:2px;}.cls-29{stroke-width:2.87px;}.cls-30,.cls-31{stroke:#cfdbdd;}.cls-30{stroke-width:10px;}.cls-31{stroke-width:8.13px;}</style><linearGradient id="linear-gradient" x1="1250.93" y1="10543.99" x2="1250.93" y2="7151.59" gradientUnits="userSpaceOnUse"><stop offset="0.13" stop-color="#cfdbdd"/><stop offset="0.15" stop-color="#cad7da"/><stop offset="0.29" stop-color="#a2bbc5"/><stop offset="0.43" stop-color="#84a5b5"/><stop offset="0.57" stop-color="#6e96a9"/><stop offset="0.7" stop-color="#608ca2"/><stop offset="0.81" stop-color="#5c89a0"/></linearGradient><linearGradient id="linear-gradient-2" x1="1248.25" y1="4944.99" x2="1248.25" y2="7814.83" gradientUnits="userSpaceOnUse"><stop offset="0.13" stop-color="#003650"/><stop offset="0.22" stop-color="#164a63"/><stop offset="0.38" stop-color="#34657e"/><stop offset="0.53" stop-color="#4a7991"/><stop offset="0.68" stop-color="#58859c"/><stop offset="0.81" stop-color="#5c89a0"/></linearGradient><linearGradient id="linear-gradient-3" x1="1250" y1="3795.49" x2="1250" y2="291.99" gradientUnits="userSpaceOnUse"><stop offset="0.14" stop-color="#003650"/><stop offset="0.81" stop-color="#d0dcde"/></linearGradient><linearGradient id="linear-gradient-4" x1="1251.47" y1="11110.6" x2="1251.47" y2="10543.99" gradientUnits="userSpaceOnUse"><stop offset="0" stop-color="#fff"/><stop offset="0.1" stop-color="#f7f9f9"/><stop offset="0.42" stop-color="#e1e8ea"/><stop offset="0.72" stop-color="#d3dee0"/><stop offset="1" stop-color="#cfdbdd"/></linearGradient><radialGradient id="radial-gradient" cx="937.68" cy="3630.8" r="418.54" gradientTransform="translate(0 2541.56) scale(1 0.3)" gradientUnits="userSpaceOnUse"><stop offset="0.46" stop-color="#f79d5e" stop-opacity="0.5"/><stop offset="0.6" stop-color="#eab188" stop-opacity="0.34"/><stop offset="0.78" stop-color="#dcc8b6" stop-opacity="0.16"/><stop offset="0.92" stop-color="#d3d7d3" stop-opacity="0.04"/><stop offset="1" stop-color="#d0dcde" stop-opacity="0"/></radialGradient><linearGradient id="linear-gradient-5" x1="871.78" y1="6343.17" x2="871.78" y2="7081.17" gradientUnits="userSpaceOnUse"><stop offset="0.13" stop-color="#003650"/><stop offset="0.22" stop-color="#315d72"/><stop offset="0.33" stop-color="#618392"/><stop offset="0.43" stop-color="#89a3ad"/><stop offset="0.53" stop-color="#a7bbc2"/><stop offset="0.63" stop-color="#bdcdd1"/><stop offset="0.73" stop-color="#cbd7da"/><stop offset="0.81" stop-color="#cfdbdd"/></linearGradient></defs><title>Homepage</title><g id="Layer_2" data-name="Layer 2"><rect class="cls-1" x="1.86" y="7151.59" width="2498.14" height="3392.4"/><rect class="cls-2" y="4944.99" width="2496.5" height="2869.84"/><rect class="cls-3" y="291.99" width="2500" height="3503.5"/><rect class="cls-4" width="2500" height="387"/><rect class="cls-5" y="3742.34" width="2500" height="1494.65"/><rect class="cls-6" x="2.93" y="10543.99" width="2497.07" height="566.62"/></g><g id="Layer_1" data-name="Layer 1"><path class="cls-5" d="M357.26,2739.86c101.93-254.48-44.24-159.48-54.42-312.5C296,2324.73,405.57,2244.7,372.62,2182.5s122.73-162,102.55-221.23,89-84.14,98.14-183.24c9.14,42.41,52.31,67.22,46,107.49,6.26,41.68,36.57,50.79,47,89.88,28.27,74.32-7.7,185.43,28.91,278.22,22.43-142.82,115.93-132,113.06-302.82C807,1894,862,1850.53,873.95,1813.86c11.9,35.95,34.7,44.72,33.79,88C910.38,1919,945,1978,949.84,2026.52s28.28,81.45,39.2,133c71.84-46.81,36.27-127.07,60.82-201.14,19-50.18,35-53.08,41.71-95.57s23.75-52.31,33.52-83.61c9.07,29.37,46.73,30.31,46.73,57.92,3.93,49.58,73.25,94.59,79.58,51.07s38.08-47,38.7-70.46,28.33-35.85,38.76-61c-.06,22.24,16.34,25.46,13,62.57-.2,39.84,26.56,62.27,36.84,99.88,5.54-35.22,43.45-44.49,51.45-88.9,9-38.43,22.67-24.56,32.71-46.43,6.74,24.34,25.5,27.43,29.86,65s27,20.91,28.54,66.19c1.51,41.51,44.79,64.48,46.44,93.62,21.44-53.84,56.85-51.83,63.9-118.08,0-49.72,44.2-13.62,40.65-66.07s21.18-40,30.67-79.45c4.84,35.15,33.67,112.14,13.69,97.16-5.09-4.3-4.81-10.91-2.25,2.27s28.43,48.83,22.63,78.3c-8.14,41.35,25,74.75,39.69,101.57,12,21.81,25.72,71.45,25.72,71.45s96.42-74.26,97.29-120.82c1.28-67.73,30.28-33.28,25.66-85.87-2.24-33.1,31.17-54,20.29-92.81,0,26.09,49.47,53,51.17,110.87s42.92,35.95,59.7,96.33c25.78,92.78-99.29,118.8-99.3,262.86s-170.76,101.08-265.94,292.43-12.61,196.79-229.2,276.76-36.55,247.1-250.71,384.51c-188.44,75.33-43.55,293.33-39.3,349.73,30.46,171.06-458.38,253.21-458.3,64,0-151.53-203.68-247.69-190.06-355.2C553.53,3042.95,255.34,2994.34,357.26,2739.86Z"/><ellipse class="cls-7" cx="937.68" cy="3630.8" rx="568.53" ry="164.69"/><path class="cls-5" d="M1700.68,5262.17c-95.32,191.35-121.63,357.78-338.55,437.74S1325.52,5947,1111,6084.42c-188.73,75.33-58.91,202.35-54.65,258.75,30.51,171.06-369.29,189.21-369.21,0,0-151.53-110.48-227.7-96.84-335.21,29.9-235.72-245.74-178.32-143.66-432.8s-44.31-159.48-54.5-312.5"/><path class="cls-4" d="M2496.5,8054c-214.12-89.59-222-271.59-290.82-384.18-215-265.8-622.7,59-829.4-142.39C1177.9,7334.11,969.6,7521,779.07,7374.17c-86.9-67-106.27-153.73-91.9-359.33,3-158.83,357.84-88,369.21,66.33,6.29,60.33,47.09,166.52,254.29,71,272-71.08,142.51,218.23,376,103.65s306.31-163.69,519-101c95.6,38.86,168.42,110.57,290.82,86.08"/><path class="cls-5" d="M494,1878.16c-10.45-1.84,1.25-27.3-15.76-.49-5,7-9.85-.31-6.82-7,5.18-12.91,16.56-16.28,21.27-26.06,3.78-4.62-11.79,3.47-7.4-6.56,15.09-20.08,41.45-30.25,68.31-27.43C509,1830.69,519.67,1872.7,494,1878.16Z"/><path class="cls-5" d="M462.52,1847.31c-2.42-1.17-2.89-3.9-.59-6.62,3.47-2.76,6.79-2.93,12.15-1.19C464.65,1840.86,467.81,1847.56,462.52,1847.31Z"/><path class="cls-5" d="M2023.09,1894.22c8.29,1.08,4.81-16.35,12,3,2.3,5.19,7.52,1.86,6.62-2.7-1.2-8.68-9.1-13-10.6-19.77-1.88-3.5,8.19,4.49,7-2.33-7.18-15-25-26.43-45.89-30.34C2021.79,1863.14,2004.85,1885.68,2023.09,1894.22Z"/><path class="cls-5" d="M1722,1793.45c3.16.2,4.21-3.6,1.88-9.68-3.75-7.1-7.77-10.11-14.61-11.85C1720.58,1781.81,1715.56,1789.49,1722,1793.45Z"/><circle class="cls-8" cx="1068.8" cy="2409.82" r="18.01"/><circle class="cls-8" cx="1692.58" cy="1795.44" r="7.82"/><circle class="cls-8" cx="1681.27" cy="1857.93" r="9.64"/><circle class="cls-8" cx="1718.41" cy="2012.41" r="11.33"/><circle class="cls-8" cx="1697.06" cy="1817.99" r="8.71"/><circle class="cls-8" cx="1652.29" cy="1932.1" r="10.17"/><circle class="cls-8" cx="1663.13" cy="2104.55" r="11.64"/><circle class="cls-8" cx="1715.95" cy="1895.34" r="10.17"/><circle class="cls-8" cx="1690.75" cy="2202.35" r="12.57"/><circle class="cls-8" cx="1479.42" cy="2611.66" r="16.83"/><circle class="cls-8" cx="835.21" cy="2848.86" r="20.34"/><circle class="cls-8" cx="795.3" cy="2143.54" r="12.75"/><circle class="cls-8" cx="777" cy="2539.78" r="18.3"/><circle class="cls-8" cx="973.13" cy="2866.71" r="17.85"/><circle class="cls-8" cx="1064.13" cy="5493.02" r="17.85"/><circle class="cls-8" cx="1198.13" cy="5630.02" r="17.85"/><circle class="cls-8" cx="870.13" cy="5797.02" r="17.85"/><circle class="cls-8" cx="651.65" cy="3127.74" r="21.2"/><circle class="cls-8" cx="814.65" cy="5532.04" r="21.2"/><circle class="cls-8" cx="712.65" cy="5948.04" r="21.2"/><circle class="cls-8" cx="968.65" cy="6079.04" r="21.2"/><circle class="cls-8" cx="759.65" cy="6079.04" r="21.2"/><circle class="cls-8" cx="868.65" cy="1844.12" r="6"/><circle class="cls-8" cx="871.31" cy="1873.29" r="7.55"/><circle class="cls-8" cx="860.36" cy="1900.08" r="8.29"/><circle class="cls-8" cx="894.27" cy="1945.02" r="10.17"/><circle class="cls-8" cx="843.61" cy="1969.63" r="10.17"/><circle class="cls-8" cx="899.63" cy="2011.25" r="10.17"/><circle class="cls-8" cx="1472.51" cy="2368.62" r="14.04"/><circle class="cls-8" cx="1321.71" cy="1785.56" r="6.04"/><circle class="cls-8" cx="1308.54" cy="1812.65" r="7.13"/><circle class="cls-8" cx="1321.15" cy="1831.37" r="7.37"/><circle class="cls-8" cx="1287.38" cy="1878.79" r="10.17"/><circle class="cls-8" cx="1320.42" cy="1942.27" r="10.17"/><circle class="cls-8" cx="1263.42" cy="2001.08" r="12.3"/><circle class="cls-8" cx="1298.41" cy="2187.57" r="13.06"/><circle class="cls-8" cx="909.05" cy="2244.8" r="14.78"/><circle class="cls-9" cx="1122.93" cy="1822.94" r="6.74"/><circle class="cls-9" cx="1142.26" cy="1851.83" r="7.49"/><circle class="cls-9" cx="1132.89" cy="1873.23" r="8.3"/><circle class="cls-9" cx="1114.43" cy="1965.36" r="10.17"/><circle class="cls-9" cx="1140.99" cy="2040.85" r="11.68"/><circle class="cls-9" cx="1178.81" cy="1924.68" r="10.17"/><circle class="cls-9" cx="1088.8" cy="2124.32" r="14.25"/><circle class="cls-9" cx="1155.54" cy="2259.7" r="14.54"/><circle class="cls-9" cx="1188.52" cy="2696.08" r="17.96"/><circle class="cls-9" cx="577.01" cy="1818.1" r="5.96"/><circle class="cls-9" cx="567.73" cy="1883.06" r="9.06"/><circle class="cls-9" cx="585.89" cy="1831.27" r="6.34"/><circle class="cls-9" cx="526.67" cy="1934.85" r="10.17"/><circle class="cls-9" cx="593.26" cy="1949.29" r="10.17"/><circle class="cls-9" cx="468.73" cy="2772.2" r="18.46"/><circle class="cls-9" cx="569.76" cy="2020.39" r="11.56"/><circle class="cls-9" cx="464.18" cy="2220.99" r="13.91"/><circle class="cls-9" cx="926.51" cy="3166.79" r="22.07"/><circle class="cls-9" cx="1460.56" cy="1811.43" r="6.84"/><circle class="cls-9" cx="1452.05" cy="1831.53" r="7.53"/><circle class="cls-9" cx="1470.92" cy="1870.19" r="9"/><circle class="cls-9" cx="1439.25" cy="1947.47" r="10.17"/><circle class="cls-9" cx="1494.95" cy="2020.08" r="11.25"/><circle class="cls-9" cx="1460.5" cy="2115.1" r="12.01"/><circle class="cls-9" cx="1959.83" cy="1844.71" r="8.03"/><circle class="cls-9" cx="1955.42" cy="1867.04" r="8.59"/><circle class="cls-9" cx="1977.94" cy="1904.44" r="9.85"/><circle class="cls-9" cx="1946.84" cy="1944.92" r="10.17"/><circle class="cls-9" cx="2001.1" cy="1984.12" r="10.17"/><circle class="cls-9" cx="1937.01" cy="2045.1" r="12.27"/><circle class="cls-9" cx="1930.32" cy="2222.82" r="13.14"/><circle class="cls-9" cx="1714.44" cy="2376.51" r="15.3"/><circle class="cls-8" cx="712.63" cy="3604.21" r="44.53"/><circle class="cls-8" cx="834.4" cy="3515.35" r="44.53"/><circle class="cls-8" cx="878.83" cy="3630.54" r="44.53"/><circle class="cls-8" cx="938.06" cy="3586.11" r="44.53"/><circle class="cls-8" cx="1026.92" cy="3604.21" r="44.53" transform="translate(-2622.36 4457.21) rotate(-87.25)"/><circle class="cls-8" cx="997.3" cy="3541.68" r="44.53" transform="translate(-2588.11 4368.1) rotate(-87.25)"/><circle class="cls-8" cx="878.83" cy="3457.76" r="44.53" transform="translate(-2617.08 4169.86) rotate(-87.25)"/><circle class="cls-8" cx="982.49" cy="3470.92" r="44.53" transform="translate(-2531.53 4285.94) rotate(-87.25)"/><circle class="cls-9" cx="1043.37" cy="3498.9" r="44.53" transform="translate(-2501.51 4373.39) rotate(-87.25)"/><circle class="cls-9" cx="1084.51" cy="3574.59" r="44.53" transform="translate(-2537.95 4486.54) rotate(-87.25)"/><circle class="cls-8" cx="1115.78" cy="3530.16" r="44.53" transform="translate(-2463.8 4475.47) rotate(-87.25)"/><circle class="cls-9" cx="1175.01" cy="3592.69" r="44.53" transform="translate(-2469.86 4594.17) rotate(-87.25)"/><circle class="cls-8" cx="849.21" cy="3574.59" r="44.53"/><circle class="cls-9" cx="952.87" cy="3630.54" r="44.53"/><circle class="cls-8" cx="1102.61" cy="3630.54" r="44.53" transform="translate(-2576.6 4557.88) rotate(-87.25)"/><circle class="cls-9" cx="789.97" cy="3619.02" r="44.53"/><circle class="cls-9" cx="760.35" cy="3548.26" r="44.53"/><circle class="cls-9" cx="908.45" cy="3515.35" r="44.53"/><g class="cls-10"><circle class="cls-8" cx="712.63" cy="3604.21" r="44.53"/><circle class="cls-8" cx="834.4" cy="3515.35" r="44.53"/><circle class="cls-8" cx="878.83" cy="3630.54" r="44.53"/><circle class="cls-8" cx="938.06" cy="3586.11" r="44.53"/><circle class="cls-8" cx="1026.92" cy="3604.21" r="44.53" transform="translate(-2622.36 4457.21) rotate(-87.25)"/><circle class="cls-8" cx="997.3" cy="3541.68" r="44.53" transform="translate(-2588.11 4368.1) rotate(-87.25)"/><circle class="cls-8" cx="878.83" cy="3457.76" r="44.53" transform="translate(-2617.08 4169.86) rotate(-87.25)"/><circle class="cls-8" cx="982.49" cy="3470.92" r="44.53" transform="translate(-2531.53 4285.94) rotate(-87.25)"/><circle class="cls-11" cx="1043.37" cy="3498.9" r="44.53" transform="translate(-2501.51 4373.39) rotate(-87.25)"/><circle class="cls-11" cx="1084.51" cy="3574.59" r="44.53" transform="translate(-2537.95 4486.54) rotate(-87.25)"/><circle class="cls-8" cx="1115.78" cy="3530.16" r="44.53" transform="translate(-2463.8 4475.47) rotate(-87.25)"/><circle class="cls-11" cx="1175.01" cy="3592.69" r="44.53" transform="translate(-2469.86 4594.17) rotate(-87.25)"/><circle class="cls-8" cx="849.21" cy="3574.59" r="44.53"/><circle class="cls-11" cx="952.87" cy="3630.54" r="44.53"/><circle class="cls-8" cx="1102.61" cy="3630.54" r="44.53" transform="translate(-2576.6 4557.88) rotate(-87.25)"/><circle class="cls-11" cx="789.97" cy="3619.02" r="44.53"/><circle class="cls-11" cx="760.35" cy="3548.26" r="44.53"/><circle class="cls-11" cx="908.45" cy="3515.35" r="44.53"/></g><circle class="cls-8" cx="842.65" cy="6312.04" r="21.2"/><rect class="cls-12" x="680.88" y="6415.17" width="381.8" height="594"/><rect class="cls-13" x="687.17" y="6343.17" width="369.21" height="738"/><circle class="cls-8" cx="826.65" cy="6459.04" r="21.2"/><path class="cls-14" d="M773.61,6479.42a42.73,42.73,0,1,1-53.48-28.12l12.68,40.8Z"/><path class="cls-14" d="M854.58,6464.69a42.73,42.73,0,1,1-60.19-5.37l27.41,32.78Z"/><path class="cls-14" d="M941.53,6442.59a42.73,42.73,0,1,1-60.24,4.78l32.51,27.73Z"/><path class="cls-14" d="M966,6479.42a42.73,42.73,0,1,0,53.48-28.12l-12.68,40.8Z"/><path class="cls-14" d="M773.61,6576.42a42.73,42.73,0,1,1-53.48-28.12l12.68,40.8Z"/><path class="cls-14" d="M865.07,6565.09a42.73,42.73,0,1,1-57.28-19.24l19,38.26Z"/><path class="cls-14" d="M940.95,6548.31A42.73,42.73,0,1,1,881,6556l33.8,26.14Z"/><circle class="cls-8" cx="745.5" cy="6564.02" r="17.85"/><path class="cls-14" d="M978.63,6556.83a42.73,42.73,0,1,0,60.28,4.24l-32.26,28Z"/><circle class="cls-8" cx="1009.06" cy="6561.08" r="17.85" transform="translate(-5100.74 3965.64) rotate(-58.24)"/><path class="cls-14" d="M773.61,6670.42a42.73,42.73,0,1,1-53.48-28.12l12.68,40.8Z"/><path class="cls-14" d="M849.67,6660.71a42.73,42.73,0,1,1-60.26,4.54l32.4,27.86Z"/><path class="cls-14" d="M930,6643.16a42.73,42.73,0,1,1-55.11,24.77l39.94,15.17Z"/><path class="cls-14" d="M966,6670.42a42.73,42.73,0,1,0,53.48-28.12l-12.68,40.8Z"/><path class="cls-14" d="M757.62,6751.61a42.73,42.73,0,1,1-60.24,4.72l32.48,27.76Z"/><path class="cls-14" d="M862,6762.6a42.73,42.73,0,1,1-54.69-25.69l14.5,40.19Z"/><path class="cls-14" d="M937.78,6749.08a42.73,42.73,0,1,1-59,13.06l36,23Z"/><path class="cls-14" d="M989.56,6748.92a42.73,42.73,0,1,0,58.94,13.31L1012.38,6785Z"/><path class="cls-14" d="M760.62,6840.61a42.73,42.73,0,1,1-60.24,4.72l32.48,27.76Z"/><path class="cls-14" d="M842.94,6836a42.73,42.73,0,1,1-58.27,16l37.13,21.14Z"/><path class="cls-14" d="M955.29,6867.1a42.73,42.73,0,1,1-53.36-28.36l12.5,40.86Z"/><circle class="cls-8" cx="815.23" cy="6844.1" r="17.85" transform="translate(-3523.11 1488.25) rotate(-32.22)"/><path class="cls-14" d="M978.06,6836.37a42.73,42.73,0,1,0,60.42-1l-29.72,30.7Z"/><circle class="cls-8" cx="929.48" cy="6854.15" r="17.85" transform="translate(-2575.27 890.93) rotate(-22.72)"/><path class="cls-14" d="M773.57,6952.17a42.73,42.73,0,1,1-51.25-32l9.61,41.63Z"/><path class="cls-14" d="M862,6947.6a42.73,42.73,0,1,1-54.69-25.69l14.5,40.19Z"/><path class="cls-14" d="M944.15,6926.19a42.73,42.73,0,1,1-60.26-4.43l27.92,32.35Z"/><path class="cls-14" d="M967.48,6946.74a42.73,42.73,0,1,0,55.14-24.71L1007.4,6962Z"/><circle class="cls-8" cx="826.65" cy="6459.04" r="21.2"/><circle class="cls-8" cx="854.65" cy="6600.04" r="21.2"/><circle class="cls-8" cx="930.65" cy="6697.04" r="21.2"/><circle class="cls-8" cx="797.65" cy="6760.04" r="21.2"/><circle class="cls-9" cx="673.13" cy="5368.02" r="17.85"/><circle class="cls-9" cx="1499.13" cy="5368.02" r="17.85"/><circle class="cls-9" cx="1046.13" cy="5847.02" r="17.85"/><circle class="cls-9" cx="879.13" cy="6181.02" r="17.85"/><circle class="cls-9" cx="920.13" cy="5987.02" r="17.85"/><circle class="cls-9" cx="1145.13" cy="5307.02" r="17.85"/><circle class="cls-9" cx="543.13" cy="5672.02" r="17.85"/><circle class="cls-9" cx="745.5" cy="6467.02" r="17.85"/><circle class="cls-9" cx="994.11" cy="6467.02" r="17.85"/><circle class="cls-9" cx="994.11" cy="6658.02" r="17.85"/><circle class="cls-9" cx="727.23" cy="6756.1" r="17.85" transform="translate(-3489.74 1427.79) rotate(-32.22)"/><circle class="cls-9" cx="1018.99" cy="6757.72" r="17.85" transform="translate(-4784.34 3148.51) rotate(-49.55)"/><circle class="cls-9" cx="746.46" cy="6937.71" r="17.85" transform="translate(-6227.56 7166.11) rotate(-85.73)"/><circle class="cls-9" cx="996.3" cy="6936.13" r="17.85" transform="translate(-5988.69 7495.04) rotate(-86.4)"/><circle class="cls-9" cx="909.3" cy="6756.13" r="17.85" transform="translate(-5890.58 7239.51) rotate(-86.4)"/><circle class="cls-9" cx="930.65" cy="6459.04" r="21.2"/><circle class="cls-9" cx="821.65" cy="6658.04" r="21.2"/><circle class="cls-9" cx="909.65" cy="6549.04" r="21.2"/><rect class="cls-5" x="719.71" y="1455.34" width="20.34" height="98.04"/><rect class="cls-5" x="961.86" y="1455.83" width="20.34" height="178.29"/><rect class="cls-5" x="1357.3" y="1452.24" width="20.34" height="48.51"/><rect class="cls-5" x="1566.91" y="1455.34" width="20.34" height="114.34"/><rect class="cls-5" x="988.67" y="1513.29" width="78.38" height="20.34"/><rect class="cls-5" x="526.98" y="1454.86" width="20.34" height="54.67" rx="0.08" ry="0.08"/><rect class="cls-5" x="628.87" y="1676.35" width="128.54" height="20.34"/><rect class="cls-5" x="781.04" y="1589.81" width="185.78" height="20.34"/><rect class="cls-5" x="1114.43" y="1580.12" width="20.34" height="210.66"/><rect class="cls-5" x="563.68" y="1738" width="20.34" height="61.08"/><rect class="cls-5" x="1023.63" y="1674.91" width="185.12" height="20.34"/><rect class="cls-5" x="1013.46" y="1653.88" width="20.34" height="69.96"/><rect class="cls-5" x="1324.15" y="1596.32" width="78.21" height="20.34"/><rect class="cls-5" x="1449.42" y="1657.04" width="20.34" height="134.82"/><rect class="cls-5" x="927.15" y="1754.87" width="44.88" height="20.34"/><rect class="cls-5" x="1405.58" y="1529.55" width="342.41" height="20.34"/><rect class="cls-5" x="1791.8" y="1589.4" width="20.34" height="134.79"/><rect class="cls-5" x="1974.33" y="1454.88" width="20.34" height="167.5"/><rect class="cls-5" x="1380.23" y="1664.74" width="549.65" height="20.34"/><rect class="cls-5" x="1688.97" y="1674.91" width="20.34" height="92.33"/><rect class="cls-5" x="1313.78" y="1727.65" width="20.34" height="42.03"/><rect class="cls-5" x="1861.52" y="1749.35" width="30" height="20.34"/><path class="cls-5" d="M1405.3,1529.55h27.38l-.14,20.34-27.22-.06c-26.52,0-48-19-48-44.82V1478.4h20.34v26.8C1377.64,1518.79,1390.89,1529.55,1405.3,1529.55Z"/><path class="cls-5" d="M1614.92,1608.73h27.38V1629l-27.36.05c-26.52,0-48-19-48-44.82v-26.62h20.34v26.8C1587.25,1598,1600.51,1608.73,1614.92,1608.73Z"/><path class="cls-5" d="M1839.81,1749.29h27.38l0,20.34-27.38-.06c-26.52,0-48-19-48-44.82v-26.62h20.34v26.8C1812.14,1738.52,1825.39,1749.29,1839.81,1749.29Z"/><path class="cls-5" d="M1009.87,1674.91h27.38l0,20.35-27.39-.07c-26.52,0-48-19-48-44.82v-26.62H982.2v26.8C982.2,1664.14,995.45,1674.91,1009.87,1674.91Z"/><path class="cls-5" d="M969.13,1513.29h27.38l0,20.34-27.37-.06c-26.52,0-48-19-48-44.82v-32.92h20.34v33.1C941.47,1502.53,954.72,1513.29,969.13,1513.29Z"/><path class="cls-5" d="M767.71,1589.81h27.38l0,20.34-27.37-.06c-26.52,0-48-19-48-44.82v-26.62H740v26.8C740,1579,753.3,1589.81,767.71,1589.81Z"/><rect class="cls-5" x="588.87" y="1547" width="166.38" height="20.34"/><rect class="cls-5" x="802.98" y="1611.91" width="20.34" height="21.39"/><path class="cls-5" d="M575,1547.08h27.38l0,20.34-27.37-.06c-26.52,0-48-19-48-44.82v-26.62h20.34v26.8C547.32,1536.31,560.57,1547.08,575,1547.08Z"/><path class="cls-5" d="M775.27,1676.35H747.89l0,20.34,27.37-.06c26.52,0,48-19,48-44.82v-26.62H802.94V1652C802.94,1665.58,789.68,1676.35,775.27,1676.35Z"/><path class="cls-5" d="M985.8,1754.87H958.42l0,20.34,27.37-.06c26.52,0,48-19,48-44.82v-26.62h-20.34v26.8C1013.46,1744.11,1000.21,1754.87,985.8,1754.87Z"/><path class="cls-5" d="M1946.7,1664.74h-27.38l0,20.34,27.37-.06c26.52,0,48-19,48-44.82v-26.62h-20.34v26.8C1974.37,1654,1961.12,1664.74,1946.7,1664.74Z"/><path class="cls-5" d="M1764.19,1550h-27.38l0-20.34,27.37.06c26.52,0,48,19,48,44.82v26.62h-20.34v-26.8C1791.86,1560.8,1778.61,1550,1764.19,1550Z"/><path class="cls-5" d="M1914,1769.68h-27.38l0-20.34,27.37.06c26.52,0,48,19,48,44.82v26.62h-20.34V1794C1941.64,1780.45,1928.39,1769.68,1914,1769.68Z"/><path class="cls-5" d="M1661.33,1629.06h-27.38l0-20.34,27.37.06c26.52,0,48,19,48,44.82v26.62H1689v-26.8C1689,1639.83,1675.74,1629.06,1661.33,1629.06Z"/><path class="cls-5" d="M1421.67,1616.66h-27.38l0-20.34,27.37.06c26.52,0,48,19,48,44.82v26.62h-20.34V1641C1449.33,1627.42,1436.08,1616.66,1421.67,1616.66Z"/><path class="cls-5" d="M1086.76,1533.74h-27.38l0-20.34,27.37.06c26.52,0,48,19,48,44.82v26.62h-20.34v-26.8C1114.43,1544.5,1101.18,1533.74,1086.76,1533.74Z"/><path class="cls-5" d="M985.8,1610.14H958.42l0-20.34,27.37.06c26.52,0,48,19,48,44.82v26.62h-20.34v-26.8C1013.46,1620.91,1000.21,1610.14,985.8,1610.14Z"/><path class="cls-5" d="M775.27,1567.34H747.89l0-20.34,27.37.06c26.52,0,48,19,48,44.82v26.62H802.94v-26.8C802.94,1578.1,789.68,1567.34,775.27,1567.34Z"/><path class="cls-5" d="M1276,1640.11c0-13.6,13.25-23.45,27.66-23.45H1331l0-20.34-27.37.06c-26.52,0-48,19-48,44.82Z"/><path class="cls-5" d="M1361.79,1685.08h27.38l0-20.34-27.37.06c-26.52,0-48,19-48,44.82v26.62h20.34v-26.8C1334.12,1695.84,1347.37,1685.08,1361.79,1685.08Z"/><path class="cls-5" d="M1255.68,1651.46c0,13.6-13.25,23.45-27.66,23.45h-27.38l0,20.34,27.37-.06c26.52,0,48-19,48-44.82Z"/><path class="cls-5" d="M909.93,1775.21h27.38l0-20.34-27.37.06c-26.52,0-48,19-48,44.82v26.62h20.34v-26.8C882.27,1786,895.52,1775.21,909.93,1775.21Z"/><path class="cls-5" d="M611.69,1696.73h27.38l0-20.34-27.37.06c-26.52,0-48,19-48,44.82v26.62H584v-26.8C584,1707.49,597.27,1696.73,611.69,1696.73Z"/><rect class="cls-5" x="1255.61" y="1638.27" width="20.34" height="15.51"/><path class="cls-5" d="M607,1821.27c3.69-1,5-4.72,2.51-9.11-4.15-4.74-8.75-5.83-16.68-4.76C605.69,1811.72,599.56,1820.29,607,1821.27Z"/><rect class="cls-14" x="578.61" y="1541.21" width="8.48" height="33.19"/><rect class="cls-14" x="620.26" y="1669.92" width="8.48" height="33.19"/><rect class="cls-14" x="760.56" y="1540.58" width="8.48" height="33.19"/><rect class="cls-14" x="943.91" y="1583.38" width="8.48" height="33.19"/><rect class="cls-14" x="919.03" y="1749.35" width="8.48" height="33.19"/><rect class="cls-14" x="1068.8" y="1507.96" width="8.48" height="33.19"/><rect class="cls-14" x="1214.91" y="1669.77" width="8.48" height="33.19"/><rect class="cls-14" x="1652.29" y="1602.98" width="8.48" height="33.19"/><rect class="cls-14" x="1376.44" y="1658.32" width="8.48" height="33.19"/><rect class="cls-14" x="1737.03" y="1523.98" width="8.48" height="33.19"/><rect class="cls-14" x="1927.35" y="1658.99" width="8.48" height="33.19"/><rect class="cls-14" x="1904.5" y="1742.92" width="8.48" height="33.19"/><rect class="cls-14" x="1836.21" y="1742.92" width="8.48" height="33.19"/><rect class="cls-14" x="1559.77" y="1569.74" width="33.19" height="8.48"/><rect class="cls-14" x="1350.69" y="1483.56" width="33.19" height="8.48"/><rect class="cls-14" x="1409.73" y="1523.85" width="8.48" height="33.19"/><rect class="cls-14" x="1300" y="1590.14" width="8.48" height="33.19"/><rect class="cls-14" x="1248.15" y="1646.13" width="33.19" height="8.48"/><rect class="cls-14" x="1108.01" y="1563.82" width="33.19" height="8.48"/><rect class="cls-14" x="1007.04" y="1722.27" width="33.19" height="8.48"/><rect class="cls-14" x="557.18" y="1794.9" width="33.19" height="8.48"/><rect class="cls-14" x="855.55" y="1822.13" width="33.19" height="8.48"/><rect class="cls-14" x="1108.01" y="1786.54" width="33.19" height="8.48"/><rect class="cls-14" x="1307.36" y="1765.77" width="33.19" height="8.48"/><rect class="cls-14" x="1442.99" y="1787.62" width="33.19" height="8.48"/><rect class="cls-14" x="1682.76" y="1763" width="33.19" height="8.48"/><rect class="cls-14" x="1934.9" y="1816.6" width="33.19" height="8.48"/><rect class="cls-14" x="713.28" y="1472.17" width="33.19" height="8.48"/><rect class="cls-14" x="1967.91" y="1599.37" width="33.19" height="8.48"/><rect class="cls-14" x="914.7" y="1472.66" width="33.19" height="8.48"/><g class="cls-15"><rect class="cls-16" x="934.42" y="8590.19" width="376.57" height="52.45"/><rect class="cls-12" x="983.4" y="8155.41" width="279.32" height="434.56"/><circle class="cls-8" cx="1088.58" cy="8574.22" r="15.51"/><circle class="cls-8" cx="1085.77" cy="8675.21" r="16.2"/><circle class="cls-8" cx="1174.3" cy="8693.5" r="16.2"/><circle class="cls-8" cx="1051.27" cy="8616.65" r="15.51"/><path class="cls-14" d="M1052,8552a31.26,31.26,0,1,0-39.13,20.57l9.28-29.85Z"/><path class="cls-14" d="M1111.21,8562.77a31.26,31.26,0,1,0-44,3.93l20.05-24Z"/><path class="cls-14" d="M1174.82,8578.94a31.26,31.26,0,1,0-44.07-3.5l23.78-20.28Z"/><circle class="cls-8" cx="1031.41" cy="8561.07" r="13.06"/><path class="cls-14" d="M1192.72,8552a31.26,31.26,0,1,1,39.13,20.57l-9.28-29.85Z"/><circle class="cls-8" cx="1213.28" cy="8561.07" r="13.06"/><path class="cls-14" d="M1052,8481a31.26,31.26,0,1,0-39.13,20.57l9.28-29.85Z"/><path class="cls-14" d="M1118.88,8489.33a31.26,31.26,0,1,0-41.9,14.08l13.91-28Z"/><path class="cls-14" d="M1175.85,8500.14a31.26,31.26,0,1,0-43.85-5.6l24.73-19.12Z"/><circle class="cls-8" cx="1035.06" cy="8495.23" r="13.06"/><path class="cls-14" d="M1202,8495.37a31.26,31.26,0,1,1,44.1-3.1l-23.6-20.5Z"/><circle class="cls-8" cx="1224.22" cy="8495.18" r="13.06" transform="translate(-4288.12 1916.35) rotate(-31.76)"/><path class="cls-14" d="M1052,8412.26a31.26,31.26,0,1,0-39.13,20.57l9.28-29.85Z"/><path class="cls-14" d="M1107.61,8419.37a31.26,31.26,0,1,0-44.08-3.32l23.7-20.38Z"/><path class="cls-14" d="M1167.83,8424.89a31.26,31.26,0,1,0-40.32-18.12l29.22-11.1Z"/><path class="cls-14" d="M1192.72,8412.26a31.26,31.26,0,1,1,39.13,20.57l-9.28-29.85Z"/><circle class="cls-8" cx="1205.97" cy="8435.24" r="13.06"/><path class="cls-14" d="M1040.27,8352.87a31.26,31.26,0,1,0-44.07-3.45l23.76-20.31Z"/><path class="cls-14" d="M1116.63,8344.83a31.26,31.26,0,1,0-40,18.79l10.61-29.4Z"/><path class="cls-14" d="M1172.07,8354.72a31.26,31.26,0,1,0-43.16-9.55l26.36-16.8Z"/><circle class="cls-8" cx="1018.04" cy="8349.59" r="13.06" transform="translate(-6588.85 4759.7) rotate(-57.78)"/><path class="cls-14" d="M1210,8354.83a31.26,31.26,0,1,1,43.12-9.73l-26.43-16.69Z"/><circle class="cls-8" cx="1231.49" cy="8348.4" r="13.06" transform="translate(-5122.27 2794.84) rotate(-40.45)"/><circle class="cls-8" cx="1224.17" cy="8289.87" r="13.06" transform="translate(-5086.05 2776.1) rotate(-40.45)"/><path class="cls-14" d="M1042.47,8287.76a31.26,31.26,0,1,0-44.07-3.45l23.76-20.31Z"/><path class="cls-14" d="M1102.69,8291.15a31.26,31.26,0,1,0-42.63-11.7l27.17-15.46Z"/><path class="cls-14" d="M1184.88,8268.38a31.26,31.26,0,1,0-39,20.75l9.14-29.89Z"/><circle class="cls-8" cx="1082.42" cy="8285.21" r="13.06" transform="translate(-6504.32 4784.11) rotate(-57.78)"/><circle class="cls-8" cx="1018.77" cy="8302.76" r="13.06" transform="translate(-6548.89 4738.46) rotate(-57.78)"/><circle class="cls-8" cx="1095.58" cy="8211.32" r="13.06" transform="translate(-6435.66 4760.75) rotate(-57.78)"/><path class="cls-14" d="M1201.54,8287.2a31.26,31.26,0,1,1,44.2.72L1224,8265.46Z"/><circle class="cls-8" cx="1166" cy="8277.85" r="13.06" transform="translate(-6919.81 6156.06) rotate(-67.28)"/><circle class="cls-8" cx="1156.49" cy="8216.4" r="13.06" transform="translate(-6868.97 6109.57) rotate(-67.28)"/><path class="cls-14" d="M1051.94,8206.14a31.26,31.26,0,1,0-37.49,23.42l7-30.46Z"/><path class="cls-14" d="M1116.63,8201.44a31.26,31.26,0,1,0-40,18.79l10.61-29.4Z"/><path class="cls-14" d="M1178.93,8206.86a31.26,31.26,0,1,0-44.09,3.24l20.42-23.67Z"/><circle class="cls-8" cx="1032.11" cy="8216.72" r="13.06" transform="translate(-608.26 99.52) rotate(-4.27)"/><path class="cls-14" d="M1193.8,8210.11a31.26,31.26,0,1,1,40.34,18.07L1223,8199Z"/><circle class="cls-8" cx="1214.89" cy="8217.88" r="13.06" transform="matrix(1, -0.06, 0.06, 1, -513.5, 92.48)"/><circle class="cls-8" cx="1035.17" cy="8440.34" r="15.51"/><circle class="cls-8" cx="1152.96" cy="8601.29" r="15.51"/><circle class="cls-8" cx="1144.91" cy="8419.86" r="15.51"/><circle class="cls-8" cx="1152.96" cy="8367.91" r="15.51"/><circle class="cls-8" cx="1098.09" cy="8360.6" r="15.51"/><circle class="cls-8" cx="1080.53" cy="8431.56" r="15.51"/><circle class="cls-8" cx="1102.48" cy="8505.45" r="15.51"/><circle class="cls-8" cx="1154.42" cy="8503.99" r="15.51"/><rect class="cls-12" x="1017.6" y="8773.89" width="207.3" height="250.11"/><circle class="cls-8" cx="1105.05" cy="9000.59" r="16.2"/><circle class="cls-8" cx="1048.28" cy="8980.32" r="16.2"/><circle class="cls-8" cx="1069.49" cy="8992.13" r="16.2"/><circle class="cls-8" cx="1088.85" cy="8977.5" r="16.2"/><circle class="cls-8" cx="1131.05" cy="8996.31" r="16.2"/><circle class="cls-8" cx="1134.08" cy="8968.4" r="16.2"/><circle class="cls-8" cx="1166.9" cy="8996.31" r="16.2"/><circle class="cls-8" cx="1158.12" cy="8980.21" r="16.2"/><circle class="cls-8" cx="1190.31" cy="8984.6" r="16.2"/><circle class="cls-8" cx="1174.21" cy="8964.12" r="16.2"/><circle class="cls-8" cx="1199.3" cy="8957.01" r="16.2"/><circle class="cls-8" cx="1174.11" cy="8898.95" r="16.2"/><circle class="cls-8" cx="1163.24" cy="8948.02" r="16.2"/><circle class="cls-8" cx="1134.08" cy="8950.22" r="16.2"/><circle class="cls-8" cx="1107.15" cy="8957.01" r="16.2"/><circle class="cls-8" cx="1064.48" cy="8959.73" r="16.2"/><circle class="cls-8" cx="1046.19" cy="8945.1" r="16.2"/><circle class="cls-8" cx="1078.38" cy="8936.32" r="16.2"/><circle class="cls-8" cx="1114.96" cy="8928.27" r="16.2"/><circle class="cls-8" cx="1190.31" cy="8928.27" r="16.2"/><circle class="cls-8" cx="1158.12" cy="8924.61" r="16.2"/><circle class="cls-8" cx="1142.03" cy="8910.71" r="16.2"/><circle class="cls-8" cx="1109.84" cy="8904.13" r="16.2"/><circle class="cls-8" cx="1085.69" cy="8910.71" r="16.2"/><circle class="cls-8" cx="1050.58" cy="8915.83" r="16.2"/><circle class="cls-8" cx="1066.67" cy="8849.99" r="16.2"/><circle class="cls-8" cx="1190.31" cy="8832.43" r="16.2"/><rect class="cls-12" x="1003.8" y="8740.83" width="234.9" height="33.06"/><circle class="cls-8" cx="1121.54" cy="8765.86" r="16.2"/><rect class="cls-12" x="934.42" y="8102.96" width="376.57" height="52.45"/></g><path class="cls-8" d="M1882.35,9031.62q0-22.93,0-45.87c0-4.2,1.55-7.58,5.47-9.42a11.15,11.15,0,0,1,4.52-1c9.44-.09,18.89-.06,28.34,0,5.87,0,10,4,10.07,9.86.09,4.8,0,9.6,0,14.4q0,38.67,0,77.33a14.71,14.71,0,0,1-.71,4.91,9.26,9.26,0,0,1-9.18,6.25q-14.17,0-28.34,0c-6,0-10.1-4.06-10.16-10.11-.05-5.17,0-10.33,0-15.5Q1882.35,9047,1882.35,9031.62Zm24.3-28.09c-6,0-12.09,0-18.14,0-1.49,0-2.09.58-2,2,.06,1.2,0,2.4,0,3.6,0,2.17.26,2.44,2.42,2.44h25.48c3.44,0,6.88,0,10.32,0,1.37,0,2-.57,2-2s0-2.61,0-3.91c0-1.93-.25-2.19-2.16-2.19Zm-.1-12v0h-1.1c-5.63,0-11.26,0-16.89,0-1.84,0-2,.24-2.06,2.1,0,1,0,2,0,3,0,2.76.18,2.91,2.9,2.9,6.88,0,13.76,0,20.65,0,4.8,0,9.59,0,14.39,0,2,0,2.24-.31,2.25-2.3,0-1.15,0-2.29,0-3.44,0-2-.19-2.22-2.25-2.23Zm-.06,88.41a8,8,0,1,0-8-8.08A8,8,0,0,0,1906.48,9079.92Z"/><path class="cls-12" d="M1906.64,9003.52h17.82c1.91,0,2.14.25,2.16,2.19,0,1.3,0,2.61,0,3.91s-.6,2-2,2c-3.44,0-6.88,0-10.32,0h-25.48c-2.16,0-2.43-.27-2.42-2.44,0-1.2.07-2.4,0-3.6-.07-1.47.54-2.06,2-2C1894.55,9003.55,1900.6,9003.52,1906.64,9003.52Z"/><path class="cls-12" d="M1906.54,8991.51h17.83c2.06,0,2.24.2,2.25,2.23,0,1.15,0,2.29,0,3.44,0,2-.28,2.29-2.25,2.3-4.8,0-9.59,0-14.39,0-6.88,0-13.76,0-20.65,0-2.72,0-2.9-.14-2.9-2.9,0-1,0-2,0-3,0-1.86.22-2.09,2.06-2.1,5.63,0,11.26,0,16.89,0h1.1Z"/><path class="cls-12" d="M1906.48,9079.92a8,8,0,1,1,8.13-7.93A8,8,0,0,1,1906.48,9079.92Z"/><path class="cls-8" d="M1786,9031.62q0-22.93,0-45.87c0-4.2,1.55-7.58,5.47-9.42a11.15,11.15,0,0,1,4.52-1c9.44-.09,18.89-.06,28.34,0,5.87,0,10,4,10.07,9.86.09,4.8,0,9.6,0,14.4q0,38.67,0,77.33a14.71,14.71,0,0,1-.71,4.91,9.26,9.26,0,0,1-9.18,6.25q-14.17,0-28.34,0c-6,0-10.1-4.06-10.16-10.11-.05-5.17,0-10.33,0-15.5Q1786,9047,1786,9031.62Zm24.3-28.09c-6,0-12.09,0-18.14,0-1.49,0-2.09.58-2,2,.06,1.2,0,2.4,0,3.6,0,2.17.26,2.44,2.42,2.44H1818c3.44,0,6.88,0,10.32,0,1.37,0,2-.57,2-2s0-2.61,0-3.91c0-1.93-.25-2.19-2.16-2.19Zm-.1-12v0h-1.1c-5.63,0-11.26,0-16.89,0-1.84,0-2,.24-2.06,2.1,0,1,0,2,0,3,0,2.76.18,2.91,2.9,2.9,6.88,0,13.76,0,20.65,0,4.8,0,9.59,0,14.39,0,2,0,2.24-.31,2.25-2.3,0-1.15,0-2.29,0-3.44,0-2-.19-2.22-2.25-2.23Zm-.06,88.41a8,8,0,1,0-8-8.08A8,8,0,0,0,1810.12,9079.92Z"/><path class="cls-12" d="M1810.28,9003.52h17.82c1.91,0,2.14.25,2.16,2.19,0,1.3,0,2.61,0,3.91s-.6,2-2,2c-3.44,0-6.88,0-10.32,0h-25.48c-2.16,0-2.43-.27-2.42-2.44,0-1.2.07-2.4,0-3.6-.07-1.47.54-2.06,2-2C1798.19,9003.55,1804.23,9003.52,1810.28,9003.52Z"/><path class="cls-12" d="M1810.18,8991.51H1828c2.06,0,2.24.2,2.25,2.23,0,1.15,0,2.29,0,3.44,0,2-.28,2.29-2.25,2.3-4.8,0-9.59,0-14.39,0-6.88,0-13.76,0-20.65,0-2.72,0-2.9-.14-2.9-2.9,0-1,0-2,0-3,0-1.86.22-2.09,2.06-2.1,5.63,0,11.26,0,16.89,0h1.1Z"/><path class="cls-12" d="M1810.12,9079.92a8,8,0,1,1,8.13-7.93A8,8,0,0,1,1810.12,9079.92Z"/><path class="cls-8" d="M1978.71,9031.62q0-22.93,0-45.87c0-4.2,1.55-7.58,5.47-9.42a11.15,11.15,0,0,1,4.52-1c9.44-.09,18.89-.06,28.34,0,5.87,0,10,4,10.07,9.86.09,4.8,0,9.6,0,14.4q0,38.67,0,77.33a14.71,14.71,0,0,1-.71,4.91,9.26,9.26,0,0,1-9.18,6.25q-14.17,0-28.34,0c-6,0-10.1-4.06-10.16-10.11-.05-5.17,0-10.33,0-15.5Q1978.71,9047,1978.71,9031.62Zm24.3-28.09c-6,0-12.09,0-18.14,0-1.49,0-2.09.58-2,2,.06,1.2,0,2.4,0,3.6,0,2.17.26,2.44,2.42,2.44h25.48c3.44,0,6.88,0,10.32,0,1.37,0,2-.57,2-2s0-2.61,0-3.91c0-1.93-.25-2.19-2.16-2.19Zm-.1-12v0h-1.1c-5.63,0-11.26,0-16.89,0-1.84,0-2,.24-2.06,2.1,0,1,0,2,0,3,0,2.76.18,2.91,2.9,2.9,6.88,0,13.76,0,20.65,0,4.8,0,9.59,0,14.39,0,2,0,2.24-.31,2.25-2.3,0-1.15,0-2.29,0-3.44,0-2-.19-2.22-2.25-2.23Zm-.06,88.41a8,8,0,1,0-8-8.08A8,8,0,0,0,2002.85,9079.92Z"/><path class="cls-12" d="M2003,9003.52h17.82c1.91,0,2.14.25,2.16,2.19,0,1.3,0,2.61,0,3.91s-.6,2-2,2c-3.44,0-6.88,0-10.32,0h-25.48c-2.16,0-2.43-.27-2.42-2.44,0-1.2.07-2.4,0-3.6-.07-1.47.54-2.06,2-2C1990.92,9003.55,1997,9003.52,2003,9003.52Z"/><path class="cls-12" d="M2002.91,8991.51h17.83c2.06,0,2.24.2,2.25,2.23,0,1.15,0,2.29,0,3.44,0,2-.28,2.29-2.25,2.3-4.8,0-9.59,0-14.39,0-6.88,0-13.76,0-20.65,0-2.72,0-2.9-.14-2.9-2.9,0-1,0-2,0-3,0-1.86.22-2.09,2.06-2.1,5.63,0,11.26,0,16.89,0h1.1Z"/><path class="cls-12" d="M2002.85,9079.92A8,8,0,1,1,2011,9072,8,8,0,0,1,2002.85,9079.92Z"/><path class="cls-8" d="M2075.08,9031.62q0-22.93,0-45.87c0-4.2,1.55-7.58,5.47-9.42a11.15,11.15,0,0,1,4.52-1c9.44-.09,18.89-.06,28.34,0,5.87,0,10,4,10.07,9.86.09,4.8,0,9.6,0,14.4q0,38.67,0,77.33a14.71,14.71,0,0,1-.71,4.91,9.26,9.26,0,0,1-9.18,6.25q-14.17,0-28.34,0c-6,0-10.1-4.06-10.16-10.11-.05-5.17,0-10.33,0-15.5Q2075.07,9047,2075.08,9031.62Zm24.3-28.09c-6,0-12.09,0-18.14,0-1.49,0-2.09.58-2,2,.06,1.2,0,2.4,0,3.6,0,2.17.26,2.44,2.42,2.44h25.48c3.44,0,6.88,0,10.32,0,1.37,0,2-.57,2-2s0-2.61,0-3.91c0-1.93-.25-2.19-2.16-2.19Zm-.1-12v0h-1.1c-5.63,0-11.26,0-16.89,0-1.84,0-2,.24-2.06,2.1,0,1,0,2,0,3,0,2.76.18,2.91,2.9,2.9,6.88,0,13.76,0,20.65,0,4.8,0,9.59,0,14.39,0,2,0,2.24-.31,2.25-2.3,0-1.15,0-2.29,0-3.44,0-2-.19-2.22-2.25-2.23Zm-.06,88.41a8,8,0,1,0-8-8.08A8,8,0,0,0,2099.21,9079.92Z"/><path class="cls-12" d="M2099.37,9003.52h17.82c1.91,0,2.14.25,2.16,2.19,0,1.3,0,2.61,0,3.91s-.6,2-2,2c-3.44,0-6.88,0-10.32,0h-25.48c-2.16,0-2.43-.27-2.42-2.44,0-1.2.07-2.4,0-3.6-.07-1.47.54-2.06,2-2C2087.28,9003.55,2093.33,9003.52,2099.37,9003.52Z"/><path class="cls-12" d="M2099.27,8991.51h17.83c2.06,0,2.24.2,2.25,2.23,0,1.15,0,2.29,0,3.44,0,2-.28,2.29-2.25,2.3-4.8,0-9.59,0-14.39,0-6.88,0-13.76,0-20.65,0-2.72,0-2.9-.14-2.9-2.9,0-1,0-2,0-3,0-1.86.22-2.09,2.06-2.1,5.63,0,11.26,0,16.89,0h1.1Z"/><path class="cls-12" d="M2099.21,9079.92a8,8,0,1,1,8.13-7.93A8,8,0,0,1,2099.21,9079.92Z"/><path class="cls-8" d="M2171.44,9031.62q0-22.93,0-45.87c0-4.2,1.55-7.58,5.47-9.42a11.15,11.15,0,0,1,4.52-1c9.44-.09,18.89-.06,28.34,0,5.87,0,10,4,10.07,9.86.09,4.8,0,9.6,0,14.4q0,38.67,0,77.33a14.71,14.71,0,0,1-.71,4.91,9.26,9.26,0,0,1-9.18,6.25q-14.17,0-28.34,0c-6,0-10.1-4.06-10.16-10.11-.05-5.17,0-10.33,0-15.5Q2171.44,9047,2171.44,9031.62Zm24.3-28.09c-6,0-12.09,0-18.14,0-1.49,0-2.09.58-2,2,.06,1.2,0,2.4,0,3.6,0,2.17.26,2.44,2.42,2.44h25.48c3.44,0,6.88,0,10.32,0,1.37,0,2-.57,2-2s0-2.61,0-3.91c0-1.93-.25-2.19-2.16-2.19Zm-.1-12v0h-1.1c-5.63,0-11.26,0-16.89,0-1.84,0-2,.24-2.06,2.1,0,1,0,2,0,3,0,2.76.18,2.91,2.9,2.9,6.88,0,13.76,0,20.65,0,4.8,0,9.59,0,14.39,0,2,0,2.24-.31,2.25-2.3,0-1.15,0-2.29,0-3.44,0-2-.19-2.22-2.25-2.23Zm-.06,88.41a8,8,0,1,0-8-8.08A8,8,0,0,0,2195.58,9079.92Z"/><path class="cls-12" d="M2195.74,9003.52h17.82c1.91,0,2.14.25,2.16,2.19,0,1.3,0,2.61,0,3.91s-.6,2-2,2c-3.44,0-6.88,0-10.32,0H2178c-2.16,0-2.43-.27-2.42-2.44,0-1.2.07-2.4,0-3.6-.07-1.47.54-2.06,2-2C2183.64,9003.55,2189.69,9003.52,2195.74,9003.52Z"/><path class="cls-12" d="M2195.64,8991.51h17.83c2.06,0,2.24.2,2.25,2.23,0,1.15,0,2.29,0,3.44,0,2-.28,2.29-2.25,2.3-4.8,0-9.59,0-14.39,0-6.88,0-13.76,0-20.65,0-2.72,0-2.9-.14-2.9-2.9,0-1,0-2,0-3,0-1.86.22-2.09,2.06-2.1,5.63,0,11.26,0,16.89,0h1.1Z"/><path class="cls-12" d="M2195.58,9079.92a8,8,0,1,1,8.13-7.93A8,8,0,0,1,2195.58,9079.92Z"/><rect class="cls-14" x="1311" y="8942.31" width="502.59" height="267.76"/><rect class="cls-17" x="1343.92" y="8969.91" width="194.6" height="163.04"/><rect class="cls-18" x="1562.29" y="9068.25" width="231.54" height="64.71"/><rect class="cls-14" x="1813.05" y="9088.08" width="688.89" height="82.67"/><rect class="cls-12" x="1846.35" y="9170.56" width="58.04" height="99.49"/><rect class="cls-12" x="1311" y="9170.75" width="502.59" height="112.48"/><rect class="cls-12" x="1812.93" y="9099.3" width="689.01" height="60.23"/><rect class="cls-14" x="1834.43" y="9270.06" width="81.88" height="13.17"/><rect class="cls-14" x="1854.92" y="9235.68" width="40.9" height="4.39"/><rect class="cls-14" x="1854.92" y="9247.01" width="40.9" height="4.39"/><rect class="cls-14" x="1854.92" y="9258.35" width="40.9" height="4.39"/><rect class="cls-14" x="1375" y="9213.45" width="135.71" height="4.39"/><rect class="cls-14" x="1375" y="9224.79" width="135.71" height="4.39"/><rect class="cls-14" x="1375" y="9236.13" width="135.71" height="4.39"/><rect class="cls-14" x="1610.57" y="9213.45" width="135.71" height="4.39"/><rect class="cls-14" x="1610.57" y="9224.79" width="135.71" height="4.39"/><rect class="cls-14" x="1610.57" y="9236.13" width="135.71" height="4.39"/><rect class="cls-12" x="2155.08" y="9170.56" width="58.04" height="99.49"/><rect class="cls-14" x="2143.15" y="9270.06" width="81.88" height="13.17"/><circle class="cls-14" cx="1873.95" cy="9127.76" r="9.88"/><circle class="cls-14" cx="1962.66" cy="9127.76" r="9.88"/><circle class="cls-14" cx="2051.38" cy="9127.76" r="9.88"/><circle class="cls-14" cx="2140.09" cy="9127.76" r="9.88"/><circle class="cls-14" cx="2228.81" cy="9128.62" r="9.88"/><rect class="cls-14" x="2163.65" y="9235.68" width="40.9" height="4.39"/><rect class="cls-14" x="2163.65" y="9247.01" width="40.9" height="4.39"/><rect class="cls-14" x="2163.65" y="9258.35" width="40.9" height="4.39"/><rect class="cls-14" x="1218.68" y="9088.36" width="92.31" height="37.45"/><path class="cls-14" d="M1140.68,9037.48V9024l-37.45,0,.1,13.42c0,48.83,35.06,88.45,82.53,88.45h49v-37.45h-49.35C1160.5,9088.42,1140.68,9064,1140.68,9037.48Z"/><circle class="cls-12" cx="1570.8" cy="9040.36" r="7.25"/><circle class="cls-12" cx="1592.48" cy="9040.36" r="7.25"/><circle class="cls-9" cx="1570.8" cy="8996.69" r="7.25"/><circle class="cls-12" cx="1592.48" cy="8996.69" r="7.25"/><circle class="cls-12" cx="1570.8" cy="9018.16" r="7.25"/><circle class="cls-12" cx="1592.48" cy="9018.16" r="7.25"/><circle class="cls-12" cx="1596.77" cy="9099.3" r="17.86"/><circle class="cls-14" cx="1596.77" cy="9099.3" r="4.02"/><circle class="cls-12" cx="1570.8" cy="9040.12" r="7.25"/><circle class="cls-9" cx="1592.48" cy="9040.12" r="7.25"/><line class="cls-19" x1="1596.77" y1="9099.3" x2="1606.55" y2="9089.24"/><circle class="cls-12" cx="1651.21" cy="9099.3" r="17.86"/><circle class="cls-14" cx="1651.21" cy="9099.3" r="4.02"/><line class="cls-19" x1="1641.42" y1="9089.24" x2="1651.21" y2="9099.3"/><circle class="cls-12" cx="1705.65" cy="9099.3" r="17.86"/><circle class="cls-14" cx="1705.65" cy="9099.3" r="4.02"/><line class="cls-20" x1="1705.65" y1="9099.32" x2="1705.65" y2="9113.35"/><circle class="cls-12" cx="1760.09" cy="9099.3" r="17.86"/><circle class="cls-14" cx="1760.09" cy="9099.3" r="4.02"/><line class="cls-19" x1="1770.01" y1="9109.22" x2="1760.09" y2="9099.3"/><path class="cls-21" d="M1441.3,9027.19h17.82c1.91,0,2.14.25,2.16,2.19,0,1.3,0,2.61,0,3.91s-.6,2-2,2c-3.44,0-6.88,0-10.32,0h-25.48c-2.16,0-2.43-.27-2.42-2.44,0-1.2.07-2.4,0-3.6-.07-1.47.54-2.06,2-2C1429.21,9027.22,1435.25,9027.19,1441.3,9027.19Z"/><path class="cls-21" d="M1441.2,9015.18H1459c2.06,0,2.24.2,2.25,2.23,0,1.15,0,2.29,0,3.44,0,2-.28,2.29-2.25,2.3-4.8,0-9.59,0-14.39,0-6.88,0-13.76,0-20.65,0-2.72,0-2.9-.14-2.9-2.9,0-1,0-2,0-3,0-1.86.22-2.09,2.06-2.1,5.63,0,11.26,0,16.89,0h1.1Z"/><path class="cls-12" d="M1441.14,9103.59a8,8,0,1,1,8.13-7.93A8,8,0,0,1,1441.14,9103.59Z"/><path class="cls-22" d="M1417,9055.29q0-22.93,0-45.87c0-4.2,1.55-7.58,5.47-9.42a11.15,11.15,0,0,1,4.52-1c9.44-.09,18.89-.06,28.34,0,5.87,0,10,4,10.07,9.86.09,4.8,0,9.6,0,14.4q0,38.67,0,77.33a14.71,14.71,0,0,1-.71,4.91,9.26,9.26,0,0,1-9.18,6.25q-14.17,0-28.34,0c-6,0-10.1-4.06-10.16-10.11-.05-5.17,0-10.33,0-15.5Q1417,9070.7,1417,9055.29Zm24.3-28.09c-6,0-12.09,0-18.14,0-1.49,0-2.09.58-2,2,.06,1.2,0,2.4,0,3.6,0,2.17.26,2.44,2.42,2.44H1449c3.44,0,6.88,0,10.32,0,1.37,0,2-.57,2-2s0-2.61,0-3.91c0-1.93-.25-2.19-2.16-2.19Zm-.1-12v0h-1.1c-5.63,0-11.26,0-16.89,0-1.84,0-2,.24-2.06,2.1,0,1,0,2,0,3,0,2.76.18,2.91,2.9,2.9,6.88,0,13.76,0,20.65,0,4.8,0,9.59,0,14.39,0,2,0,2.24-.31,2.25-2.3,0-1.15,0-2.29,0-3.44,0-2-.19-2.22-2.25-2.23Z"/><path class="cls-8" d="M1417,9055.29q0,15.42,0,30.84c0,5.17,0,10.33,0,15.5.06,6.05,4.14,10.1,10.16,10.11q14.17,0,28.34,0a9.26,9.26,0,0,0,9.18-6.25,14.72,14.72,0,0,0,.71-4.91q0-23.56,0-47.12H1417Q1417,9054.37,1417,9055.29Zm24.21,32.33a8,8,0,1,1-8,7.89A8,8,0,0,1,1441.21,9087.62Z"/><rect class="cls-5" x="1646.31" y="8967.73" width="4.07" height="79.64"/><rect class="cls-5" x="1670.41" y="8967.73" width="4.07" height="79.64"/><rect class="cls-5" x="1694.52" y="8967.73" width="4.07" height="79.64"/><rect class="cls-12" x="1743.22" y="9024.66" width="8.41" height="25.33" transform="translate(-7289.89 10784.75) rotate(-90)"/><rect class="cls-12" x="1779.93" y="9024.66" width="8.41" height="25.33" transform="translate(-7253.19 10821.46) rotate(-90)"/><rect class="cls-12" x="1743.22" y="9042.16" width="8.41" height="25.33" transform="translate(-7307.39 10802.25) rotate(-90)"/><rect class="cls-12" x="1646.64" y="9042.48" width="3.42" height="11.28" transform="translate(-7399.77 10696.46) rotate(-90)"/><rect class="cls-12" x="1694.84" y="9001.51" width="3.42" height="11.28" transform="translate(-7310.6 10703.7) rotate(-90)"/><rect class="cls-12" x="1670.74" y="9025.22" width="3.42" height="11.28" transform="translate(-7358.41 10703.31) rotate(-90)"/><rect class="cls-5" x="1779.93" y="9042.16" width="8.41" height="25.33" transform="translate(-7270.69 10838.96) rotate(-90)"/><rect class="cls-5" x="1743.22" y="8994.89" width="8.41" height="25.33" transform="translate(-7260.12 10754.98) rotate(-90)"/><rect class="cls-12" x="1779.93" y="8994.89" width="8.41" height="25.33" transform="translate(-7223.41 10791.68) rotate(-90)"/><circle class="cls-14" cx="2317.52" cy="9129.41" r="9.88"/><circle class="cls-14" cx="2406.23" cy="9128.62" r="9.88"/><circle class="cls-14" cx="2494.95" cy="9128.62" r="9.88"/><path class="cls-8" d="M2267.82,9031.62q0-22.93,0-45.87c0-4.2,1.55-7.58,5.47-9.42a11.15,11.15,0,0,1,4.52-1c9.44-.09,18.89-.06,28.34,0,5.87,0,10,4,10.07,9.86.09,4.8,0,9.6,0,14.4q0,38.67,0,77.33a14.71,14.71,0,0,1-.71,4.91,9.26,9.26,0,0,1-9.18,6.25q-14.17,0-28.34,0c-6,0-10.1-4.06-10.16-10.11-.05-5.17,0-10.33,0-15.5Q2267.82,9047,2267.82,9031.62Zm24.3-28.09c-6,0-12.09,0-18.14,0-1.49,0-2.09.58-2,2,.06,1.2,0,2.4,0,3.6,0,2.17.26,2.44,2.42,2.44h25.48c3.44,0,6.88,0,10.32,0,1.37,0,2-.57,2-2s0-2.61,0-3.91c0-1.93-.25-2.19-2.16-2.19Zm-.1-12v0h-1.1c-5.63,0-11.26,0-16.89,0-1.84,0-2,.24-2.06,2.1,0,1,0,2,0,3,0,2.76.18,2.91,2.9,2.9,6.88,0,13.76,0,20.65,0,4.8,0,9.59,0,14.39,0,2,0,2.24-.31,2.25-2.3,0-1.15,0-2.29,0-3.44,0-2-.19-2.22-2.25-2.23Zm-.06,88.41a8,8,0,1,0-8-8.08A8,8,0,0,0,2292,9079.92Z"/><path class="cls-12" d="M2292.11,9003.52h17.82c1.91,0,2.14.25,2.16,2.19,0,1.3,0,2.61,0,3.91s-.6,2-2,2c-3.44,0-6.88,0-10.32,0h-25.48c-2.16,0-2.43-.27-2.42-2.44,0-1.2.07-2.4,0-3.6-.07-1.47.54-2.06,2-2C2280,9003.55,2286.07,9003.52,2292.11,9003.52Z"/><path class="cls-12" d="M2292,8991.51h17.83c2.06,0,2.24.2,2.25,2.23,0,1.15,0,2.29,0,3.44,0,2-.28,2.29-2.25,2.3-4.8,0-9.59,0-14.39,0-6.88,0-13.76,0-20.65,0-2.72,0-2.9-.14-2.9-2.9,0-1,0-2,0-3,0-1.86.22-2.09,2.06-2.1,5.63,0,11.26,0,16.89,0h1.1Z"/><path class="cls-12" d="M2292,9079.92a8,8,0,1,1,8.13-7.93A8,8,0,0,1,2292,9079.92Z"/><path class="cls-8" d="M2364.2,9031.62q0-22.93,0-45.87c0-4.2,1.55-7.58,5.47-9.42a11.15,11.15,0,0,1,4.52-1c9.44-.09,18.89-.06,28.34,0,5.87,0,10,4,10.07,9.86.09,4.8,0,9.6,0,14.4q0,38.67,0,77.33a14.71,14.71,0,0,1-.71,4.91,9.26,9.26,0,0,1-9.18,6.25q-14.17,0-28.34,0c-6,0-10.1-4.06-10.16-10.11-.05-5.17,0-10.33,0-15.5Q2364.19,9047,2364.2,9031.62Zm24.3-28.09c-6,0-12.09,0-18.14,0-1.49,0-2.09.58-2,2,.06,1.2,0,2.4,0,3.6,0,2.17.26,2.44,2.42,2.44h25.48c3.44,0,6.88,0,10.32,0,1.37,0,2-.57,2-2s0-2.61,0-3.91c0-1.93-.25-2.19-2.16-2.19Zm-.1-12v0h-1.1c-5.63,0-11.26,0-16.89,0-1.84,0-2,.24-2.06,2.1,0,1,0,2,0,3,0,2.76.18,2.91,2.9,2.9,6.88,0,13.76,0,20.65,0,4.8,0,9.59,0,14.39,0,2,0,2.24-.31,2.25-2.3,0-1.15,0-2.29,0-3.44,0-2-.19-2.22-2.25-2.23Zm-.06,88.41a8,8,0,1,0-8-8.08A8,8,0,0,0,2388.33,9079.92Z"/><path class="cls-12" d="M2388.49,9003.52h17.82c1.91,0,2.14.25,2.16,2.19,0,1.3,0,2.61,0,3.91s-.6,2-2,2c-3.44,0-6.88,0-10.32,0h-25.48c-2.16,0-2.43-.27-2.42-2.44,0-1.2.07-2.4,0-3.6-.07-1.47.54-2.06,2-2C2376.4,9003.55,2382.45,9003.52,2388.49,9003.52Z"/><path class="cls-12" d="M2388.39,8991.51h17.83c2.06,0,2.24.2,2.25,2.23,0,1.15,0,2.29,0,3.44,0,2-.28,2.29-2.25,2.3-4.8,0-9.59,0-14.39,0-6.88,0-13.76,0-20.65,0-2.72,0-2.9-.14-2.9-2.9,0-1,0-2,0-3,0-1.86.22-2.09,2.06-2.1,5.63,0,11.26,0,16.89,0h1.1Z"/><path class="cls-12" d="M2388.33,9079.92a8,8,0,1,1,8.13-7.93A8,8,0,0,1,2388.33,9079.92Z"/><path class="cls-8" d="M2460.85,9031.62q0-22.93,0-45.87c0-4.2,1.55-7.58,5.47-9.42a11.15,11.15,0,0,1,4.52-1c9.44-.09,18.89-.06,28.34,0,5.87,0,10,4,10.07,9.86.09,4.8,0,9.6,0,14.4q0,38.67,0,77.33a14.71,14.71,0,0,1-.71,4.91,9.26,9.26,0,0,1-9.18,6.25q-14.17,0-28.34,0c-6,0-10.1-4.06-10.16-10.11-.05-5.17,0-10.33,0-15.5Q2460.85,9047,2460.85,9031.62Zm24.3-28.09c-6,0-12.09,0-18.14,0-1.49,0-2.09.58-2,2,.06,1.2,0,2.4,0,3.6,0,2.17.26,2.44,2.42,2.44h25.48c3.44,0,6.88,0,10.32,0,1.37,0,2-.57,2-2s0-2.61,0-3.91c0-1.93-.25-2.19-2.16-2.19Zm-.1-12v0H2484c-5.63,0-11.26,0-16.89,0-1.84,0-2,.24-2.06,2.1,0,1,0,2,0,3,0,2.76.18,2.91,2.9,2.9,6.88,0,13.76,0,20.65,0,4.8,0,9.59,0,14.39,0,2,0,2.24-.31,2.25-2.3,0-1.15,0-2.29,0-3.44,0-2-.19-2.22-2.25-2.23Zm-.06,88.41a8,8,0,1,0-8-8.08A8,8,0,0,0,2485,9079.92Z"/><path class="cls-12" d="M2485.15,9003.52H2503c1.91,0,2.14.25,2.16,2.19,0,1.3,0,2.61,0,3.91s-.6,2-2,2c-3.44,0-6.88,0-10.32,0h-25.48c-2.16,0-2.43-.27-2.42-2.44,0-1.2.07-2.4,0-3.6-.07-1.47.54-2.06,2-2C2473.06,9003.55,2479.1,9003.52,2485.15,9003.52Z"/><path class="cls-12" d="M2485,8991.51h17.83c2.06,0,2.24.2,2.25,2.23,0,1.15,0,2.29,0,3.44,0,2-.28,2.29-2.25,2.3-4.8,0-9.59,0-14.39,0-6.88,0-13.76,0-20.65,0-2.72,0-2.9-.14-2.9-2.9,0-1,0-2,0-3,0-1.86.22-2.09,2.06-2.1,5.63,0,11.26,0,16.89,0h1.1Z"/><path class="cls-12" d="M2485,9079.92a8,8,0,1,1,8.13-7.93A8,8,0,0,1,2485,9079.92Z"/><rect class="cls-16" x="613.94" y="6343.48" width="514.74" height="71.69"/><rect class="cls-16" x="613.94" y="7009.48" width="514.74" height="71.69"/><rect class="cls-9" x="1428.01" y="9522.88" width="149.07" height="106.56" rx="11.87" ry="11.87"/><path class="cls-9" d="M1589.47,9659.61H1416.71a6.3,6.3,0,0,1-5-10.17l14.38-18.49a6.3,6.3,0,0,1,5-2.43h143a6.3,6.3,0,0,1,4.85,2.28l15.35,18.49A6.3,6.3,0,0,1,1589.47,9659.61Z"/><path class="cls-12" d="M1452.17,9538.85h102a6.87,6.87,0,0,1,6.87,6.87v60.35a8.21,8.21,0,0,1-8.21,8.21H1452.17a8.21,8.21,0,0,1-8.21-8.21v-59A8.21,8.21,0,0,1,1452.17,9538.85Z"/><path class="cls-12" d="M1516.73,9648.83h-27.29a1.17,1.17,0,0,1-1-1.78l3.1-5.1a1.17,1.17,0,0,1,1-.56h21.34a1.17,1.17,0,0,1,1,.6l2.85,5.1A1.17,1.17,0,0,1,1516.73,9648.83Z"/><rect class="cls-16" x="336.56" y="9020.13" width="485.56" height="67.63"/><rect class="cls-12" x="399.7" y="8459.52" width="360.15" height="560.33"/><path class="cls-14" d="M488.12,8970.88a40.31,40.31,0,1,0-50.45,26.53l12-38.49Z"/><path class="cls-14" d="M564.5,8984.78a40.31,40.31,0,1,0-56.78,5.06l25.86-30.92Z"/><path class="cls-14" d="M646.52,9005.62a40.31,40.31,0,1,0-56.82-4.51L620.37,8975Z"/><path class="cls-14" d="M669.61,8970.88a40.31,40.31,0,1,1,50.45,26.53l-12-38.49Z"/><path class="cls-14" d="M488.12,8879.38a40.31,40.31,0,1,0-50.45,26.53l12-38.49Z"/><path class="cls-14" d="M574.39,8890.08a40.31,40.31,0,1,0-54,18.15l17.94-36.09Z"/><path class="cls-14" d="M647.86,8904a40.31,40.31,0,1,0-56.54-7.22l31.88-24.66Z"/><path class="cls-14" d="M681.52,8897.86a40.31,40.31,0,1,1,56.86-4l-30.43-26.43Z"/><path class="cls-14" d="M488.12,8790.71a40.31,40.31,0,1,0-50.45,26.53l12-38.49Z"/><path class="cls-14" d="M559.86,8799.87A40.31,40.31,0,1,0,503,8795.6l30.56-26.28Z"/><path class="cls-14" d="M637.51,8807a40.31,40.31,0,1,0-52-23.37l37.68-14.31Z"/><path class="cls-14" d="M669.61,8790.71a40.31,40.31,0,1,1,50.45,26.53l-12-38.49Z"/><path class="cls-14" d="M473,8714.13a40.31,40.31,0,1,0-56.83-4.45l30.64-26.19Z"/><path class="cls-14" d="M571.5,8703.76A40.31,40.31,0,1,0,519.9,8728l13.68-37.91Z"/><path class="cls-14" d="M643,8716.52a40.31,40.31,0,1,0-55.65-12.32l34-21.67Z"/><path class="cls-14" d="M691.83,8716.66a40.31,40.31,0,1,1,55.6-12.55l-34.08-21.53Z"/><path class="cls-14" d="M475.86,8630.17a40.31,40.31,0,1,0-56.83-4.45l30.64-26.19Z"/><path class="cls-14" d="M553.52,8634.55a40.31,40.31,0,1,0-55-15.09l35-19.94Z"/><path class="cls-14" d="M659.5,8605.19a40.31,40.31,0,1,0-50.33,26.75L621,8593.4Z"/><path class="cls-14" d="M681,8629.45a40.31,40.31,0,1,1,57,.92l-28-29Z"/><path class="cls-14" d="M488.08,8524.94a40.31,40.31,0,1,0-48.34,30.2l9.07-39.27Z"/><path class="cls-14" d="M571.5,8518.87a40.31,40.31,0,1,0-51.59,24.23l13.68-37.91Z"/><path class="cls-14" d="M651.83,8525.86A40.31,40.31,0,1,0,595,8530l26.33-30.51Z"/><path class="cls-14" d="M671,8530.06a40.31,40.31,0,1,1,52,23.31l-14.36-37.66Z"/><rect class="cls-12" x="443.8" y="9257" width="267.3" height="322.5"/><rect class="cls-12" x="426" y="9214.37" width="302.89" height="42.63"/><rect class="cls-12" x="336.56" y="8391.89" width="485.56" height="67.63"/><circle class="cls-9" cx="535.32" cy="8999.54" r="20"/><circle class="cls-9" cx="531.71" cy="9129.76" r="20.89"/><circle class="cls-9" cx="645.85" cy="9153.34" r="20.89"/><circle class="cls-9" cx="487.21" cy="9054.25" r="20"/><circle class="cls-9" cx="461.6" cy="8982.58" r="16.84"/><circle class="cls-9" cx="696.12" cy="8982.58" r="16.84"/><circle class="cls-9" cx="466.32" cy="8897.69" r="16.84"/><circle class="cls-9" cx="710.22" cy="8897.63" r="16.84" transform="translate(-4576.91 1706.07) rotate(-31.76)"/><circle class="cls-9" cx="686.69" cy="8820.33" r="16.84"/><circle class="cls-9" cx="444.37" cy="8709.89" r="16.84" transform="translate(-7161.53 4442.57) rotate(-57.78)"/><circle class="cls-9" cx="719.59" cy="8708.36" r="16.84" transform="translate(-5478.2 2548.76) rotate(-40.45)"/><circle class="cls-9" cx="710.16" cy="8632.9" r="16.84" transform="translate(-5431.5 2524.6) rotate(-40.45)"/><circle class="cls-9" cx="527.38" cy="8626.88" r="16.84" transform="translate(-7052.54 4474.05) rotate(-57.78)"/><circle class="cls-9" cx="445.31" cy="8649.52" r="16.84" transform="translate(-7110.01 4415.19) rotate(-57.78)"/><circle class="cls-9" cx="544.36" cy="8531.61" r="16.84" transform="translate(-6964.01 4443.93) rotate(-57.78)"/><circle class="cls-9" cx="635.15" cy="8617.4" r="16.84" transform="translate(-7558.82 5874.81) rotate(-67.28)"/><circle class="cls-9" cx="622.89" cy="8538.16" r="16.84" transform="translate(-7493.26 5814.86) rotate(-67.28)"/><circle class="cls-9" cx="462.51" cy="8538.57" r="16.84" transform="translate(-633.77 58.05) rotate(-4.27)"/><circle class="cls-9" cx="698.19" cy="8540.07" r="16.84" transform="translate(-534.74 60.67) rotate(-3.6)"/><circle class="cls-9" cx="466.46" cy="8826.91" r="20"/><circle class="cls-9" cx="618.33" cy="9034.44" r="20"/><circle class="cls-9" cx="607.96" cy="8800.5" r="20"/><circle class="cls-9" cx="618.33" cy="8733.53" r="20"/><circle class="cls-9" cx="547.59" cy="8724.09" r="20"/><circle class="cls-9" cx="524.95" cy="8815.59" r="20"/><circle class="cls-9" cx="553.25" cy="8910.87" r="20"/><circle class="cls-9" cx="620.22" cy="8908.98" r="20"/><circle class="cls-9" cx="556.56" cy="9549.31" r="20.89"/><circle class="cls-9" cx="483.36" cy="9523.17" r="20.89"/><circle class="cls-9" cx="510.72" cy="9538.4" r="20.89"/><circle class="cls-9" cx="535.67" cy="9519.53" r="20.89"/><circle class="cls-9" cx="590.09" cy="9543.79" r="20.89"/><circle class="cls-9" cx="594" cy="9507.81" r="20.89"/><circle class="cls-9" cx="636.31" cy="9543.79" r="20.89"/><circle class="cls-9" cx="624.99" cy="9523.04" r="20.89"/><circle class="cls-9" cx="666.5" cy="9528.7" r="20.89"/><circle class="cls-9" cx="645.74" cy="9502.28" r="20.89"/><circle class="cls-9" cx="678.09" cy="9493.12" r="20.89"/><circle class="cls-9" cx="645.61" cy="9418.25" r="20.89"/><circle class="cls-9" cx="631.6" cy="9481.53" r="20.89"/><circle class="cls-9" cx="594" cy="9484.36" r="20.89"/><circle class="cls-9" cx="559.27" cy="9493.12" r="20.89"/><circle class="cls-9" cx="504.25" cy="9496.62" r="20.89"/><circle class="cls-9" cx="480.67" cy="9477.76" r="20.89"/><circle class="cls-9" cx="522.17" cy="9466.44" r="20.89"/><circle class="cls-9" cx="569.34" cy="9456.06" r="20.89"/><circle class="cls-9" cx="666.5" cy="9456.06" r="20.89"/><circle class="cls-9" cx="624.99" cy="9451.34" r="20.89"/><circle class="cls-9" cx="604.24" cy="9433.42" r="20.89"/><circle class="cls-9" cx="562.73" cy="9424.93" r="20.89"/><circle class="cls-9" cx="531.6" cy="9433.42" r="20.89"/><circle class="cls-9" cx="486.33" cy="9440.02" r="20.89"/><circle class="cls-9" cx="507.08" cy="9355.13" r="20.89"/><circle class="cls-9" cx="666.5" cy="9332.49" r="20.89"/><circle class="cls-9" cx="577.83" cy="9246.65" r="20.89"/><rect class="cls-14" x="822.11" y="9474.16" width="648.05" height="345.25"/><rect class="cls-23" x="864.56" y="9509.75" width="250.92" height="210.23"/><rect class="cls-24" x="1146.14" y="9636.55" width="298.56" height="83.43"/><rect class="cls-14" x="1469.47" y="9662.12" width="1030.53" height="106.59"/><rect class="cls-12" x="1512.41" y="9768.48" width="74.83" height="128.29"/><rect class="cls-12" x="822.11" y="9768.71" width="648.05" height="145.03"/><rect class="cls-12" x="1469.32" y="9676.58" width="1030.68" height="77.67"/><rect class="cls-14" x="1497.03" y="9896.77" width="105.58" height="16.98"/><rect class="cls-14" x="1523.46" y="9852.43" width="52.73" height="5.66"/><rect class="cls-14" x="1523.46" y="9867.05" width="52.73" height="5.66"/><rect class="cls-14" x="1523.46" y="9881.67" width="52.73" height="5.66"/><rect class="cls-14" x="904.65" y="9823.78" width="174.99" height="5.66"/><rect class="cls-14" x="904.65" y="9838.4" width="174.99" height="5.66"/><rect class="cls-14" x="904.65" y="9853.02" width="174.99" height="5.66"/><rect class="cls-14" x="1208.39" y="9823.78" width="174.99" height="5.66"/><rect class="cls-14" x="1208.39" y="9838.4" width="174.99" height="5.66"/><rect class="cls-14" x="1208.39" y="9853.02" width="174.99" height="5.66"/><rect class="cls-12" x="1910.48" y="9768.48" width="74.83" height="128.29"/><rect class="cls-14" x="1895.11" y="9896.77" width="105.58" height="16.98"/><circle class="cls-14" cx="1548" cy="9713.29" r="12.74"/><circle class="cls-14" cx="1662.38" cy="9713.29" r="12.74"/><circle class="cls-14" cx="1776.77" cy="9713.29" r="12.74"/><circle class="cls-14" cx="1891.16" cy="9713.29" r="12.74"/><circle class="cls-14" cx="2005.55" cy="9714.39" r="12.74"/><rect class="cls-14" x="1921.53" y="9852.43" width="52.73" height="5.66"/><rect class="cls-14" x="1921.53" y="9867.05" width="52.73" height="5.66"/><rect class="cls-14" x="1921.53" y="9881.67" width="52.73" height="5.66"/><rect class="cls-14" x="703.08" y="9662.48" width="119.03" height="48.29"/><path class="cls-14" d="M602.5,9596.87v-17.34l-48.29,0,.13,17.31c0,63,45.2,114.05,106.42,114.05H724v-48.29H660.35C628.06,9662.56,602.5,9631.1,602.5,9596.87Z"/><circle class="cls-12" cx="1157.1" cy="9600.59" r="9.35"/><circle class="cls-12" cx="1185.06" cy="9600.59" r="9.35"/><circle class="cls-9" cx="1157.1" cy="9544.27" r="9.35"/><circle class="cls-12" cx="1185.06" cy="9544.27" r="9.35"/><circle class="cls-12" cx="1157.1" cy="9571.96" r="9.35"/><circle class="cls-12" cx="1185.06" cy="9571.96" r="9.35"/><circle class="cls-12" cx="1190.59" cy="9676.58" r="23.03"/><circle class="cls-14" cx="1190.59" cy="9676.58" r="5.19"/><circle class="cls-12" cx="1157.1" cy="9600.28" r="9.35"/><circle class="cls-9" cx="1185.06" cy="9600.28" r="9.35"/><line class="cls-25" x1="1190.59" y1="9676.58" x2="1203.21" y2="9663.61"/><circle class="cls-12" cx="1260.79" cy="9676.58" r="23.03"/><circle class="cls-14" cx="1260.79" cy="9676.58" r="5.19"/><line class="cls-25" x1="1248.17" y1="9663.61" x2="1260.79" y2="9676.58"/><circle class="cls-12" cx="1330.98" cy="9676.58" r="23.03"/><circle class="cls-14" cx="1330.98" cy="9676.58" r="5.19"/><line class="cls-26" x1="1330.98" y1="9676.62" x2="1330.98" y2="9694.71"/><circle class="cls-12" cx="1401.18" cy="9676.58" r="23.03"/><circle class="cls-14" cx="1401.18" cy="9676.58" r="5.19"/><line class="cls-25" x1="1413.98" y1="9689.38" x2="1401.18" y2="9676.58"/><path class="cls-21" d="M990.12,9583.61q11.49,0,23,0c2.46,0,2.76.33,2.79,2.82,0,1.68,0,3.36,0,5s-.78,2.55-2.54,2.54c-4.43,0-8.87,0-13.3,0H967.23c-2.78,0-3.13-.35-3.12-3.15,0-1.55.09-3.09,0-4.64-.09-1.89.69-2.65,2.61-2.64C974.53,9583.64,982.33,9583.61,990.12,9583.61Z"/><path class="cls-21" d="M990,9568.12q11.5,0,23,0c2.65,0,2.88.25,2.91,2.87,0,1.48,0,3,0,4.44,0,2.56-.37,3-2.9,3-6.19,0-12.37,0-18.56,0-8.87,0-17.75,0-26.62,0-3.5,0-3.75-.18-3.74-3.74,0-1.28,0-2.55,0-3.83,0-2.4.28-2.69,2.66-2.7,7.26,0,14.52,0,21.78,0H990Z"/><rect class="cls-5" x="1254.48" y="9506.94" width="5.25" height="102.69"/><rect class="cls-5" x="1285.55" y="9506.94" width="5.25" height="102.69"/><rect class="cls-5" x="1316.63" y="9506.94" width="5.25" height="102.69"/><rect class="cls-12" x="1379.43" y="9580.34" width="10.85" height="32.66" transform="translate(-8211.82 10981.52) rotate(-90)"/><rect class="cls-12" x="1426.76" y="9580.34" width="10.85" height="32.66" transform="translate(-8164.48 11028.86) rotate(-90)"/><rect class="cls-12" x="1379.43" y="9602.91" width="10.85" height="32.66" transform="translate(-8234.38 11004.09) rotate(-90)"/><rect class="cls-12" x="1254.9" y="9603.32" width="4.41" height="14.54" transform="translate(-8353.49 10867.69) rotate(-90)"/><rect class="cls-12" x="1317.05" y="9550.49" width="4.41" height="14.54" transform="translate(-8238.51 10877.02) rotate(-90)"/><rect class="cls-12" x="1285.97" y="9581.07" width="4.41" height="14.54" transform="translate(-8300.17 10876.52) rotate(-90)"/><rect class="cls-5" x="1426.76" y="9602.91" width="10.85" height="32.66" transform="translate(-8187.05 11051.42) rotate(-90)"/><rect class="cls-5" x="1379.43" y="9541.95" width="10.85" height="32.66" transform="translate(-8173.43 10943.14) rotate(-90)"/><rect class="cls-12" x="1426.76" y="9541.95" width="10.85" height="32.66" transform="translate(-8126.1 10990.47) rotate(-90)"/><circle class="cls-14" cx="2120.12" cy="9714.39" r="12.74"/><circle class="cls-14" cx="2234.51" cy="9715.42" r="12.74"/><circle class="cls-14" cx="2348.87" cy="9715.42" r="12.74"/><circle class="cls-14" cx="2463.23" cy="9715.42" r="12.74"/><rect class="cls-9" x="2120.17" y="9524.68" width="149.07" height="106.56" rx="11.87" ry="11.87"/><path class="cls-9" d="M2281.63,9661.41H2108.87a6.3,6.3,0,0,1-5-10.17l14.38-18.49a6.3,6.3,0,0,1,5-2.43h143a6.3,6.3,0,0,1,4.85,2.28l15.35,18.49A6.3,6.3,0,0,1,2281.63,9661.41Z"/><path class="cls-12" d="M2144.33,9540.64h102a6.87,6.87,0,0,1,6.87,6.87v60.35a8.21,8.21,0,0,1-8.21,8.21H2144.33a8.21,8.21,0,0,1-8.21-8.21v-59A8.21,8.21,0,0,1,2144.33,9540.64Z"/><path class="cls-12" d="M2208.9,9650.63h-27.29a1.17,1.17,0,0,1-1-1.78l3.1-5.1a1.17,1.17,0,0,1,1-.56H2206a1.17,1.17,0,0,1,1,.6l2.85,5.1A1.17,1.17,0,0,1,2208.9,9650.63Z"/><rect class="cls-9" x="2349.51" y="9525.65" width="149.07" height="106.56" rx="11.87" ry="11.87"/><path class="cls-9" d="M2511,9662.38H2338.22a6.3,6.3,0,0,1-5-10.17l14.38-18.49a6.3,6.3,0,0,1,5-2.43h143a6.3,6.3,0,0,1,4.85,2.28l15.35,18.49A6.3,6.3,0,0,1,2511,9662.38Z"/><path class="cls-12" d="M2373.67,9541.62h102a6.87,6.87,0,0,1,6.87,6.87v60.35a8.21,8.21,0,0,1-8.21,8.21H2373.67a8.21,8.21,0,0,1-8.21-8.21v-59A8.21,8.21,0,0,1,2373.67,9541.62Z"/><path class="cls-12" d="M2438.24,9651.6h-27.29a1.17,1.17,0,0,1-1-1.78l3.1-5.1a1.17,1.17,0,0,1,1-.56h21.34a1.17,1.17,0,0,1,1,.6l2.85,5.1A1.17,1.17,0,0,1,2438.24,9651.6Z"/><rect class="cls-9" x="1886.97" y="9525.65" width="149.07" height="106.56" rx="11.87" ry="11.87"/><path class="cls-9" d="M2048.43,9662.38H1875.68a6.3,6.3,0,0,1-5-10.17l14.38-18.49a6.3,6.3,0,0,1,5-2.43h143a6.3,6.3,0,0,1,4.85,2.28l15.35,18.49A6.3,6.3,0,0,1,2048.43,9662.38Z"/><path class="cls-12" d="M1911.13,9541.62h102a6.87,6.87,0,0,1,6.87,6.87v60.35a8.21,8.21,0,0,1-8.21,8.21H1911.13a8.21,8.21,0,0,1-8.21-8.21v-59A8.21,8.21,0,0,1,1911.13,9541.62Z"/><path class="cls-12" d="M1975.7,9651.6h-27.29a1.17,1.17,0,0,1-1-1.78l3.1-5.1a1.17,1.17,0,0,1,1-.56h21.34a1.17,1.17,0,0,1,1,.6l2.85,5.1A1.17,1.17,0,0,1,1975.7,9651.6Z"/><rect class="cls-9" x="1656.29" y="9522.88" width="149.07" height="106.56" rx="11.87" ry="11.87"/><path class="cls-9" d="M1817.75,9659.61H1645a6.3,6.3,0,0,1-5-10.17L1654.4,9631a6.3,6.3,0,0,1,5-2.43h143a6.3,6.3,0,0,1,4.85,2.28l15.35,18.49A6.3,6.3,0,0,1,1817.75,9659.61Z"/><path class="cls-12" d="M1680.45,9538.85h102a6.87,6.87,0,0,1,6.87,6.87v60.35a8.21,8.21,0,0,1-8.21,8.21H1680.45a8.21,8.21,0,0,1-8.21-8.21v-59A8.21,8.21,0,0,1,1680.45,9538.85Z"/><path class="cls-12" d="M1745,9648.83h-27.29a1.17,1.17,0,0,1-1-1.78l3.1-5.1a1.17,1.17,0,0,1,1-.56h21.34a1.17,1.17,0,0,1,1,.6l2.85,5.1A1.17,1.17,0,0,1,1745,9648.83Z"/><rect class="cls-9" x="913.94" y="9627.69" width="149.07" height="28.24" rx="6.11" ry="6.11"/><path class="cls-9" d="M1075.4,9686.1H902.64a6.3,6.3,0,0,1-5-10.17L912,9657.44a6.3,6.3,0,0,1,5-2.43h143a6.3,6.3,0,0,1,4.85,2.28l15.35,18.49A6.3,6.3,0,0,1,1075.4,9686.1Z"/><path class="cls-12" d="M1002.66,9675.32H975.37a1.17,1.17,0,0,1-1-1.78l3.1-5.1a1.17,1.17,0,0,1,1-.56h21.34a1.17,1.17,0,0,1,1,.6l2.85,5.1A1.17,1.17,0,0,1,1002.66,9675.32Z"/><rect class="cls-27" x="914.39" y="9549.37" width="148.06" height="106.56" rx="11.83" ry="11.83"/><rect class="cls-9" x="913.88" y="9618.21" width="149.07" height="16.97" rx="0.01" ry="0.01"/><path class="cls-28" d="M938.1,9565.34h102a6.87,6.87,0,0,1,6.87,6.87v60.35a8.21,8.21,0,0,1-8.21,8.21H938.1a8.21,8.21,0,0,1-8.21-8.21v-59A8.21,8.21,0,0,1,938.1,9565.34Z"/><polygon class="cls-29" points="1383.1 1310.07 1668.52 1089.92 1722.2 1089.85 1722.29 1052.58 1639.6 1052.9 1383.1 1249.02 1383.1 1310.07"/><line class="cls-29" x1="1668.52" y1="1089.92" x2="1668.52" y2="1052.58"/><line class="cls-29" x1="1639.6" y1="1052.9" x2="1666.36" y2="1089.92"/><line class="cls-29" x1="1586.82" y1="1093.25" x2="1614.81" y2="1131.97"/><line class="cls-29" x1="1613.95" y1="1073.4" x2="1613.57" y2="1130.26"/><line class="cls-29" x1="1613.95" y1="1073.96" x2="1666.36" y2="1089.92"/><line class="cls-29" x1="1533.96" y1="1133.67" x2="1561.87" y2="1172.28"/><line class="cls-29" x1="1561.01" y1="1113.71" x2="1560.63" y2="1170.57"/><line class="cls-29" x1="1561.01" y1="1114.27" x2="1613.42" y2="1130.23"/><line class="cls-29" x1="1481.13" y1="1174.06" x2="1508.88" y2="1212.45"/><line class="cls-29" x1="1508.02" y1="1153.88" x2="1507.64" y2="1210.74"/><line class="cls-29" x1="1508.02" y1="1154.44" x2="1560.43" y2="1170.4"/><line class="cls-29" x1="1428.25" y1="1214.49" x2="1456.28" y2="1253.26"/><line class="cls-29" x1="1455.42" y1="1194.69" x2="1455.04" y2="1251.55"/><line class="cls-29" x1="1455.42" y1="1195.25" x2="1507.83" y2="1211.21"/><line class="cls-29" x1="1402.82" y1="1236.26" x2="1402.44" y2="1293.11"/><line class="cls-29" x1="1402.82" y1="1236.81" x2="1455.23" y2="1252.77"/><line class="cls-29" x1="1695.3" y1="1054.27" x2="1670.17" y2="1088.55"/><line class="cls-29" x1="1695.05" y1="1054.61" x2="1720.66" y2="1088.34"/><line class="cls-29" x1="1383.1" y1="1266.77" x2="1402.63" y2="1293.79"/><rect class="cls-5" x="701.98" y="1127.69" width="169.42" height="328.32"/><rect class="cls-5" x="580.44" y="1267.61" width="136.27" height="188.4"/><rect class="cls-5" x="892.17" y="1176.52" width="207.57" height="279.5"/><rect class="cls-5" x="1046.34" y="1133.18" width="71.82" height="322.83"/><rect class="cls-5" x="1105.27" y="1270.03" width="82.87" height="185.99"/><rect class="cls-5" x="1180.77" y="1122.71" width="200.72" height="333.31"/><rect class="cls-5" x="1381.49" y="1277.39" width="147.32" height="178.62"/><rect class="cls-5" x="1521.44" y="1330.8" width="99.44" height="125.22"/><rect class="cls-5" x="1697.41" y="1088.83" width="126.87" height="367.18"/><rect class="cls-5" x="1782.45" y="1168.75" width="222.99" height="287.27"/><rect class="cls-5" x="531.11" y="1052.85" width="51.3" height="14.89"/><path class="cls-5" d="M554,1030.11c-.38-2.63-2.16-7.81-10.54-3.18-2.34,1.39-5.79-1.36-6.87-4.07-1.38,2.8-5.54,5.44-7,3.84-6.36,6.44-14.12-2.68-11.48-8.55-3.75,3.6-7.84-1-5.38-2.2-1.74-.67-6.28-3.82-4.31-7.57,4.38-7.13,13.12-.81,13.12-.81,5.67-6.26,8.39-.07,8.39-.07,10.31-9.25,11.74,4.92,11.74,4.92,5.21-3.5,7.32,7.07,7.32,7.07C555.38,1021.83,554.4,1027.27,554,1030.11Z"/><path class="cls-14" d="M1329.69,1032.87c-.35-2.46-2-7.31-9.86-3-2.19,1.3-5.42-1.27-6.43-3.8-1.29,2.62-5.19,5.09-6.52,3.59-6,6-13.21-2.51-10.74-8-3.51,3.37-7.33-.91-5-2.06-1.62-.63-5.88-3.58-4-7.08,4.1-6.67,12.28-.76,12.28-.76,5.31-5.86,7.85-.06,7.85-.06,9.65-8.66,11,4.6,11,4.6,4.87-3.28,6.85,6.62,6.85,6.62C1331,1025.12,1330.1,1030.21,1329.69,1032.87Z"/><path class="cls-14" d="M1638.62,1188.36c-.34-2.33-1.92-6.93-9.34-2.82-2.08,1.23-5.14-1.2-6.09-3.6-1.22,2.48-4.92,4.82-6.18,3.4-5.64,5.71-12.52-2.38-10.18-7.58-3.33,3.19-6.95-.87-4.77-1.95-1.54-.59-5.57-3.39-3.82-6.71,3.88-6.32,11.63-.72,11.63-.72,5-5.55,7.44-.06,7.44-.06,9.14-8.2,10.41,4.36,10.41,4.36,4.62-3.1,6.49,6.27,6.49,6.27C1639.87,1181,1639,1185.84,1638.62,1188.36Z"/><path class="cls-14" d="M1663.7,1184.72c-.2-1.42-1.17-4.21-5.68-1.72-1.26.75-3.12-.73-3.7-2.19-.74,1.51-3,2.93-3.75,2.07-3.43,3.47-7.61-1.44-6.18-4.6-2,1.94-4.22-.53-2.9-1.18-.94-.36-3.39-2.06-2.32-4.08,2.36-3.84,7.07-.44,7.07-.44,3.06-3.37,4.52,0,4.52,0,5.56-5,6.33,2.65,6.33,2.65,2.81-1.89,3.94,3.81,3.94,3.81C1664.47,1180.26,1663.94,1183.19,1663.7,1184.72Z"/><path class="cls-14" d="M1295.69,1004.4c-.25-1.31-1.28-3.91-5.67-1.76-1.22.65-3.11-.77-3.73-2.13-.69,1.37-2.86,2.61-3.65,1.79-3.29,3.09-7.57-1.57-6.26-4.43-1.94,1.72-4.19-.61-2.91-1.18-.94-.36-3.41-2-2.42-3.83,2.22-3.47,7-.19,7-.19,2.92-3,4.47.11,4.47.11,5.34-4.42,6.34,2.64,6.34,2.64,2.72-1.65,4,3.63,4,3.63C1296.3,1000.31,1295.87,1003,1295.69,1004.4Z"/><path class="cls-5" d="M513.26,1455.64H433.85c7.89-171.81,15.36-325,28.29-449.68l26.54-.11C500.37,1128.44,507.34,1288,513.26,1455.64Z"/><rect class="cls-5" x="449.21" y="1015.98" width="51.3" height="14.89"/><path class="cls-5" d="M472.34,997.33c-.64-4.43-3.64-13.16-17.75-5.36-3.94,2.34-9.76-2.28-11.58-6.85-2.32,4.72-9.34,9.16-11.73,6.46-10.72,10.84-23.78-4.52-19.34-14.39-6.32,6.06-13.2-1.64-9.07-3.7-2.92-1.13-10.59-6.44-7.25-12.74,7.38-12,22.1-1.37,22.1-1.37,9.55-10.55,14.14-.11,14.14-.11,17.37-15.58,19.78,8.29,19.78,8.29,8.77-5.9,12.33,11.91,12.33,11.91C474.73,983.38,473.08,992.55,472.34,997.33Z"/><path class="cls-5" d="M517.43,1456c7.3-157,14.6-297.37,26.6-413.19l26.54-.11c10.84,113.57,17.62,258.84,23.26,412.93Z"/><rect class="cls-12" x="736.29" y="1154.92" width="98.26" height="21.59"/><polygon class="cls-5" points="2110.77 1455.25 1882.2 1455.25 1882.2 1316.36 1951.07 1266.87 2110.77 1266.87 2110.77 1455.25"/><rect class="cls-5" x="1418.19" y="1244.56" width="32.62" height="142.58"/><rect class="cls-5" x="1478.07" y="1244.56" width="32.62" height="142.58"/><rect class="cls-5" x="1410.13" y="1244.56" width="47.18" height="9.65"/><rect class="cls-5" x="1470.8" y="1244.56" width="47.18" height="9.65"/><rect class="cls-5" x="389.44" y="1345.21" width="86.55" height="110.8"/><rect class="cls-14" x="874.71" y="1328.56" width="347.62" height="127.46"/><rect class="cls-14" x="1209.99" y="1060.2" width="155.4" height="168.27"/><rect class="cls-14" x="1160.53" y="1198.03" width="234.5" height="257.98"/><rect class="cls-14" x="1381.49" y="1379.59" width="178.59" height="76.42"/><rect class="cls-14" x="834.55" y="1207.37" width="90.01" height="248.65"/><rect class="cls-14" x="467.42" y="1197.7" width="97.95" height="258.32"/><rect class="cls-14" x="535.69" y="1289.13" width="247.32" height="166.89"/><rect class="cls-14" x="958.54" y="1312.38" width="30.18" height="144.13"/><rect class="cls-14" x="1040.91" y="1312.38" width="30.18" height="144.13"/><rect class="cls-14" x="628.55" y="1257.27" width="63.06" height="50.06"/><rect class="cls-14" x="1317.5" y="1039.01" width="14.18" height="26.21"/><rect class="cls-14" x="1339.58" y="1039.01" width="14.18" height="26.21"/><rect class="cls-14" x="1616.1" y="1203.65" width="220.86" height="252.37"/><rect class="cls-14" x="1744.76" y="1312.38" width="301.07" height="143.64"/><rect class="cls-14" x="1631.82" y="1189.34" width="14.18" height="26.21"/><rect class="cls-14" x="1657.76" y="1189.34" width="14.18" height="26.21"/><rect class="cls-14" x="624.33" y="1252.83" width="71.32" height="4.44"/><rect class="cls-14" x="562.16" y="1289.36" width="229.28" height="8.71"/><rect class="cls-12" x="1194.9" y="1254.21" width="18.29" height="41.83"/><rect class="cls-12" x="1218.23" y="1254.21" width="18.29" height="41.83"/><rect class="cls-12" x="1250.91" y="1254.21" width="18.29" height="41.83"/><rect class="cls-12" x="1274.23" y="1254.21" width="18.29" height="41.83"/><rect class="cls-12" x="1306.92" y="1254.21" width="18.29" height="41.83"/><rect class="cls-12" x="1330.24" y="1254.21" width="18.29" height="41.83"/><rect class="cls-12" x="1194.9" y="1313.19" width="18.29" height="41.83"/><rect class="cls-12" x="1218.23" y="1313.19" width="18.29" height="41.83"/><rect class="cls-12" x="1250.34" y="1313.19" width="18.29" height="41.83"/><rect class="cls-12" x="1273.66" y="1313.19" width="18.29" height="41.83"/><rect class="cls-12" x="1306.92" y="1313.19" width="18.29" height="41.83"/><rect class="cls-12" x="1330.24" y="1313.19" width="18.29" height="41.83"/><rect class="cls-12" x="1195.23" y="1372.16" width="18.29" height="41.83"/><rect class="cls-12" x="1218.56" y="1372.16" width="18.29" height="41.83"/><rect class="cls-12" x="1250.34" y="1372.16" width="18.29" height="41.83"/><rect class="cls-12" x="1273.66" y="1372.16" width="18.29" height="41.83"/><rect class="cls-12" x="1306.92" y="1372.16" width="18.29" height="41.83"/><rect class="cls-12" x="1330.24" y="1372.16" width="18.29" height="41.83"/><rect class="cls-12" x="857.13" y="1237.81" width="17.5" height="21.58"/><rect class="cls-12" x="883.42" y="1237.81" width="17.5" height="21.58"/><rect class="cls-12" x="857.13" y="1272.18" width="17.5" height="21.58"/><rect class="cls-12" x="883.42" y="1272.18" width="17.5" height="21.58"/><rect class="cls-12" x="857.13" y="1305.9" width="17.5" height="21.58"/><rect class="cls-12" x="883.42" y="1305.9" width="17.5" height="21.58"/><rect class="cls-12" x="857.13" y="1338.16" width="17.5" height="21.58"/><rect class="cls-12" x="883.42" y="1338.16" width="17.5" height="21.58"/><rect class="cls-12" x="857.66" y="1369.99" width="17.5" height="21.58"/><rect class="cls-12" x="883.95" y="1369.99" width="17.5" height="21.58"/><rect class="cls-12" x="857.66" y="1401.82" width="17.5" height="21.58"/><rect class="cls-12" x="883.95" y="1401.82" width="17.5" height="21.58"/><polygon class="cls-12" points="1534.71 1456.02 1530.64 1456.02 1530.35 1407.55 1412.01 1407.55 1412.01 1456.02 1407.97 1456.02 1407.97 1403.38 1534.71 1403.38 1534.71 1456.02"/><rect class="cls-12" x="1439.38" y="1421.97" width="30.09" height="34.04"/><rect class="cls-12" x="1474.81" y="1421.97" width="30.09" height="34.04"/><rect class="cls-12" x="1237.96" y="1079.76" width="98.67" height="10.98"/><rect class="cls-12" x="1237.96" y="1103.73" width="98.67" height="10.98"/><rect class="cls-12" x="1237.96" y="1127.69" width="98.67" height="10.98"/><rect class="cls-12" x="1237.96" y="1152.01" width="98.67" height="10.98"/><rect class="cls-12" x="1238.03" y="1176.52" width="98.67" height="10.98"/><rect class="cls-12" x="990.65" y="1345.93" width="19.05" height="10.55"/><rect class="cls-12" x="1015.78" y="1345.93" width="19.05" height="10.55"/><rect class="cls-12" x="990.65" y="1362.16" width="19.05" height="10.55"/><rect class="cls-12" x="1015.78" y="1362.16" width="19.05" height="10.55"/><rect class="cls-12" x="990.65" y="1378.38" width="19.05" height="10.55"/><rect class="cls-12" x="1015.78" y="1378.18" width="19.05" height="10.55"/><rect class="cls-12" x="990.65" y="1394.2" width="19.05" height="10.55"/><rect class="cls-12" x="1015.78" y="1394.2" width="19.05" height="10.55"/><rect class="cls-12" x="990.65" y="1410.01" width="19.05" height="10.55"/><rect class="cls-12" x="1015.78" y="1410.22" width="19.05" height="10.55"/><rect class="cls-12" x="990.65" y="1425.83" width="19.05" height="10.55"/><rect class="cls-12" x="1015.78" y="1425.83" width="19.05" height="10.55"/><rect class="cls-12" x="1076.93" y="1362.58" width="19.05" height="10.55"/><rect class="cls-12" x="1102.06" y="1362.58" width="19.05" height="10.55"/><rect class="cls-12" x="1076.93" y="1410.43" width="19.05" height="10.55"/><rect class="cls-12" x="1102.06" y="1410.64" width="19.05" height="10.55"/><rect class="cls-12" x="1126.21" y="1362.58" width="19.05" height="10.55"/><rect class="cls-12" x="1126.21" y="1410.43" width="19.05" height="10.55"/><rect class="cls-12" x="1856.6" y="1342.61" width="32.86" height="11.01"/><rect class="cls-12" x="1899.94" y="1342.61" width="32.86" height="11.01"/><rect class="cls-12" x="1856.6" y="1365.53" width="32.86" height="11.01"/><rect class="cls-12" x="1899.94" y="1365.53" width="32.86" height="11.01"/><rect class="cls-12" x="1942.93" y="1342.28" width="32.86" height="11.01"/><rect class="cls-12" x="1986.27" y="1342.28" width="32.86" height="11.01"/><rect class="cls-12" x="1942.93" y="1365.21" width="32.86" height="11.01"/><rect class="cls-12" x="1986.27" y="1365.21" width="32.86" height="11.01"/><rect class="cls-12" x="1656.06" y="1254.21" width="25.32" height="25.32"/><rect class="cls-12" x="1696.2" y="1254.21" width="25.32" height="25.32"/><rect class="cls-12" x="1736.1" y="1254.21" width="25.32" height="25.32"/><rect class="cls-12" x="1776" y="1254.21" width="25.32" height="25.32"/><rect class="cls-12" x="1656.06" y="1315.85" width="25.32" height="25.32"/><rect class="cls-12" x="1696.2" y="1315.85" width="25.32" height="25.32"/><rect class="cls-12" x="1736.1" y="1315.85" width="25.32" height="25.32"/><rect class="cls-12" x="1776" y="1315.85" width="25.32" height="25.32"/><rect class="cls-12" x="1656.06" y="1378.67" width="25.32" height="25.32"/><rect class="cls-12" x="1696.2" y="1378.67" width="25.32" height="25.32"/><rect class="cls-12" x="1736.1" y="1378.67" width="25.32" height="25.32"/><rect class="cls-12" x="1776" y="1378.67" width="25.32" height="25.32"/><rect class="cls-12" x="643.03" y="1320.34" width="14.07" height="105.14"/><rect class="cls-12" x="566.75" y="1320.19" width="11.97" height="11.97"/><rect class="cls-12" x="589.17" y="1320.19" width="11.97" height="11.97"/><rect class="cls-12" x="611.82" y="1320.19" width="11.97" height="11.97"/><rect class="cls-12" x="566.75" y="1357.49" width="11.97" height="11.97"/><rect class="cls-12" x="589.17" y="1357.49" width="11.97" height="11.97"/><rect class="cls-12" x="611.82" y="1357.49" width="11.97" height="11.97"/><rect class="cls-12" x="566.75" y="1394.75" width="11.97" height="11.97"/><rect class="cls-12" x="589.17" y="1394.75" width="11.97" height="11.97"/><rect class="cls-12" x="611.82" y="1394.75" width="11.97" height="11.97"/><rect class="cls-12" x="665.29" y="1319.98" width="14.07" height="105.14"/><rect class="cls-12" x="698.28" y="1319.98" width="11.97" height="11.97"/><rect class="cls-12" x="720.7" y="1319.98" width="11.97" height="11.97"/><rect class="cls-12" x="743.34" y="1319.98" width="11.97" height="11.97"/><rect class="cls-12" x="698.28" y="1357.28" width="11.97" height="11.97"/><rect class="cls-12" x="720.7" y="1357.28" width="11.97" height="11.97"/><rect class="cls-12" x="743.34" y="1357.28" width="11.97" height="11.97"/><rect class="cls-12" x="698.28" y="1394.54" width="11.97" height="11.97"/><rect class="cls-12" x="720.7" y="1394.54" width="11.97" height="11.97"/><rect class="cls-12" x="743.34" y="1394.54" width="11.97" height="11.97"/><rect class="cls-12" x="641.15" y="1264.39" width="36.39" height="20.78"/><path class="cls-12" d="M1904.71,1283.87l2.22-2.19q7.87-7.86,15.74-15.72a1.32,1.32,0,0,1,.83-.35c2.29,0,4.57,0,6.86,0a.76.76,0,0,1,.73.4,12.17,12.17,0,0,0,9.12,5.66,12.35,12.35,0,1,0-9-19.12,1.22,1.22,0,0,1-1.17.61c-4.07,0-8.14,0-12.2,0a2.2,2.2,0,0,0-1.73.73q-13.46,13.5-26.95,27a4.84,4.84,0,0,0-.39.51,17.17,17.17,0,0,1-3.76-3,18.28,18.28,0,0,1-4.85-9.52,14,14,0,0,1-.26-2.46c0-17-.05-34,0-51a17.11,17.11,0,0,1,4.66-11.5,18.22,18.22,0,0,1,10.49-5.86c1-.2,2.1-.21,3.23-.32v.68c0,4.25,0,8.5,0,12.74a.85.85,0,0,1-.44.83,12.21,12.21,0,0,0-5.69,9.33A12.38,12.38,0,0,0,1915,1229a1,1,0,0,1,.68-.37c4.9,0,9.79,0,14.69,0a.84.84,0,0,1,.77.45,12,12,0,0,0,11.62,5.61,11.74,11.74,0,0,0,9.64-6.43,12.34,12.34,0,0,0-21.29-12.47.85.85,0,0,1-.83.44q-7.24,0-14.47,0a.84.84,0,0,1-.83-.43,11.78,11.78,0,0,0-3.82-3.82.77.77,0,0,1-.4-.75q0-6.43,0-12.85c0-.43.11-.59.57-.59,12.42,0,24.84-.05,37.26,0a17.1,17.1,0,0,1,11.44,4.66,18.08,18.08,0,0,1,5.76,10,16.13,16.13,0,0,1,.36,3.26q0,25.08,0,50.17a17.59,17.59,0,0,1-4.68,11.93,18.44,18.44,0,0,1-13.64,6.15q-21.2,0-42.39,0h-.64Z"/><path class="cls-12" d="M1910.63,1222.39a6.12,6.12,0,1,1-6-6.16A6.1,6.1,0,0,1,1910.63,1222.39Z"/><path class="cls-12" d="M1935.42,1222.34a6.05,6.05,0,0,1,6.18-6.11,6.13,6.13,0,1,1-.2,12.26A6.07,6.07,0,0,1,1935.42,1222.34Z"/><path class="cls-12" d="M1935.42,1259.38a6.11,6.11,0,0,1,6.2-6.14,6.12,6.12,0,0,1-.18,12.24A6,6,0,0,1,1935.42,1259.38Z"/><path class="cls-12" d="M517.42,1273.87H500.77c-3.08,0-4.37-1.29-4.37-4.38q0-16.65,0-33.3c0-3.12,1.27-4.4,4.34-4.4h33.42c3,0,4.31,1.32,4.31,4.31q0,16.71,0,33.42c0,3-1.32,4.34-4.41,4.35Zm-.1-32.33c-2.9,0-5.8,0-8.7,0-1.9,0-2.46.52-2.46,2.37q0,8.88,0,17.77c0,1.9.53,2.43,2.4,2.43q8.82,0,17.64,0c2,0,2.52-.49,2.53-2.55q0-8.76,0-17.52c0-2-.51-2.48-2.46-2.5C523.28,1241.52,520.3,1241.53,517.32,1241.53Z"/><path class="cls-12" d="M519,1224.51c0,1,0,2.09,0,3.14,0,.69-.22,1-.94,1a6.8,6.8,0,0,1-1.37,0c-.3-.09-.71-.47-.72-.73q-.08-3.39,0-6.78a1.41,1.41,0,0,1,1.51-1.5,1.45,1.45,0,0,1,1.47,1.56c0,1.13,0,2.26,0,3.39Z"/><path class="cls-12" d="M489.09,1251.3c1,0,2.09,0,3.14,0,.77,0,1.07.27,1,1a7.46,7.46,0,0,0,0,1.13c0,.62-.18.93-.85.92-2.22,0-4.44,0-6.65,0a1.49,1.49,0,1,1,0-3c1.13-.05,2.26,0,3.39,0Z"/><path class="cls-12" d="M545.85,1251.32c1.09,0,2.18,0,3.26,0a1.5,1.5,0,1,1,0,3c-2.18,0-4.35,0-6.53,0-.72,0-1-.28-.93-1a5.57,5.57,0,0,0,0-1c-.08-.8.22-1.15,1.06-1.1,1,.05,2.09,0,3.14,0Z"/><path class="cls-12" d="M519,1281.25c0,1.09,0,2.18,0,3.26a1.5,1.5,0,1,1-3,0c0-2.18,0-4.35,0-6.53,0-.62.19-1,.86-.91a5.68,5.68,0,0,1,1.37,0c.33.11.76.5.79.79.09,1.12,0,2.26,0,3.39Z"/><path class="cls-12" d="M545.83,1244.44h-3.27c-1.19,0-.89-.88-.89-1.53s-.26-1.54.91-1.54c2.14,0,4.28,0,6.42.05,1,0,1.76.48,1.72,1.59s-.79,1.39-1.73,1.39h-3.14Z"/><path class="cls-12" d="M489.11,1261.2c1,0,2.1,0,3.15,0s1,.78,1,1.47.3,1.63-1,1.61c-2.1,0-4.19,0-6.29-.05-1,0-1.78-.42-1.79-1.53s.79-1.46,1.79-1.47h3.14Z"/><path class="cls-12" d="M506.18,1224.32c0-1,0-2.09,0-3.14,0-.89.42-1.59,1.39-1.63s1.53.69,1.56,1.6c.08,2.17.05,4.35.07,6.53,0,1.17-.87.91-1.53.9s-1.54.31-1.54-.88,0-2.26,0-3.39Z"/><path class="cls-12" d="M509.17,1281.09c0,1.09,0,2.18,0,3.26s-.47,1.77-1.57,1.73-1.39-.82-1.4-1.75c0-2.09,0-4.19-.06-6.28,0-1.24.82-1,1.55-1s1.59-.19,1.55,1c0,1,0,2,0,3Z"/><path class="cls-12" d="M528.75,1224.47c0,.84,0,1.68,0,2.51.08,1.08-.1,1.7-1.45,1.67s-1.75-.28-1.67-1.61c.11-1.84,0-3.68.07-5.52,0-1,.32-1.92,1.49-1.95s1.49.88,1.51,1.89,0,2,0,3Z"/><path class="cls-12" d="M489,1244.39c-1.09,0-2.19,0-3.28,0a1.43,1.43,0,0,1-1.57-1.33,1.41,1.41,0,0,1,1.46-1.57c2.27-.11,4.54-.1,6.81-.07.26,0,.69.46.74.76.35,2,.1,2.27-1.89,2.27H489Z"/><path class="cls-12" d="M545.82,1264.13h-3.26c-1.19,0-.88-.88-.89-1.53s-.26-1.54.9-1.53c2.18,0,4.35,0,6.53.06.91,0,1.65.52,1.61,1.56s-.73,1.36-1.62,1.39c-1.09,0-2.18,0-3.26,0Z"/><path class="cls-12" d="M528.68,1281.31c0,1.09,0,2.18,0,3.26a1.46,1.46,0,1,1-2.91.06q-.14-3.38-.06-6.78c0-1.24,1.09-.72,1.74-.8s1.31-.12,1.3.86c0,1.13,0,2.26,0,3.39Z"/><rect class="cls-5" x="321.08" y="1256.89" width="128.13" height="168.1"/><rect class="cls-14" x="2092.4" y="1182.07" width="97.67" height="273.94"/><rect class="cls-14" x="2155.01" y="1338.56" width="97.67" height="117.28"/><rect class="cls-14" x="2043.57" y="1384.88" width="97.67" height="71.14"/><rect class="cls-5" x="356.99" y="1239.33" width="92.27" height="168.1"/><rect class="cls-14" x="246.55" y="1331.16" width="220.86" height="125.72"/><rect class="cls-12" x="276.22" y="1357.4" width="32.86" height="11.01"/><rect class="cls-12" x="319.56" y="1357.4" width="32.86" height="11.01"/><rect class="cls-12" x="276.22" y="1394.27" width="32.86" height="11.01"/><rect class="cls-12" x="319.56" y="1394.27" width="32.86" height="11.01"/><rect class="cls-12" x="362.55" y="1357.07" width="32.86" height="11.01"/><rect class="cls-12" x="405.89" y="1357.07" width="32.86" height="11.01"/><rect class="cls-12" x="362.55" y="1393.94" width="32.86" height="11.01"/><rect class="cls-12" x="405.89" y="1393.94" width="32.86" height="11.01"/><rect class="cls-12" x="2119.34" y="1205.9" width="17.5" height="21.58"/><rect class="cls-12" x="2145.64" y="1205.9" width="17.5" height="21.58"/><rect class="cls-12" x="2119.34" y="1243.78" width="17.5" height="21.58"/><rect class="cls-12" x="2145.64" y="1243.78" width="17.5" height="21.58"/><rect class="cls-12" x="2119.34" y="1280.99" width="17.5" height="21.58"/><rect class="cls-12" x="2145.64" y="1280.99" width="17.5" height="21.58"/><rect class="cls-12" x="2119.34" y="1316.75" width="17.5" height="21.58"/><rect class="cls-12" x="2145.64" y="1316.75" width="17.5" height="21.58"/><rect class="cls-12" x="2139.48" y="1420.45" width="30.09" height="34.04"/><rect class="cls-12" x="2174.91" y="1420.45" width="30.09" height="34.04"/><rect class="cls-12" x="2119.45" y="1385.02" width="25.32" height="11.48"/><rect class="cls-12" x="2160.58" y="1385.02" width="25.32" height="11.48"/><rect class="cls-12" x="2201.48" y="1385.02" width="25.32" height="11.48"/><path class="cls-30" d="M840.38,426.07q4.5,10.8,4.5,15.6a14.81,14.81,0,0,1-4.6,10.45c-3.1,3.22-45.86,1.68-47-.78q-5.42-12.06-21-49.27l-9.3.6h-37.8v33.9a87.16,87.16,0,0,1-.45,10.35c-.3,2.3-48.45,12.35-50.85,5q-1.8-5.1-1.8-15.6V269.77a87.22,87.22,0,0,1,.45-10.35,24,24,0,0,1,2.85-7.95q4.2-8.1,23.4-8.1h64.8q26.4,0,51.3,19.2,12,9.3,19.8,25.2a79.31,79.31,0,0,1,7.8,35.4q0,33.9-22.5,55.8Q826.58,394.88,840.38,426.07Zm-115.2-76.5h38.4q8.7,0,17.4-6.6t8.7-19.8q0-13.2-8.7-19.95t-18-6.75h-37.8Z"/><path class="cls-30" d="M923.48,410.17h92.4a87.1,87.1,0,0,1,10.35.45,24.09,24.09,0,0,1,8,2.85c2.32,2.81,1.37,45.61-3,48q-5.1,1.8-15.6,1.8H896.78q-21,0-24.6-11.4-1.8-4.8-1.8-15.3V269.77q0-15.3,5.7-20.85t21.6-5.55h118.2a87.23,87.23,0,0,1,10.35.45,24.11,24.11,0,0,1,8,2.85c3.08,2.81,2.25,45.6-3,48q-5.1,1.8-15.6,1.8h-92.1v30.3h59.4a87.1,87.1,0,0,1,10.35.45,24.1,24.1,0,0,1,8,2.85c5.4,2.8,4.3,45.6-3.3,48q-5.1,1.8-15.6,1.8h-58.8Z"/><path class="cls-30" d="M1304.48,251.77a24,24,0,0,1,2.85,8.1,91.32,91.32,0,0,1,.45,10.5v166.5a43.4,43.4,0,0,1-2,14.47c-1.86,5.17-48.55,3.13-49.55.53q-1.51-5.1-1.5-15.6V335.77q-7.5,9.3-21.9,29.55t-18.3,25.35l-5.4,7.05q-1.5,2-7.35,5.4a25.15,25.15,0,0,1-24.9.3,27.61,27.61,0,0,1-8-6.15l-2.4-3.3q-6-7.5-23.7-32t-19.2-26.25v101.1a86.9,86.9,0,0,1-.45,10.35c-.3,2.3-51.6,2.25-51.9-.15a94.9,94.9,0,0,1-.45-10.8V269.77a87.22,87.22,0,0,1,.45-10.35,24,24,0,0,1,2.85-7.95q4.5-7.8,23.4-7.8a44.36,44.36,0,0,1,14,2q5.85,2,7.65,4l1.8,1.8,68.1,89.4q51-67.5,68.1-89.1,5.1-8.1,24.15-8.1T1304.48,251.77Z"/><path class="cls-31" d="M1340.78,326.23a38.29,38.29,0,0,1,.45-6.84,12.85,12.85,0,0,1,2.85-5.25q4.2-5.35,23.4-5.35,21,0,24.9,7.33,1.5,3.37,1.5,10.31V436.65a38,38,0,0,1-.45,6.94,13,13,0,0,1-2.85,5.15q-4.2,5.35-23.4,5.35-21,0-24.6-7.53-1.8-3.17-1.8-10.11Z"/><path class="cls-30" d="M1568.92,252.52c1.9-3.5,47.35-.25,48.15,2.55q1.8,4.8,1.8,15.3v166.5a86.62,86.62,0,0,1-.45,10.5,24.18,24.18,0,0,1-2.85,7.8q-4.21,8.1-23.4,8.1-11.7,0-16.2-1.8a17.5,17.5,0,0,1-7.5-5.7q-67.5-90-88.8-117.6v98.7a86.42,86.42,0,0,1-.45,10.5c-.3,2.2-51.6,2.1-51.9-.3a91.26,91.26,0,0,1-.45-10.5V269.17q0-11.4,2.85-16.65a14.28,14.28,0,0,1,8.55-7,49.84,49.84,0,0,1,14.7-1.8q9,0,14.25,1.65t7.35,3.75q1.2.9,6.9,7.8,63.3,86.1,84.6,113.7V269.17Q1566.07,257.77,1568.92,252.52Z"/><path class="cls-30" d="M1705,410.17h92.4a87.1,87.1,0,0,1,10.35.45,24.09,24.09,0,0,1,8,2.85c.54,9.46,4.4,45.6-3,48q-5.1,1.8-15.6,1.8h-118.8q-21,0-24.6-11.4-1.8-4.8-1.8-15.3V269.77q0-15.3,5.7-20.85t21.6-5.55h118.2a87.23,87.23,0,0,1,10.35.45,24.11,24.11,0,0,1,8,2.85c2.59,6.54,3.67,44.31-3,48q-5.1,1.8-15.6,1.8H1705v30.3h59.4a87.1,87.1,0,0,1,10.35.45,24.1,24.1,0,0,1,8,2.85c5.4,2.8,4.3,45.6-3.3,48q-5.1,1.8-15.6,1.8H1705Z"/><rect class="cls-14" x="663.17" y="441.84" width="65.34" height="19"/><rect class="cls-14" x="785.67" y="441.84" width="65.34" height="19"/><rect class="cls-14" x="1064.17" y="441.84" width="65.34" height="19"/><rect class="cls-14" x="1249.17" y="441.84" width="65.34" height="19"/><rect class="cls-14" x="1334.17" y="441.84" width="65.34" height="19"/><rect class="cls-14" x="1420.17" y="441.84" width="65.34" height="19"/><rect class="cls-14" x="1559.17" y="245.88" width="65.34" height="19"/><rect class="cls-14" x="1334.17" y="300.72" width="65.34" height="19"/><rect class="cls-14" x="999.67" y="260.05" width="65.34" height="19" transform="translate(762.79 1301.89) rotate(-90)"/><rect class="cls-14" x="999.67" y="428.84" width="65.34" height="19" transform="translate(594 1470.68) rotate(-90)"/><rect class="cls-14" x="969.67" y="343.22" width="65.34" height="19" transform="translate(649.62 1355.06) rotate(-90)"/><rect class="cls-14" x="1781.67" y="260.05" width="65.34" height="19" transform="translate(1544.79 2083.89) rotate(-90)"/><rect class="cls-14" x="1781.67" y="428.84" width="65.34" height="19" transform="translate(1376 2252.68) rotate(-90)"/><rect class="cls-14" x="1751.67" y="343.22" width="65.34" height="19" transform="translate(1431.62 2137.06) rotate(-90)"/><circle class="cls-8" cx="1366.84" cy="266.98" r="19.71"/><circle class="cls-8" cx="1366.84" cy="266.98" r="19.71"/></g></svg>