<svg width="136" height="30" viewBox="0 0 136 30" fill="none" xmlns="http://www.w3.org/2000/svg">
<path d="M20.6098 23.7592C20.9588 24.6255 21.1332 25.2512 21.1332 25.6362C21.1332 26.0934 20.9588 26.5145 20.5982 26.8875C20.2377 27.2726 15.2597 27.0921 15.1317 26.7913C14.713 25.8287 13.8989 23.8435 12.6892 20.8596L11.6076 20.9317H7.21113V25.0106C7.21113 25.564 7.1995 25.9851 7.1646 26.2619C7.12971 26.5386 1.52365 27.7538 1.24451 26.8635C1.10494 26.4544 1.03516 25.8287 1.03516 24.9865V4.9534C1.03516 4.39993 1.05842 3.99085 1.09331 3.70208C1.1282 3.42535 1.23288 3.11252 1.41897 2.75156C1.74464 2.10184 2.65184 1.77698 4.14059 1.77698H11.6774C13.7244 1.77698 15.7133 2.54702 17.644 4.0871C18.5744 4.83308 19.3421 5.84376 19.9469 7.11914C20.5517 8.39452 20.8541 9.81428 20.8541 11.3784C20.8541 14.0976 19.9818 16.3356 18.2372 18.0922C18.7489 19.3676 19.5398 21.2566 20.6098 23.7592ZM7.21113 14.5548H11.6774C12.352 14.5548 13.0265 14.2901 13.7011 13.7607C14.3757 13.2313 14.713 12.4372 14.713 11.3784C14.713 10.3196 14.3757 9.52552 13.7011 8.98408C13.0265 8.44265 12.3287 8.16591 11.6076 8.16591H7.21113V14.5548Z" fill="white" stroke="#42748E" stroke-width="2" stroke-miterlimit="10"/>
<path d="M30.275 21.8462H41.0219C41.5569 21.8462 41.9523 21.8582 42.2198 21.9063C42.4873 21.9424 42.8014 22.0627 43.1503 22.2553C43.4178 22.5922 43.3131 27.7418 42.8014 28.0306C42.4059 28.1749 41.8011 28.2471 40.987 28.2471H27.1695C25.5412 28.2471 24.5875 27.7899 24.3084 26.8755C24.1688 26.4905 24.099 25.8769 24.099 25.0346V4.9534C24.099 3.72614 24.32 2.89594 24.762 2.43873C25.2039 1.99355 26.0413 1.77698 27.2742 1.77698H41.0219C41.5569 1.77698 41.9523 1.78901 42.2198 1.82511C42.4873 1.8612 42.8014 1.98152 43.1503 2.17403C43.5109 2.51092 43.4062 7.66057 42.8014 7.94934C42.4059 8.09372 41.8011 8.16591 40.987 8.16591H30.275V11.8116H37.1837C37.7187 11.8116 38.1142 11.8236 38.3817 11.8717C38.6492 11.9078 38.9632 12.0281 39.3121 12.2086C39.9402 12.5455 39.8123 17.6952 38.9283 17.9839C38.5329 18.1283 37.9281 18.2005 37.1139 18.2005H30.275V21.8462Z" fill="white" stroke="#42748E" stroke-width="2" stroke-miterlimit="10"/>
<path d="M74.5885 2.78769C74.7746 3.14865 74.8793 3.47351 74.9142 3.76228C74.9491 4.05104 74.9723 4.47216 74.9723 5.02563V25.0587C74.9723 25.7566 74.8909 26.3461 74.7397 26.8033C74.5187 27.429 69.0871 27.1763 68.9708 26.8635C68.8545 26.4544 68.7964 25.8288 68.7964 24.9865V12.8945C68.2148 13.6405 67.3658 14.8196 66.2492 16.4439C65.1326 18.0682 64.4232 19.0909 64.1208 19.5C63.8184 19.9091 63.609 20.1978 63.4927 20.3543C63.3764 20.5107 63.0856 20.7272 62.6436 21.004C62.19 21.2807 61.7015 21.4131 61.1782 21.4131C60.6548 21.4131 60.1779 21.2927 59.7476 21.0401C59.3172 20.7874 59.0032 20.5468 58.8171 20.3061L58.538 19.9091C58.0727 19.3075 57.1539 18.0321 55.7815 16.0589C54.409 14.0977 53.6646 13.0509 53.5483 12.9065V25.0587C53.5483 25.6122 53.5367 26.0333 53.4902 26.31C53.4553 26.5868 47.4887 26.5747 47.4538 26.286C47.4189 25.9972 47.3956 25.5641 47.3956 24.9865V4.95343C47.3956 4.39997 47.4189 3.99088 47.4538 3.70212C47.4887 3.42538 47.5934 3.11255 47.7794 2.7516C48.1284 2.12594 49.0356 1.81311 50.5011 1.81311C51.1291 1.81311 51.6641 1.89733 52.1294 2.05375C52.583 2.21016 52.8737 2.37861 53.0133 2.53502L53.2227 2.7516L61.1433 13.5081C65.0978 8.09376 67.7379 4.52029 69.0639 2.78769C69.4593 2.13797 70.3898 1.81311 71.8785 1.81311C73.3673 1.81311 74.2628 2.13797 74.5885 2.78769Z" fill="white" stroke="#42748E" stroke-width="2" stroke-miterlimit="10"/>
<path d="M78.8104 11.7394C78.8104 11.3784 78.8337 11.1017 78.8686 10.9212C78.9035 10.7407 79.0082 10.5241 79.1942 10.2835C79.5199 9.85036 80.4271 9.63379 81.9159 9.63379C83.5442 9.63379 84.5095 9.92255 84.8119 10.5121C84.9283 10.7768 84.9864 11.1979 84.9864 11.7514V25.0105C84.9864 25.3956 84.9748 25.6723 84.9399 25.8407C84.905 26.0212 84.7887 26.2258 84.6026 26.4664C84.2769 26.8996 83.3697 27.1161 81.881 27.1161C80.2527 27.1161 79.2989 26.8153 79.0198 26.2137C78.8802 25.9611 78.8104 25.552 78.8104 24.9985V11.7394Z" fill="white" stroke="#42748E" stroke-width="2" stroke-miterlimit="10"/>
<path d="M105.352 2.87185C105.573 2.45073 110.853 2.84778 110.958 3.17265C111.098 3.55767 111.167 4.17129 111.167 5.01353V25.0587C111.167 25.6362 111.144 26.0573 111.109 26.322C111.074 26.5867 110.958 26.8995 110.784 27.2605C110.458 27.9102 109.551 28.2351 108.062 28.2351C107.155 28.2351 106.527 28.1629 106.178 28.0185C105.829 27.8741 105.538 27.6455 105.305 27.3327C100.072 20.1136 96.6289 15.397 94.9773 13.1832V25.0587C94.9773 25.6362 94.9657 26.0573 94.9191 26.322C94.8842 26.5867 88.9176 26.5747 88.8827 26.2859C88.8478 25.9971 88.8246 25.576 88.8246 25.0226V4.88117C88.8246 3.96675 88.9293 3.305 89.1502 2.88388C89.3712 2.46276 89.6969 2.174 90.1505 2.04165C90.5925 1.89726 91.1624 1.82507 91.8602 1.82507C92.5581 1.82507 93.1047 1.89726 93.5118 2.01758C93.9189 2.14993 94.198 2.30635 94.3725 2.4748C94.4655 2.54699 94.733 2.85982 95.175 3.41328C100.083 10.3196 103.363 14.8797 105.015 17.0935V4.88117C105.015 3.96675 105.131 3.29296 105.352 2.87185Z" fill="white" stroke="#42748E" stroke-width="2" stroke-miterlimit="10"/>
<path d="M121.17 21.8462H131.917C132.452 21.8462 132.847 21.8582 133.115 21.9063C133.382 21.9424 133.696 22.0627 134.045 22.2553C134.103 23.3983 134.557 27.7418 133.696 28.0306C133.301 28.1749 132.696 28.2471 131.882 28.2471H118.064C116.436 28.2471 115.482 27.7899 115.203 26.8755C115.064 26.4905 114.994 25.8769 114.994 25.0346V4.9534C114.994 3.72614 115.215 2.89594 115.657 2.43873C116.099 1.99355 116.936 1.77698 118.169 1.77698H131.917C132.452 1.77698 132.847 1.78901 133.115 1.82511C133.382 1.8612 133.696 1.98152 134.045 2.17403C134.348 2.9561 134.476 7.50416 133.696 7.94934C133.301 8.09372 132.696 8.16591 131.882 8.16591H121.17V11.8116H128.079C128.614 11.8116 129.009 11.8236 129.277 11.8717C129.544 11.9078 129.858 12.0281 130.207 12.2086C130.835 12.5455 130.707 17.6952 129.823 17.9839C129.428 18.1283 128.823 18.2005 128.009 18.2005H121.17V21.8462Z" fill="white" stroke="#42748E" stroke-width="2" stroke-miterlimit="10"/>
<path d="M7.59493 25.6603H0V27.9463H7.59493V25.6603Z" fill="#CFDBDD"/>
<path d="M21.8427 25.6603H14.2478V27.9463H21.8427V25.6603Z" fill="#CFDBDD"/>
<path d="M54.2346 25.6603H46.6396V27.9463H54.2346V25.6603Z" fill="#CFDBDD"/>
<path d="M75.7515 25.6603H68.1566V27.9463H75.7515V25.6603Z" fill="#CFDBDD"/>
<path d="M85.6378 25.6603H78.0428V27.9463H85.6378V25.6603Z" fill="#CFDBDD"/>
<path d="M95.6403 25.6603H88.0454V27.9463H95.6403V25.6603Z" fill="#CFDBDD"/>
<path d="M111.807 2.07776H104.212V4.36382H111.807V2.07776Z" fill="#CFDBDD"/>
<path d="M85.6378 8.67126H78.0428V10.9573H85.6378V8.67126Z" fill="#CFDBDD"/>
<path d="M41.8359 0.999987V8.85681H44.0458V0.999987H41.8359Z" fill="#CFDBDD"/>
<path d="M41.8372 21.3088V29.1656H44.047V21.3088H41.8372Z" fill="#CFDBDD"/>
<path d="M38.339 11.0066V18.8634H40.5488V11.0066H38.339Z" fill="#CFDBDD"/>
<path d="M132.789 0.99998V8.85681H134.999V0.99998H132.789Z" fill="#CFDBDD"/>
<path d="M132.79 21.3088V29.1656H135V21.3088H132.79Z" fill="#CFDBDD"/>
<path d="M129.292 11.0066V18.8634H131.502V11.0066H129.292Z" fill="#CFDBDD"/>
<path d="M81.8462 6.98678C83.1116 6.98678 84.1375 5.92557 84.1375 4.6165C84.1375 3.30743 83.1116 2.24622 81.8462 2.24622C80.5808 2.24622 79.5549 3.30743 79.5549 4.6165C79.5549 5.92557 80.5808 6.98678 81.8462 6.98678Z" fill="#F79D5E"/>
<path d="M81.8462 6.98678C83.1116 6.98678 84.1375 5.92557 84.1375 4.6165C84.1375 3.30743 83.1116 2.24622 81.8462 2.24622C80.5808 2.24622 79.5549 3.30743 79.5549 4.6165C79.5549 5.92557 80.5808 6.98678 81.8462 6.98678Z" fill="#F79D5E"/>
</svg>
