<svg id="Layer_1" data-name="Layer 1" xmlns="http://www.w3.org/2000/svg" viewBox="0 0 424 2914.88">
    <defs><style>.cls-1{fill:#5c89a0;}</style></defs>
    <title>Pipe</title>
    <path class="cls-1 mainpath" d="M94.75,2812a.56.56,0,0,1-.57-.56V39.2a.57.57,0,0,1,.57-.57H114a.57.57,0,0,1,.57.57V2811.06a.58.58,0,0,1-.57.58Z"/>
    <rect class="cls-1 mainpath" x="236.02" y="2769.6" width="20.28" height="180.17" transform="translate(-2613.53 3105.84) rotate(-90)"/>
    <path class="cls-1 mainpath" d="M142.19,2849.55h27.38l0,20.35-27.37-.06c-26.52,0-48-19.05-48-44.86v-26.64h20.34v26.82C114.52,2838.77,127.77,2849.55,142.19,2849.55Z"/>
    <rect class="cls-1" x="100.11" y="2502.1" width="8.48" height="33.19" transform="translate(2623.05 2414.35) rotate(90)"/>
    <rect class="cls-1" x="100.11" y="1933.33" width="8.48" height="33.19" transform="translate(2054.28 1845.58) rotate(90)"/>
    <rect class="cls-1" x="100.11" y="1364.56" width="8.48" height="33.19" transform="translate(1485.51 1276.8) rotate(90)"/>
    <rect class="cls-1" x="100.11" y="795.79" width="8.48" height="33.19" transform="translate(916.73 708.03) rotate(90)"/>
    <rect class="cls-1" x="100.11" y="227.02" width="8.48" height="33.19" transform="translate(347.96 139.26) rotate(90)"/>
    <rect class="cls-1" x="327.76" y="2843.06" width="8.48" height="33.19"/>
</svg>