<svg width="171" height="149" viewBox="0 0 171 149" fill="none" xmlns="http://www.w3.org/2000/svg">
<path d="M73.0566 141H64.1504V140.102L69.0234 134.574C69.8307 133.643 70.3906 132.875 70.7031 132.27C71.0156 131.664 71.1719 131.075 71.1719 130.502C71.1719 129.604 70.9082 128.894 70.3809 128.373C69.8535 127.846 69.1276 127.582 68.2031 127.582C67.2461 127.582 66.4714 127.888 65.8789 128.5C65.293 129.112 65 129.906 65 130.883H63.8379C63.8379 130.082 64.0169 129.353 64.375 128.695C64.7396 128.038 65.2539 127.523 65.918 127.152C66.5885 126.775 67.3503 126.586 68.2031 126.586C69.5052 126.586 70.5208 126.928 71.25 127.611C71.9857 128.295 72.3535 129.226 72.3535 130.404C72.3535 131.068 72.1452 131.794 71.7285 132.582C71.3184 133.37 70.5924 134.353 69.5508 135.531L65.5859 140.014H73.0566V141ZM83.8184 135.072C83.8184 137.077 83.4505 138.601 82.7148 139.643C81.9792 140.678 80.8952 141.195 79.4629 141.195C78.0566 141.195 76.9792 140.688 76.2305 139.672C75.4818 138.65 75.0977 137.165 75.0781 135.219V132.67C75.0781 130.671 75.4492 129.158 76.1914 128.129C76.9336 127.1 78.0176 126.586 79.4434 126.586C80.8496 126.586 81.9238 127.084 82.666 128.08C83.4082 129.07 83.7923 130.531 83.8184 132.465V135.072ZM82.6465 132.523C82.6465 130.896 82.3796 129.665 81.8457 128.832C81.3184 127.999 80.5176 127.582 79.4434 127.582C78.3887 127.582 77.5944 127.989 77.0605 128.803C76.5267 129.617 76.2533 130.818 76.2402 132.406V135.199C76.2402 136.82 76.5137 138.061 77.0605 138.92C77.6139 139.779 78.4147 140.209 79.4629 140.209C80.5046 140.209 81.2923 139.789 81.8262 138.949C82.3665 138.109 82.64 136.879 82.6465 135.258V132.523ZM95.2441 141H86.3379V140.102L91.2109 134.574C92.0182 133.643 92.5781 132.875 92.8906 132.27C93.2031 131.664 93.3594 131.075 93.3594 130.502C93.3594 129.604 93.0957 128.894 92.5684 128.373C92.041 127.846 91.3151 127.582 90.3906 127.582C89.4336 127.582 88.6589 127.888 88.0664 128.5C87.4805 129.112 87.1875 129.906 87.1875 130.883H86.0254C86.0254 130.082 86.2044 129.353 86.5625 128.695C86.9271 128.038 87.4414 127.523 88.1055 127.152C88.776 126.775 89.5378 126.586 90.3906 126.586C91.6927 126.586 92.7083 126.928 93.4375 127.611C94.1732 128.295 94.541 129.226 94.541 130.404C94.541 131.068 94.3327 131.794 93.916 132.582C93.5059 133.37 92.7799 134.353 91.7383 135.531L87.7734 140.014H95.2441V141ZM106.006 135.072C106.006 137.077 105.638 138.601 104.902 139.643C104.167 140.678 103.083 141.195 101.65 141.195C100.244 141.195 99.1667 140.688 98.418 139.672C97.6693 138.65 97.2852 137.165 97.2656 135.219V132.67C97.2656 130.671 97.6367 129.158 98.3789 128.129C99.1211 127.1 100.205 126.586 101.631 126.586C103.037 126.586 104.111 127.084 104.854 128.08C105.596 129.07 105.98 130.531 106.006 132.465V135.072ZM104.834 132.523C104.834 130.896 104.567 129.665 104.033 128.832C103.506 127.999 102.705 127.582 101.631 127.582C100.576 127.582 99.7819 127.989 99.248 128.803C98.7142 129.617 98.4408 130.818 98.4277 132.406V135.199C98.4277 136.82 98.7012 138.061 99.248 138.92C99.8014 139.779 100.602 140.209 101.65 140.209C102.692 140.209 103.48 139.789 104.014 138.949C104.554 138.109 104.827 136.879 104.834 135.258V132.523Z" fill="white"/>
<g clip-path="url(#clip0)">
<path d="M78.3171 69.8289C78 69.8078 77.9366 69.5129 77.8098 69.3443C76.6049 67.6378 75.4211 65.8892 74.174 64.2038C67.1561 54.6389 59.652 45.4744 50.9854 37.3211C46.6098 33.1918 41.8325 29.6524 36.2732 27.2506C31.3902 25.1438 26.2959 23.7955 21.0114 23.1213C15.3463 22.405 9.70244 22.1311 4.05854 23.037C2.70569 23.2477 1.33171 23.4795 0 23.9219C0.190244 24.1958 0.295935 24.3854 0.443902 24.575C4.60813 30.2633 8.77236 35.9517 12.9366 41.64C22.6602 54.955 32.4683 68.2277 42.4033 81.3952C45.5951 85.6299 49.4 89.2114 54.1772 91.6553C58.3837 93.8042 62.8439 95.0051 67.5366 95.3C69.9886 95.4475 72.4407 95.4896 74.8504 94.8787C78.3805 93.9728 81.2553 92.0134 83.7496 89.4431C84.2992 88.8743 84.574 88.8532 85.1236 89.4431C88.0407 92.4769 91.4439 94.668 95.6927 95.2579C98.8423 95.7003 102.013 95.4686 105.12 94.9208C113.005 93.5303 119.558 89.8013 124.694 83.6705C128.14 79.5623 131.226 75.1802 134.439 70.8823C144.797 57.0407 155.028 43.1148 165.216 29.1467C166.463 27.4402 167.711 25.7127 169 23.964C165.702 23.1003 162.447 22.6368 159.15 22.5104C154.436 22.3418 149.743 22.7842 145.093 23.5848C134.629 25.3756 125.603 29.9895 117.93 37.3422C108.946 45.959 101.062 55.5238 93.7902 65.5943C92.7545 67.0269 91.761 68.4595 90.5984 70.1028C90.5984 69.6604 90.5984 69.4708 90.5984 69.2811C90.4081 61.5281 90.6618 53.7752 91.1902 46.0222C91.3382 43.7258 91.5073 41.4293 91.9935 39.1751C92.9447 34.7297 94.7626 30.6426 96.9821 26.7029C100.047 21.2884 104.782 18.2336 110.807 17.0116C112.223 16.7167 113.681 16.6745 115.33 16.6535C111.885 13.5354 108.037 12.461 103.62 13.0509C106.896 9.61678 108.777 5.63494 109.221 1C109.137 1 109.073 1 109.031 1.02107C108.798 1.23175 108.545 1.44243 108.312 1.67417C105.522 4.39194 102.288 6.41446 98.652 7.80494C97.6585 8.18416 96.7707 8.39484 95.7984 7.6996C95.3122 7.36251 94.6781 7.21504 94.0862 7.06756C90.0065 6.01417 85.9902 6.45659 82.0585 7.80494C74.5968 10.3542 71.0455 17.3487 73.413 24.7014C74.639 28.4936 75.5057 32.3701 76.2244 36.2677C77.239 41.7875 77.8309 47.3705 78.1691 52.9956C78.4862 58.5997 78.4439 64.2038 78.3171 69.8289Z" fill="white"/>
<path d="M78.3174 69.8289C78.4442 64.1827 78.4865 58.5787 78.1483 52.9957C77.8101 47.3916 77.2182 41.8086 76.2036 36.2677C75.4849 32.3701 74.6182 28.4936 73.3922 24.7014C71.0247 17.3487 74.5759 10.3542 82.0377 7.80494C85.9694 6.45659 89.9857 6.01417 94.0654 7.06756C94.6572 7.21504 95.2914 7.36251 95.7776 7.6996C96.7499 8.37378 97.6377 8.18416 98.6312 7.80494C102.267 6.41446 105.501 4.39194 108.291 1.67417C108.524 1.44243 108.756 1.23175 109.01 1.02107C109.052 1 109.116 1 109.2 1C108.756 5.63494 106.896 9.61678 103.641 13.0509C108.059 12.461 111.906 13.5354 115.352 16.6535C113.682 16.6745 112.244 16.7377 110.828 17.0116C104.804 18.2546 100.069 21.3095 97.0036 26.7029C94.7841 30.6426 92.9662 34.7298 92.015 39.1751C91.5288 41.4294 91.3597 43.7258 91.2117 46.0222C90.7044 53.7752 90.4296 61.5282 90.6198 69.2812C90.6198 69.4708 90.6198 69.6604 90.6198 70.1028C91.7825 68.4595 92.7759 67.0058 93.8117 65.5943C101.083 55.5238 108.968 45.959 117.952 37.3422C125.625 29.9895 134.63 25.3756 145.114 23.5848C149.765 22.7842 154.436 22.3418 159.171 22.5104C162.469 22.6157 165.724 23.1003 169.021 23.964C167.732 25.7337 166.485 27.4403 165.238 29.1468C155.028 43.1148 144.797 57.0407 134.46 70.9034C131.269 75.2012 128.182 79.5834 124.716 83.6916C119.579 89.8224 113.026 93.5514 105.142 94.9419C102.034 95.4897 98.8637 95.7214 95.7142 95.279C91.4654 94.668 88.041 92.498 85.145 89.4642C84.5743 88.8743 84.3207 88.8954 83.7711 89.4642C81.2768 92.0345 78.3808 93.9938 74.8719 94.8998C72.4621 95.5107 70.0101 95.4897 67.5581 95.3211C62.8654 95.0262 58.3841 93.8253 54.1987 91.6764C49.4215 89.2325 45.6377 85.6509 42.4247 81.4163C32.4898 68.2488 22.6816 54.9971 12.9581 41.6611C8.79384 35.9728 4.62961 30.2844 0.465387 24.5961C0.317419 24.4065 0.211728 24.2169 0.0214844 23.943C1.37433 23.5005 2.72717 23.2688 4.08002 23.0581C9.72392 22.1522 15.389 22.4261 21.0329 23.1424C26.3174 23.8166 31.4117 25.1649 36.2946 27.2717C41.854 29.6735 46.6312 33.2129 51.0068 37.3422C59.6735 45.5165 67.1564 54.66 74.1955 64.2249C75.4426 65.9103 76.6052 67.6589 77.8312 69.3654C77.9369 69.5129 78.0003 69.8079 78.3174 69.8289ZM29.615 43.0094C27.9239 43.81 26.4231 44.8845 24.9434 46.0011C24.6686 46.2118 24.4995 46.3803 24.7955 46.7595C26.4231 48.8663 28.0085 50.9942 29.615 53.1221C31.0101 55.1867 32.532 57.1671 34.0751 59.1053C36.0621 61.781 38.028 64.4566 40.015 67.1322C41.4735 69.2812 42.9955 71.3879 44.602 73.4315C46.4199 76.0018 48.3434 78.4668 50.415 80.8475C51.8312 82.6804 53.2686 84.4922 54.9808 86.0934C56.7353 88.0316 58.7012 89.7381 60.9207 91.1286C62.3158 92.2031 63.8166 93.0879 65.5077 93.5514C67.4524 94.2677 69.3971 94.3309 71.3418 93.5514C73.1174 92.9404 74.5548 91.8028 75.9077 90.5387C77.7467 89.0218 79.2686 87.231 80.706 85.356C80.9174 85.0821 80.9597 84.8925 80.706 84.5975C78.9727 82.5961 77.4507 80.4472 75.9077 78.2772C74.4914 75.9808 72.9483 73.7686 71.3418 71.5986C69.5028 68.8177 67.5581 66.0999 65.5288 63.4453C64.0914 61.4439 62.5906 59.4635 60.9418 57.6095C59.0605 55.2078 57.1158 52.8482 55.002 50.636C53.6068 48.8663 52.0638 47.2652 50.4572 45.664C50.0133 45.2005 49.5906 44.716 49.1255 44.2735C47.7093 42.9884 46.4833 41.4504 44.6231 40.7341C43.1646 40.0599 41.6215 39.8493 40.015 39.9546C37.9646 39.9546 35.9987 40.4602 34.0751 41.1133C32.5109 41.5768 31.0312 42.2089 29.615 43.0094ZM139.491 52.9746C141.056 50.9099 142.62 48.8453 144.184 46.7806C144.395 46.5067 144.417 46.3171 144.1 46.0643C142.641 44.9477 141.182 43.8522 139.491 43.0937C138.033 42.2299 136.511 41.5347 134.841 41.1976C132.96 40.4392 130.994 40.0178 128.965 40.0178C127.421 39.8703 125.921 40.1231 124.483 40.713C121.989 41.7664 120.404 43.8943 118.543 45.6851C116.916 47.2441 115.394 48.9085 113.978 50.6571C111.927 52.8482 110.004 55.1446 108.143 57.4831C106.495 59.4003 104.952 61.3807 103.493 63.4243C101.464 66.0999 99.4979 68.8177 97.6589 71.6197C96.0524 73.7897 94.5304 76.0018 93.093 78.2982C91.5711 80.4472 90.0491 82.5961 88.3158 84.5975C88.0833 84.8504 88.1044 85.0821 88.3158 85.3771C89.7532 87.231 91.254 89.0429 93.093 90.5387C94.467 91.7817 95.8621 92.9615 97.68 93.5514C99.667 94.3731 101.633 94.2467 103.599 93.5514C105.29 93.0458 106.791 92.1609 108.186 91.1075C110.342 89.7381 112.223 88.0316 113.999 86.1776C115.669 84.5133 117.212 82.7436 118.586 80.8264C120.721 78.4246 122.665 75.8754 124.526 73.2841C126.069 71.2826 127.569 69.239 128.986 67.1322C130.973 64.4566 132.939 61.781 134.926 59.0843C136.532 57.125 138.054 55.0814 139.491 52.9746ZM99.1597 21.5834C95.1857 21.6044 91.3597 21.5623 87.5337 21.8783C85.9694 22.0047 84.4052 22.1733 82.9044 22.6578C81.6572 23.0581 80.9808 23.8587 80.9174 25.2071C80.8329 26.9978 81.5093 28.5569 82.3759 30.0527C84.215 33.1918 86.7304 35.741 89.4784 38.0796C90.6621 39.0697 90.6621 39.0697 91.0849 37.595C92.7548 31.8224 95.1434 26.3869 99.1597 21.5834ZM103.641 13.1141C103.62 13.093 103.599 13.0509 103.578 13.0719C103.535 13.0719 103.493 13.093 103.472 13.1141C103.493 13.1351 103.514 13.1773 103.535 13.1562C103.556 13.1562 103.599 13.1351 103.641 13.1141Z" fill="white"/>
<path d="M55.0227 50.6777C57.1366 52.8899 59.0813 55.2495 60.9626 57.6512C60.9626 67.1739 60.9414 76.7177 60.9414 86.2404C60.9414 87.8626 60.9203 89.5059 60.9203 91.1282C58.7008 89.7377 56.7561 88.0312 54.9805 86.0929C54.9805 79.9622 55.0016 73.8525 55.0016 67.7217C55.0016 62.0544 55.0016 56.3661 55.0227 50.6777Z" fill="#002131"/>
<path d="M118.543 45.7064C120.403 43.8946 122.01 41.7878 124.483 40.7344C124.483 48.5927 124.483 56.451 124.504 64.3094C124.504 67.301 124.525 70.3137 124.525 73.3054C122.665 75.8967 120.72 78.467 118.585 80.8477C118.585 78.4249 118.564 76.0021 118.564 73.6003C118.564 64.3094 118.564 55.0184 118.543 45.7064Z" fill="#002131"/>
<path d="M108.144 57.5037C110.004 55.1441 111.927 52.8688 113.978 50.6777C113.978 51.057 113.999 51.4362 113.999 51.8154C113.999 63.2764 113.999 74.7373 113.999 86.1983C112.223 88.0312 110.342 89.7377 108.186 91.1282C108.186 90.6857 108.165 90.2433 108.165 89.822C108.165 79.0352 108.165 68.2695 108.144 57.5037Z" fill="#002131"/>
<path d="M50.4146 80.8686C48.343 78.488 46.4194 76.023 44.6016 73.4527C44.6016 66.6899 44.6016 59.9482 44.6227 53.1854C44.6227 49.0561 44.6438 44.9268 44.6438 40.7764C46.504 41.4927 47.73 43.0306 49.1463 44.3158C49.6113 44.7371 50.0341 45.2428 50.478 45.7063C50.4569 46.1066 50.4357 46.5279 50.4357 46.9282C50.4357 57.8414 50.4357 68.7335 50.4357 79.6467C50.4357 80.047 50.4146 80.4684 50.4146 80.8686Z" fill="#002131"/>
<path d="M99.1596 21.583C95.1433 26.3865 92.7547 31.801 91.0848 37.5736C90.662 39.0483 90.6409 39.0694 89.4783 38.0581C86.7303 35.7196 84.1937 33.1914 82.3758 30.0312C81.5092 28.5354 80.8328 26.9764 80.9173 25.1856C80.9807 23.8373 81.6571 23.0367 82.9043 22.6364C84.4051 22.1518 85.9693 21.9833 87.5336 21.8569C91.3596 21.5619 95.1856 21.6251 99.1596 21.583Z" fill="#002131"/>
<path d="M50.4141 80.8684C50.4352 80.4681 50.4563 80.0468 50.4563 79.6465C50.4563 68.7333 50.4563 57.8412 50.4563 46.928C50.4563 46.5277 50.4775 46.1063 50.4986 45.7061C52.084 47.2861 53.6482 48.9084 55.0433 50.6781C55.0433 56.3664 55.0222 62.0548 55.0222 67.7431C55.0222 73.8739 55.0011 79.9836 55.0011 86.1143C53.2677 84.5132 51.8092 82.7013 50.4141 80.8684Z" fill="white"/>
<path d="M114.019 86.1986C114.019 74.7377 114.019 63.2767 114.019 51.8158C114.019 51.4365 113.998 51.0573 113.998 50.6781C115.414 48.9294 116.936 47.2651 118.564 45.7061C118.564 54.997 118.585 64.288 118.585 73.6C118.585 76.0228 118.606 78.4456 118.606 80.8474C117.211 82.7645 115.668 84.5343 114.019 86.1986Z" fill="white"/>
<path d="M103.598 93.5514C101.632 94.2677 99.6452 94.373 97.6793 93.5514C97.6793 86.2408 97.6582 78.9513 97.6582 71.6407C99.4972 68.8387 101.463 66.1209 103.492 63.4453C103.661 63.656 103.598 63.8877 103.598 64.1195C103.619 73.9371 103.598 83.7548 103.598 93.5514Z" fill="#002131"/>
<path d="M65.5286 63.4873C67.5579 66.1419 69.5026 68.8596 71.3416 71.6406C71.3416 78.9512 71.3205 86.2617 71.3205 93.5723C69.3758 94.3518 67.431 94.3097 65.4863 93.5723C65.4863 87.0202 65.4863 80.447 65.4863 73.8949C65.5075 70.4186 65.5286 66.9635 65.5286 63.4873Z" fill="#002131"/>
<path d="M103.599 93.5511C103.599 83.7335 103.599 73.9369 103.599 64.1192C103.599 63.8875 103.662 63.6557 103.493 63.4451C104.952 61.4015 106.495 59.4 108.144 57.5039C108.144 68.2696 108.165 79.0353 108.165 89.801C108.165 90.2435 108.186 90.6859 108.186 91.1073C106.791 92.1607 105.29 93.0455 103.599 93.5511Z" fill="white"/>
<path d="M65.5287 63.4876C65.5287 66.9638 65.5075 70.4189 65.5075 73.8952C65.5075 80.4473 65.5075 87.0205 65.5075 93.5726C63.7953 93.088 62.2945 92.2243 60.8994 91.1498C60.8994 89.5276 60.9206 87.8843 60.9206 86.262C60.9206 76.7393 60.9417 67.1956 60.9417 57.6729C62.5905 59.5058 64.0913 61.4861 65.5287 63.4876Z" fill="white"/>
<path d="M44.6439 40.7971C44.6439 44.9264 44.6228 49.0557 44.6228 53.2061C44.6228 59.9689 44.6016 66.7107 44.6016 73.4735C42.9951 71.4299 41.4732 69.3231 40.0146 67.1742C40.0146 58.136 40.0358 49.0979 40.0358 40.0387C41.6211 39.9123 43.1642 40.1229 44.6439 40.7971Z" fill="white"/>
<path d="M134.926 59.1051C132.939 61.7807 130.973 64.4564 128.986 67.1531C128.986 67.0056 128.965 66.8581 128.965 66.7106C128.965 57.82 128.965 48.9293 128.965 40.0176C130.994 40.0176 132.96 40.4389 134.841 41.1974C134.862 41.5555 134.884 41.8926 134.884 42.2508C134.905 47.8759 134.926 53.48 134.926 59.1051Z" fill="#002131"/>
<path d="M40.0362 40.0176C40.0362 49.0557 40.015 58.0939 40.015 67.1531C38.028 64.4774 36.0622 61.8018 34.0752 59.1262C34.0752 53.1429 34.0752 47.1596 34.0752 41.1763C36.0199 40.5232 37.9646 40.0176 40.0362 40.0176Z" fill="#002131"/>
<path d="M128.964 40.0391C128.964 48.9297 128.964 57.8204 128.964 66.7321C128.964 66.8796 128.985 67.0271 128.985 67.1746C127.59 69.2813 126.068 71.3249 124.525 73.3264C124.525 70.3347 124.504 67.322 124.504 64.3304C124.504 56.472 124.504 48.6137 124.482 40.7554C125.941 40.1444 127.421 39.8916 128.964 40.0391Z" fill="white"/>
<path d="M71.3203 93.5723C71.3203 86.2618 71.3415 78.9512 71.3415 71.6406C72.948 73.8106 74.491 76.0017 75.9073 78.3192C75.9073 82.4063 75.9073 86.4935 75.9073 90.5596C74.5545 91.8237 73.1171 92.9614 71.3203 93.5723Z" fill="white"/>
<path d="M97.6586 71.6611C97.6586 78.9717 97.6798 86.2612 97.6798 93.5718C95.8619 92.9819 94.4668 91.8021 93.0928 90.5591C93.0928 86.493 93.0928 82.4058 93.0928 78.3397C94.5302 76.0433 96.0521 73.8311 97.6586 71.6611Z" fill="white"/>
<path d="M134.925 59.105C134.925 53.4799 134.904 47.8758 134.904 42.2507C134.904 41.8925 134.861 41.5554 134.861 41.1973C136.531 41.5133 138.053 42.2296 139.512 43.0934C139.512 46.38 139.512 49.6666 139.512 52.9532C138.053 55.081 136.531 57.1246 134.925 59.105Z" fill="white"/>
<path d="M34.0959 41.1768C34.0959 47.16 34.0959 53.1433 34.0959 59.1266C32.5528 57.1673 31.052 55.1869 29.6357 53.1433C29.6357 49.7725 29.6357 46.4016 29.6357 43.0097C31.0309 42.2091 32.5105 41.577 34.0959 41.1768Z" fill="white"/>
<path d="M75.9072 90.5598C75.9072 86.4726 75.9072 82.3854 75.9072 78.3193C77.4292 80.4683 78.9723 82.6172 80.7056 84.6397C80.9381 84.9136 80.917 85.1243 80.7056 85.3982C79.2471 87.2521 77.7251 89.0429 75.9072 90.5598Z" fill="#002131"/>
<path d="M93.0922 78.3408C93.0922 82.4069 93.0922 86.4941 93.0922 90.5602C91.2532 89.0644 89.7524 87.2525 88.315 85.3986C88.1036 85.1247 88.0825 84.8929 88.315 84.6191C90.0483 82.6387 91.5703 80.4897 93.0922 78.3408Z" fill="#002131"/>
<path d="M31.6145 43.0093C31.6145 46.3801 31.6145 49.751 31.6145 53.1429C30.008 51.0151 28.4226 48.8872 26.795 46.7804C26.499 46.4012 26.6682 46.2327 26.9429 46.022C28.4438 44.8843 29.9446 43.8099 31.6145 43.0093Z" fill="#002131"/>
<path d="M139.491 52.975C139.491 49.6884 139.491 46.4018 139.491 43.1152C141.182 43.8737 142.641 44.9692 144.099 46.0858C144.416 46.3176 144.395 46.5072 144.184 46.8021C142.62 48.8246 141.055 50.9104 139.491 52.975Z" fill="#002131"/>
<path d="M103.64 13.1143C103.598 13.1354 103.556 13.1564 103.514 13.1564C103.492 13.1564 103.471 13.1143 103.45 13.1143C103.492 13.0932 103.514 13.0721 103.556 13.0721C103.598 13.0511 103.619 13.0932 103.64 13.1143Z" fill="white"/>
<path d="M164.138 116.62C163.673 113.903 163.208 111.185 162.743 108.488C162.722 108.488 162.701 108.488 162.68 108.467C161.75 111.185 160.841 113.903 159.911 116.641C159.15 116.641 158.431 116.641 157.649 116.641C156.74 113.924 155.831 111.206 154.922 108.467C154.901 108.467 154.88 108.467 154.859 108.467C154.394 111.185 153.908 113.903 153.443 116.641C152.618 116.684 151.815 116.662 150.948 116.662C151.709 112.217 152.47 107.814 153.252 103.411C154.098 103.411 154.901 103.411 155.768 103.411C156.782 106.423 157.776 109.457 158.791 112.491C158.812 112.491 158.833 112.491 158.854 112.491C159.869 109.457 160.904 106.444 161.919 103.39C162.743 103.39 163.547 103.39 164.35 103.39C164.456 103.537 166.591 116.283 166.591 116.599C166.358 116.684 164.456 116.684 164.138 116.62Z" fill="white"/>
<path d="M133.72 112.302C132.473 112.302 131.226 112.302 129.958 112.302C129.958 111.502 129.958 110.743 129.958 109.985C130.169 109.922 136.067 109.879 136.637 109.964C136.701 110.217 136.701 110.469 136.68 110.743C136.574 112.597 135.855 114.135 134.502 115.399C133.53 116.305 132.346 116.811 131.036 116.958C129.725 117.106 128.457 117 127.231 116.516C124.906 115.589 123.51 113.84 123.003 111.438C122.39 108.51 123.574 105.792 126.068 104.17C127.146 103.475 128.351 103.159 129.619 103.117C130.824 103.074 132.008 103.243 133.128 103.685C134.122 104.086 134.946 104.739 135.686 105.518C135.707 105.539 135.707 105.56 135.707 105.539C135.115 106.15 134.545 106.74 133.974 107.351C133.889 107.267 133.805 107.204 133.741 107.12C132.959 106.382 132.071 105.834 130.993 105.666C129.027 105.35 127.379 105.898 126.195 107.562C125.582 108.405 125.413 109.353 125.476 110.385C125.582 112.365 127.273 114.262 129.535 114.514C130.296 114.599 131.078 114.578 131.818 114.304C132.727 113.967 133.361 113.335 133.784 112.492C133.784 112.471 133.805 112.45 133.805 112.429C133.741 112.365 133.741 112.365 133.72 112.302Z" fill="white"/>
<path d="M140.675 116.621C140.675 112.239 140.675 107.835 140.675 103.432C140.886 103.369 147.587 103.348 147.925 103.411C147.925 104.212 147.925 105.012 147.925 105.855C146.361 105.855 144.797 105.855 143.233 105.855C143.233 106.656 143.233 107.414 143.233 108.215C144.797 108.215 146.34 108.215 147.883 108.215C147.967 108.446 147.989 110.237 147.925 110.68C147.629 110.743 147.312 110.701 146.995 110.701C146.699 110.701 146.382 110.701 146.086 110.701C145.769 110.701 145.452 110.701 145.135 110.701C144.839 110.701 144.522 110.701 144.226 110.701C143.909 110.701 143.592 110.701 143.296 110.701C143.211 110.932 143.19 113.777 143.275 114.177C144.818 114.177 146.382 114.177 147.967 114.177C147.967 114.999 147.967 115.799 147.967 116.6C147.672 116.684 140.95 116.705 140.675 116.621Z" fill="white"/>
<path d="M4.15625 103.412C4.64243 103.412 5.08633 103.412 5.53023 103.412C6.41804 106.551 7.30584 109.69 8.19365 112.808C8.23592 112.829 8.23593 112.829 8.23593 112.829C8.23593 112.829 8.25706 112.829 8.25706 112.808C9.50422 109.669 10.7725 106.551 12.0197 103.412C12.3156 103.37 12.3156 103.37 12.4213 103.643C13.4993 106.403 14.5985 109.163 15.6766 111.944C15.8034 112.239 15.9091 112.534 16.0993 112.829C17.0083 109.69 17.9172 106.551 18.8262 103.391C19.2701 103.391 19.714 103.391 20.179 103.391C20.1367 103.517 20.1156 103.622 20.0945 103.728C18.8896 107.899 17.7058 112.071 16.501 116.263C16.4798 116.347 16.4587 116.432 16.4164 116.516C16.3953 116.558 16.3319 116.621 16.2684 116.621C16.205 116.621 16.1205 116.579 16.0782 116.537C16.0359 116.474 16.0148 116.39 15.9936 116.326C14.7888 113.25 13.5628 110.153 12.3579 107.078C12.3156 106.951 12.2733 106.846 12.1888 106.677C12.1254 106.825 12.0619 106.909 12.0408 107.014C10.7936 110.09 9.56763 113.166 8.34162 116.242C8.32048 116.305 8.2782 116.39 8.25706 116.453C8.17251 116.642 8.17251 116.642 7.89771 116.621C6.65056 112.239 5.4034 107.836 4.15625 103.412Z" fill="white"/>
<path d="M81.3612 109.985C81.3189 107.457 82.9043 104.381 86.2441 103.391C89.3937 102.443 92.966 103.601 94.6782 106.909C95.2912 108.089 95.4815 109.353 95.3547 110.659C95.101 113.356 93.6636 115.252 91.2538 116.39C90.1124 116.937 88.8652 117.043 87.6181 116.937C85.5043 116.727 83.8766 115.737 82.6295 114.051C81.7417 112.892 81.3612 111.544 81.3612 109.985ZM88.3368 115.673C91.5498 115.673 93.9807 113.208 93.9807 110.006C93.9807 106.446 91.0425 104.381 88.3368 104.381C85.61 104.381 82.7352 106.53 82.7352 110.111C82.7352 113.251 85.3563 115.716 88.3368 115.673Z" fill="white"/>
<path d="M106.219 103.075C108.904 103.138 111.018 104.36 112.371 106.804C113.026 108.005 113.216 109.311 113.089 110.66C112.836 113.356 111.398 115.252 108.989 116.39C107.847 116.938 106.6 117.043 105.353 116.938C103.26 116.727 101.632 115.737 100.385 114.073C99.4975 112.872 99.0959 111.502 99.117 110.007C99.1381 108.363 99.6455 106.888 100.681 105.624C102.076 103.918 103.915 103.096 106.219 103.075ZM106.135 104.381C103.45 104.36 100.618 106.446 100.512 109.943C100.428 113.209 103.091 115.674 106.029 115.674C109.221 115.695 111.715 113.272 111.758 110.133C111.821 106.488 108.841 104.381 106.135 104.381Z" fill="white"/>
<path d="M60.2654 116.622C60.1386 116.643 60.0752 116.643 60.0118 116.643C59.6736 116.643 59.3142 116.643 58.976 116.643C58.9126 116.411 58.8703 104.128 58.9337 103.412C58.9971 103.412 59.0817 103.391 59.1451 103.391C60.3288 103.391 61.4914 103.37 62.6752 103.412C63.2882 103.433 63.9012 103.454 64.4931 103.581C66.1419 103.897 67.1988 105.224 67.2199 106.888C67.2199 107.9 66.924 108.784 66.1841 109.501C65.6557 109.985 65.0427 110.259 64.3451 110.386C63.9012 110.47 63.4573 110.491 63.0134 110.533C62.9077 110.533 62.8232 110.554 62.654 110.554C62.9288 110.933 63.2036 111.249 63.4573 111.586C63.711 111.924 63.9858 112.261 64.2394 112.598C64.5142 112.935 64.7679 113.272 65.0427 113.63C65.2963 113.967 65.5711 114.304 65.8248 114.641C66.0784 114.978 66.3532 115.315 66.6069 115.653C66.8606 115.99 67.1142 116.306 67.4101 116.685C67.2622 116.706 67.1776 116.706 67.0931 116.706C66.7549 116.706 66.3955 116.706 66.0573 116.706C65.8459 116.706 65.7191 116.643 65.5923 116.474C64.5776 115.147 63.5419 113.82 62.5061 112.513C62.0622 111.945 61.5971 111.376 61.1744 110.786C61.0475 110.617 60.8996 110.533 60.7093 110.554C60.5825 110.575 60.4345 110.554 60.2654 110.554C60.2654 112.577 60.2654 114.578 60.2654 116.622ZM60.2654 109.185C60.3288 109.206 60.3711 109.206 60.4134 109.206C61.3012 109.206 62.189 109.227 63.0768 109.206C63.5207 109.185 63.9646 109.121 64.3874 108.995C65.402 108.7 65.8882 107.752 65.8459 106.804C65.7825 105.772 65.1061 104.992 64.1126 104.824C63.6898 104.76 63.2671 104.718 62.8443 104.718C62.0622 104.697 61.2801 104.718 60.4979 104.718C60.4134 104.718 60.35 104.739 60.2654 104.739C60.2654 106.235 60.2654 107.71 60.2654 109.185Z" fill="white"/>
<path d="M27.4376 103.412C27.5644 103.412 27.6701 103.412 27.7758 103.412C29.8262 107.794 31.8766 112.197 33.9481 116.622C33.8425 116.643 33.7579 116.664 33.6945 116.664C33.3986 116.664 33.1026 116.664 32.8067 116.664C32.5953 116.685 32.4896 116.601 32.4051 116.411C31.94 115.4 31.4538 114.41 30.9677 113.398C30.8408 113.124 30.6929 112.829 30.566 112.535C30.5026 112.366 30.3969 112.303 30.2067 112.303C28.6636 112.303 27.1205 112.303 25.5774 112.303C25.2815 112.303 25.0067 112.303 24.7107 112.303C24.6473 112.408 24.6051 112.513 24.5628 112.598C23.9709 113.841 23.379 115.063 22.8083 116.306C22.6815 116.558 22.5546 116.664 22.2799 116.643C22.0262 116.622 21.7725 116.643 21.5189 116.643C21.4343 116.643 21.3286 116.643 21.1807 116.622C23.2733 112.197 25.3449 107.815 27.4376 103.412ZM27.649 106.319C27.6278 106.319 27.6067 106.319 27.5644 106.319C26.8246 107.879 26.0847 109.438 25.3449 111.018C26.8668 111.018 28.3465 111.018 29.8685 111.018C29.1075 109.416 28.3677 107.857 27.649 106.319Z" fill="white"/>
<path d="M54.7901 108.868C54.7901 109.332 54.7901 109.732 54.7901 110.174C52.7185 110.174 50.6681 110.174 48.6388 110.174C48.5754 110.406 48.5543 114.936 48.6177 115.357C50.6681 115.357 52.7185 115.357 54.7901 115.357C54.7901 115.799 54.7901 116.2 54.7901 116.6C54.5787 116.663 47.6665 116.684 47.286 116.621C47.2226 116.41 47.2014 103.854 47.2649 103.454C47.4762 103.39 54.5153 103.39 54.8323 103.454C54.8323 103.517 54.8535 103.58 54.8535 103.643C54.8535 103.98 54.8535 104.339 54.8535 104.718C52.7608 104.718 50.6681 104.718 48.5754 104.718C48.5754 106.108 48.5754 107.478 48.5754 108.868C50.647 108.868 52.6974 108.868 54.7901 108.868Z" fill="white"/>
<path d="M39.3597 104.697C38.3451 104.697 37.3939 104.697 36.4004 104.697C36.4004 104.255 36.4004 103.855 36.4004 103.412C38.8313 103.412 41.2199 103.412 43.6719 103.412C43.6931 103.833 43.6931 104.255 43.6719 104.697C42.6784 104.697 41.7272 104.697 40.7126 104.697C40.7126 108.679 40.7126 112.64 40.7126 116.622C40.2475 116.622 39.8248 116.622 39.3386 116.622C39.3597 112.661 39.3597 108.7 39.3597 104.697Z" fill="white"/>
<path d="M71.7438 103.412C72.2088 103.412 72.6316 103.412 73.0755 103.412C73.0755 107.394 73.0755 111.355 73.0755 115.337C74.7877 115.337 76.4576 115.337 78.1698 115.337C78.1909 115.779 78.1909 116.179 78.1698 116.58C77.9373 116.664 72.0397 116.664 71.7227 116.601C71.7438 112.24 71.7438 107.836 71.7438 103.412Z" fill="white"/>
<path d="M119.283 116.621C118.966 116.684 117.042 116.684 116.81 116.621C116.81 113.377 116.81 110.132 116.81 106.909C117.063 106.846 118.987 106.846 119.283 106.909C119.283 110.132 119.283 113.377 119.283 116.621Z" fill="white"/>
<path d="M118.078 106.002C117.359 106.044 116.472 105.433 116.472 104.401C116.472 103.537 117.169 102.842 118.057 102.842C118.945 102.842 119.664 103.558 119.664 104.443C119.642 105.307 118.945 106.002 118.078 106.002Z" fill="white"/>
</g>
<defs>
<clipPath id="clip0">
<rect width="171" height="117" fill="white"/>
</clipPath>
</defs>
</svg>
